SplineFontDB: 3.0
FontName: Boon-400
FullName: Boon 400
FamilyName: Boon
Weight: 400
Copyright: Copyright 2013-2015, Sungsit Sawaiwan (https://fontuni.com | uni@fontuni.com). This Font Software is licensed under the SIL Open Font License, Version 1.1 (http://scripts.sil.org/OFL).
Version: 1.0-beta2
ItalicAngle: 0
UnderlinePosition: -120
UnderlineWidth: 60
Ascent: 960
Descent: 240
InvalidEm: 0
woffMajor: 1
woffMinor: 0
UFOAscent: 960
UFODescent: -240
LayerCount: 2
Layer: 0 0 "Back" 1
Layer: 1 0 "Fore" 0
StyleMap: 0x0000
FSType: 0
OS2Version: 0
OS2_WeightWidthSlopeOnly: 0
OS2_UseTypoMetrics: 0
CreationTime: 1369324892
ModificationTime: 1445511831
PfmFamily: 33
TTFWeight: 400
TTFWidth: 5
LineGap: 90
VLineGap: 0
OS2TypoAscent: 960
OS2TypoAOffset: 0
OS2TypoDescent: -240
OS2TypoDOffset: 0
OS2TypoLinegap: 90
OS2WinAscent: 1320
OS2WinAOffset: 0
OS2WinDescent: 480
OS2WinDOffset: 0
HheadAscent: 1320
HheadAOffset: 0
HheadDescent: -480
HheadDOffset: 0
OS2CapHeight: 780
OS2XHeight: 600
OS2Vendor: 'FUni'
Lookup: 1 0 0 "ThaiRC.rd" { "ThaiRC.rd subtable"  } ['ss01' ('thai' <'dflt' > ) 'salt' ('thai' <'dflt' > ) 'ccmp' ('thai' <'PAL ' 'SAN ' > ) 'locl' ('thai' <'PAL ' 'SAN ' > ) ]
Lookup: 6 0 0 "ThaiContextRC.rd" { "ThaiContextRC.rd subtable"  } ['ccmp' ('thai' <'dflt' > ) ]
Lookup: 2 0 0 "ThaiDecomp" { "ThaiDecomp subtable"  } ['ccmp' ('thai' <'dflt' > ) ]
Lookup: 1 0 0 "ThaiT.0E4D" { "ThaiT.0E4D subtable"  } []
Lookup: 1 0 0 "Thai0E4D.0E48" { "Thai0E4D.0E48 subtable"  } []
Lookup: 1 0 0 "Thai0E4D.0E49" { "Thai0E4D.0E49 subtable"  } []
Lookup: 1 0 0 "Thai0E4D.0E4A" { "Thai0E4D.0E4A subtable"  } []
Lookup: 1 0 0 "Thai0E4D.0E4B" { "Thai0E4D.0E4B subtable"  } []
Lookup: 6 0 0 "ThaiContext.ro" { "ThaiContext.ro contextual 0"  "ThaiContext.ro contextual 1"  "ThaiContext.ro contextual 2"  "ThaiContext.ro contextual 3"  } ['ccmp' ('thai' <'dflt' > ) ]
Lookup: 1 0 0 "Thai.sd" { "Thai.sd subtable"  } []
Lookup: 1 0 0 "ThaiBV.sd" { "ThaiBV.sd subtable"  } []

StartChar: .notdef
Encoding: 844 -1 0
GlifName: _notdef
Width: 660
VWidth: 0
Flags: MW
LayerCount: 2
Fore
SplineSet
102 0 m 1
 102 600 l 1
 330 600 l 1
 558 600 l 1
 558 0 l 1
 330 0 l 1
 102 0 l 1
330 69 m 1
 473 69 l 1
 473 531 l 1
 330 531 l 1
 187 531 l 1
 187 69 l 1
 330 69 l 1
EndSplineSet
PickledDataWithLists: "(dp0
Vcom.fontlab.hintData
p1
(dp2
Vvhints
p3
(lp4
(dp5
Vwidth
p6
L10L
sVposition
p7
L160L
sa(dp8
g6
L10L
sg7
L190L
sa(dp9
g6
L10L
sg7
L520L
sa(dp10
g6
L10L
sg7
L550L
sasVhhints
p11
(lp12
(dp13
g6
L10L
sg7
L0L
sa(dp14
g6
L10L
sg7
L30L
sa(dp15
g6
L10L
sg7
L560L
sa(dp16
g6
L10L
sg7
L590L
sass."
EndChar

StartChar: exclam
Encoding: 4 33 5
GlifName: exclam
Width: 330
VWidth: 0
Flags: HMW
LayerCount: 2
Fore
SplineSet
110 810 m 1
 220 810 l 1
 196 270 l 1
 134 270 l 1
 110 810 l 1
EndSplineSet
Refer: 18 46 S 1 0 0 1 0 0 2
PickledDataWithLists: "(dp0
Vcom.fontlab.hintData
p1
(dp2
Vvhints
p3
(lp4
(dp5
Vwidth
p6
L10L
sVposition
p7
L81L
sa(dp8
g6
L10L
sg7
L101L
sa(dp9
g6
L10L
sg7
L125L
sa(dp10
g6
L10L
sg7
L195L
sa(dp11
g6
L10L
sg7
L210L
sa(dp12
g6
L10L
sg7
L239L
sasVhhints
p13
(lp14
(dp15
g6
L10L
sg7
L-5L
sa(dp16
g6
L10L
sg7
L122L
sa(dp17
g6
L10L
sg7
L268L
sa(dp18
g6
L10L
sg7
L826L
sass."
EndChar

StartChar: numbersign
Encoding: 6 35 7
GlifName: numbersign
Width: 810
VWidth: 0
Flags: MW
LayerCount: 2
Fore
SplineSet
60 214 m 1
 60 276 l 1
 192 276 l 1
 254 504 l 1
 120 504 l 1
 120 566 l 1
 270 566 l 1
 328 780 l 1
 402 780 l 1
 344 566 l 1
 560 566 l 1
 618 780 l 1
 692 780 l 1
 634 566 l 1
 750 566 l 1
 750 504 l 1
 618 504 l 1
 556 276 l 1
 690 276 l 1
 690 214 l 1
 540 214 l 1
 482 0 l 1
 408 0 l 1
 466 214 l 1
 250 214 l 1
 192 0 l 1
 118 0 l 1
 176 214 l 1
 60 214 l 1
328 504 m 1
 266 276 l 1
 482 276 l 1
 544 504 l 1
 328 504 l 1
EndSplineSet
PickledDataWithLists: "(dp0
Vcom.fontlab.hintData
p1
(dp2
Vvhints
p3
(lp4
(dp5
Vwidth
p6
L10L
sVposition
p7
L111L
sa(dp8
g6
L10L
sg7
L329L
sa(dp9
g6
L10L
sg7
L381L
sa(dp10
g6
L10L
sg7
L599L
sa(dp11
g6
L10L
sg7
L649L
sa(dp12
g6
L10L
sg7
L689L
sasVhhints
p13
(lp14
(dp15
g6
L10L
sg7
L-29L
sa(dp16
g6
L10L
sg7
L-19L
sa(dp17
g6
L7L
sg7
L241L
sa(dp18
g6
L10L
sg7
L284L
sa(dp19
g6
L7L
sg7
L521L
sa(dp20
g6
L10L
sg7
L564L
sa(dp21
g6
L10L
sg7
L819L
sa(dp22
g6
L10L
sg7
L829L
sass."
EndChar

StartChar: dollar
Encoding: 7 36 8
GlifName: dollar
Width: 660
VWidth: 0
Flags: MW
LayerCount: 2
Fore
SplineSet
67 182 m 1
 160 188 l 1
 169 129 218 70 300 58 c 1
 300 368 l 1
 273 379 246 389 224 398 c 0
 159 425 85 481 85 585 c 0
 85 691 162 780 300 792 c 1
 300 900 l 1
 369 900 l 1
 369 791 l 1
 507 775 565 671 575 603 c 1
 482 596 l 1
 474 652 434 705 369 720 c 1
 369 428 l 1
 397 417 425 407 447 400 c 0
 519 376 592 317 592 200 c 0
 592 93 518 2 369 -11 c 1
 369 -120 l 1
 300 -120 l 1
 300 -12 l 1
 144 1 77 111 67 182 c 1
300 455 m 1
 300 722 l 1
 229 712 178 666 178 585 c 0
 178 513 236 481 279 463 c 0
 286 460 293 458 300 455 c 1
369 342 m 1
 369 58 l 1
 452 69 499 118 499 200 c 0
 499 285 438 319 401 331 c 0
 391 334 380 338 369 342 c 1
EndSplineSet
PickledDataWithLists: "(dp0
Vcom.fontlab.hintData
p1
(dp2
Vvhints
p3
(lp4
(dp5
Vwidth
p6
L10L
sVposition
p7
L70L
sa(dp8
g6
L10L
sg7
L78L
sa(dp9
g6
L10L
sg7
L169L
sa(dp10
g6
L10L
sg7
L319L
sa(dp11
g6
L10L
sg7
L323L
sa(dp12
g6
L10L
sg7
L382L
sa(dp13
g6
L10L
sg7
L392L
sa(dp14
g6
L10L
sg7
L504L
sa(dp15
g6
L10L
sg7
L565L
sa(dp16
g6
L10L
sg7
L604L
sa(dp17
g6
L10L
sg7
L664L
sasVhhints
p18
(lp19
(dp20
g6
L10L
sg7
L-127L
sa(dp21
g6
L10L
sg7
L46L
sa(dp22
g6
L10L
sg7
L192L
sa(dp23
g6
L10L
sg7
L584L
sa(dp24
g6
L10L
sg7
L812L
sa(dp25
g6
L10L
sg7
L916L
sass."
EndChar

StartChar: ampersand
Encoding: 9 38 10
GlifName: ampersand
Width: 810
VWidth: 0
Flags: MW
LayerCount: 2
Fore
SplineSet
642 149 m 1
 720 68 782 5 782 5 c 2
 782 0 l 1
 676 0 l 1
 676 0 641 37 590 90 c 1
 520 25 427 -18 314 -18 c 0
 152 -18 72 66 72 166 c 0
 72 282 181 362 278 425 c 1
 232 484 192 558 192 625 c 0
 192 733 262 798 364 798 c 0
 478 798 530 723 530 651 c 0
 530 552 472 479 384 418 c 1
 436 363 516 279 591 202 c 1
 628 261 649 333 657 405 c 1
 737 393 l 1
 728 308 696 221 642 149 c 1
542 140 m 1
 468 218 379 312 321 376 c 1
 229 312 164 243 164 166 c 0
 164 94 218 52 314 52 c 0
 413 52 488 86 542 140 c 1
364 736 m 0
 300 736 274 683 274 623 c 0
 274 575 303 517 341 467 c 1
 410 519 450 582 450 651 c 0
 450 703 418 736 364 736 c 0
EndSplineSet
PickledDataWithLists: "(dp0
Vcom.fontlab.hintData
p1
(dp2
Vvhints
p3
(lp4
(dp5
Vwidth
p6
L10L
sVposition
p7
L66L
sa(dp8
g6
L10L
sg7
L164L
sa(dp9
g6
L10L
sg7
L202L
sa(dp10
g6
L10L
sg7
L296L
sa(dp11
g6
L10L
sg7
L450L
sa(dp12
g6
L10L
sg7
L538L
sa(dp13
g6
L10L
sg7
L695L
sa(dp14
g6
L10L
sg7
L749L
sasVhhints
p15
(lp16
(dp17
g6
L10L
sg7
L-25L
sa(dp18
g6
L10L
sg7
L39L
sa(dp19
g6
L10L
sg7
L389L
sa(dp20
g6
L10L
sg7
L734L
sa(dp21
g6
L10L
sg7
L796L
sass."
EndChar

StartChar: quotesingle
Encoding: 10 39 11
GlifName: quotesingle
Width: 330
VWidth: 0
Flags: MW
LayerCount: 2
Fore
SplineSet
121 900 m 1
 209 900 l 1
 194 540 l 1
 136 540 l 1
 121 900 l 1
EndSplineSet
PickledDataWithLists: "(dp0
Vcom.fontlab.hintData
p1
(dp2
Vvhints
p3
(lp4
(dp5
Vwidth
p6
L10L
sVposition
p7
L110L
sa(dp8
g6
L10L
sg7
L209L
sasVhhints
p9
(lp10
(dp11
g6
L10L
sg7
L544L
sa(dp12
g6
L10L
sg7
L832L
sass."
EndChar

StartChar: parenleft
Encoding: 11 40 12
GlifName: parenleft
Width: 390
VWidth: 0
Flags: MW
LayerCount: 2
Fore
SplineSet
72 390 m 0
 72 611 144 784 254 909 c 1
 312 886 l 1
 211 768 156 600 156 390 c 0
 156 180 211 12 312 -106 c 1
 254 -129 l 1
 144 -4 72 169 72 390 c 0
EndSplineSet
PickledDataWithLists: "(dp0
Vcom.fontlab.hintData
p1
(dp2
Vvhints
p3
(lp4
(dp5
Vwidth
p6
L10L
sVposition
p7
L55L
sa(dp8
g6
L10L
sg7
L135L
sa(dp9
g6
L10L
sg7
L270L
sasVhhints
p10
(lp11
(dp12
g6
L10L
sg7
L-112L
sa(dp13
g6
L10L
sg7
L882L
sass."
Substitution2: "Latin.subs subtable" parenleft.subs
Substitution2: "Latin.subs subtable" parenleft.subs
Substitution2: "Latin.sups subtable" parenleft.sups
Substitution2: "Latin.sups subtable" parenleft.sups
EndChar

StartChar: asterisk
Encoding: 13 42 14
GlifName: asterisk
Width: 570
VWidth: 0
Flags: MW
LayerCount: 2
Fore
SplineSet
52 702 m 1
 76 778 l 1
 262 700 l 1
 246 900 l 1
 326 900 l 1
 309 700 l 1
 494 778 l 1
 519 702 l 1
 324 655 l 1
 455 503 l 1
 390 456 l 1
 286 628 l 1
 180 456 l 1
 116 503 l 1
 247 655 l 1
 52 702 l 1
EndSplineSet
PickledDataWithLists: "(dp0
Vcom.fontlab.hintData
p1
(dp2
Vvhints
p3
(lp4
(dp5
Vwidth
p6
L10L
sVposition
p7
L84L
sa(dp8
g6
L10L
sg7
L89L
sa(dp9
g6
L10L
sg7
L256L
sa(dp10
g6
L10L
sg7
L265L
sa(dp11
g6
L10L
sg7
L272L
sa(dp12
g6
L10L
sg7
L326L
sa(dp13
g6
L10L
sg7
L335L
sa(dp14
g6
L10L
sg7
L501L
sa(dp15
g6
L10L
sg7
L506L
sasVhhints
p16
(lp17
(dp18
g6
L10L
sg7
L392L
sa(dp19
g6
L10L
sg7
L488L
sa(dp20
g6
L10L
sg7
L495L
sa(dp21
g6
L10L
sg7
L735L
sa(dp22
g6
L10L
sg7
L742L
sa(dp23
g6
L10L
sg7
L839L
sass."
EndChar

StartChar: plus
Encoding: 14 43 15
GlifName: plus
Width: 600
VWidth: 0
Flags: MW
LayerCount: 2
Fore
SplineSet
97 328 m 1
 97 392 l 1
 257 392 l 1
 257 555 l 1
 343 555 l 1
 343 392 l 1
 503 392 l 1
 503 328 l 1
 343 328 l 1
 343 165 l 1
 257 165 l 1
 257 328 l 1
 97 328 l 1
EndSplineSet
PickledDataWithLists: "(dp0
Vcom.fontlab.hintData
p1
(dp2
Vvhints
p3
(lp4
(dp5
Vwidth
p6
L10L
sVposition
p7
L80L
sa(dp8
g6
L10L
sg7
L250L
sa(dp9
g6
L10L
sg7
L259L
sa(dp10
g6
L10L
sg7
L340L
sa(dp11
g6
L10L
sg7
L510L
sasVhhints
p12
(lp13
(dp14
g6
L10L
sg7
L145L
sa(dp15
g6
L10L
sg7
L302L
sa(dp16
g6
L10L
sg7
L362L
sa(dp17
g6
L10L
sg7
L370L
sa(dp18
g6
L10L
sg7
L525L
sass."
EndChar

StartChar: comma
Encoding: 15 44 16
GlifName: comma
Width: 330
VWidth: 0
Flags: MW
LayerCount: 2
Fore
SplineSet
92 63 m 0
 92 104 120 133 164 133 c 0
 226 133 252 81 252 25 c 0
 252 -79 184 -152 120 -195 c 1
 92 -156 l 1
 141 -123 182 -72 189 1 c 1
 181 -2 172 -3 162 -3 c 0
 122 -3 92 23 92 63 c 0
EndSplineSet
PickledDataWithLists: "(dp0
Vcom.fontlab.hintData
p1
(dp2
Vvhints
p3
(lp4
(dp5
Vwidth
p6
L10L
sVposition
p7
L61L
sa(dp8
g6
L10L
sg7
L170L
sa(dp9
g6
L10L
sg7
L251L
sasVhhints
p10
(lp11
(dp12
g6
L10L
sg7
L-182L
sa(dp13
g6
L10L
sg7
L48L
sa(dp14
g6
L10L
sg7
L117L
sass."
EndChar

StartChar: hyphen
Encoding: 16 45 17
GlifName: hyphen
Width: 600
VWidth: 0
Flags: MW
LayerCount: 2
Fore
SplineSet
97 395 m 1
 503 395 l 1
 503 325 l 1
 97 325 l 1
 97 395 l 1
EndSplineSet
PickledDataWithLists: "(dp0
Vcom.fontlab.hintData
p1
(dp2
Vvhints
p3
(lp4
(dp5
Vwidth
p6
L10L
sVposition
p7
L75L
sa(dp8
g6
L10L
sg7
L514L
sasVhhints
p9
(lp10
(dp11
g6
L10L
sg7
L301L
sa(dp12
g6
L10L
sg7
L363L
sa(dp13
g6
L10L
sg7
L371L
sass."
EndChar

StartChar: period
Encoding: 17 46 18
GlifName: period
Width: 330
VWidth: 0
Flags: MW
LayerCount: 2
Fore
SplineSet
165 133 m 0
 206 133 237 107 237 65 c 0
 237 23 206 -3 165 -3 c 0
 124 -3 93 23 93 65 c 0
 93 107 124 133 165 133 c 0
EndSplineSet
PickledDataWithLists: "(dp0
Vcom.fontlab.hintData
p1
(dp2
Vvhints
p3
(lp4
(dp5
Vwidth
p6
L10L
sVposition
p7
L81L
sa(dp8
g6
L10L
sg7
L239L
sasVhhints
p9
(lp10
(dp11
g6
L10L
sg7
L-5L
sa(dp12
g6
L10L
sg7
L122L
sass."
EndChar

StartChar: slash
Encoding: 18 47 19
GlifName: slash
Width: 510
VWidth: 0
Flags: MW
LayerCount: 2
Fore
SplineSet
50 0 m 1
 50 5 l 1
 379 780 l 1
 460 780 l 1
 460 775 l 1
 132 0 l 1
 50 0 l 1
EndSplineSet
PickledDataWithLists: "(dp0
Vcom.fontlab.hintData
p1
(dp2
Vvhints
p3
(lp4
(dp5
Vwidth
p6
L10L
sVposition
p7
L41L
sa(dp8
g6
L10L
sg7
L429L
sasVhhints
p9
(lp10
(dp11
g6
L10L
sg7
L-29L
sa(dp12
g6
L10L
sg7
L818L
sass."
Substitution2: "LatinSlash.frac subtable" fraction
EndChar

StartChar: zero
Encoding: 19 48 20
GlifName: zero
Width: 660
VWidth: 0
Flags: MW
LayerCount: 2
Fore
SplineSet
67 374 m 2
 67 406 l 2
 67 587 118 798 330 798 c 0
 542 798 593 587 593 406 c 2
 593 374 l 2
 593 193 542 -18 330 -18 c 0
 118 -18 67 193 67 374 c 2
330 52 m 0
 438 52 499 178 499 374 c 2
 499 406 l 2
 499 602 438 728 330 728 c 0
 222 728 161 602 161 406 c 2
 161 374 l 2
 161 178 222 52 330 52 c 0
EndSplineSet
PickledDataWithLists: "(dp0
Vcom.fontlab.hintData
p1
(dp2
Vvhints
p3
(lp4
(dp5
Vwidth
p6
L10L
sVposition
p7
L66L
sa(dp8
g6
L10L
sg7
L164L
sa(dp9
g6
L10L
sg7
L456L
sa(dp10
g6
L10L
sg7
L546L
sa(dp11
g6
L10L
sg7
L564L
sa(dp12
g6
L10L
sg7
L644L
sasVhhints
p13
(lp14
(dp15
g6
L10L
sg7
L-24L
sa(dp16
g6
L10L
sg7
L46L
sa(dp17
g6
L10L
sg7
L742L
sa(dp18
g6
L10L
sg7
L811L
sass."
Substitution2: "Latin.dnom subtable" zero.dnom
Substitution2: "Latin.numr subtable" zero.numr
Substitution2: "Latin.subs subtable" zero.subs
Substitution2: "Latin.sups subtable" zero.sups
Substitution2: "Latin.pnum subtable" zero.pnum
EndChar

StartChar: one
Encoding: 20 49 21
GlifName: one
Width: 660
VWidth: 0
Flags: MW
LayerCount: 2
Fore
SplineSet
102 630 m 1
 364 786 l 1
 430 779 l 1
 430 74 l 1
 582 74 l 1
 582 0 l 1
 142 0 l 1
 142 74 l 1
 337 74 l 1
 337 681 l 1
 142 562 l 1
 102 630 l 1
EndSplineSet
PickledDataWithLists: "(dp0
Vcom.fontlab.hintData
p1
(dp2
Vvhints
p3
(lp4
(dp5
Vwidth
p6
L10L
sVposition
p7
L126L
sa(dp8
g6
L10L
sg7
L364L
sa(dp9
g6
L10L
sg7
L371L
sa(dp10
g6
L10L
sg7
L462L
sa(dp11
g6
L10L
sg7
L469L
sa(dp12
g6
L10L
sg7
L677L
sasVhhints
p13
(lp14
(dp15
g6
L10L
sg7
L-19L
sa(dp16
g6
L10L
sg7
L-9L
sa(dp17
g6
L10L
sg7
L49L
sa(dp18
g6
L10L
sg7
L57L
sa(dp19
g6
L10L
sg7
L591L
sa(dp20
g6
L10L
sg7
L802L
sass."
Substitution2: "Latin.dnom subtable" one.dnom
Substitution2: "Latin.numr subtable" one.numr
Substitution2: "Latin.subs subtable" one.subs
Substitution2: "Latin.sups subtable" one.sups
Substitution2: "Latin.pnum subtable" one.pnum
EndChar

StartChar: two
Encoding: 21 50 22
GlifName: two
Width: 660
VWidth: 0
Flags: MW
LayerCount: 2
Fore
SplineSet
77 36 m 0
 77 212 221 312 331 386 c 0
 409 438 482 492 482 580 c 0
 482 642 452 728 330 728 c 0
 245 728 193 663 181 605 c 1
 85 614 l 1
 99 685 171 798 329 798 c 0
 539 798 574 646 574 580 c 0
 574 455 465 379 389 327 c 0
 289 259 193 190 180 74 c 1
 582 74 l 1
 582 0 l 1
 82 0 l 1
 82 0 77 16 77 36 c 0
EndSplineSet
PickledDataWithLists: "(dp0
Vcom.fontlab.hintData
p1
(dp2
Vvhints
p3
(lp4
(dp5
Vwidth
p6
L10L
sVposition
p7
L71L
sa(dp8
g6
L10L
sg7
L81L
sa(dp9
g6
L10L
sg7
L501L
sa(dp10
g6
L10L
sg7
L599L
sa(dp11
g6
L10L
sg7
L639L
sasVhhints
p12
(lp13
(dp14
g6
L10L
sg7
L-13L
sa(dp15
g6
L10L
sg7
L61L
sa(dp16
g6
L10L
sg7
L74L
sa(dp17
g6
L10L
sg7
L620L
sa(dp18
g6
L10L
sg7
L740L
sa(dp19
g6
L10L
sg7
L809L
sass."
Substitution2: "Latin.dnom subtable" two.dnom
Substitution2: "Latin.numr subtable" two.numr
Substitution2: "Latin.subs subtable" two.subs
Substitution2: "Latin.sups subtable" two.sups
Substitution2: "Latin.pnum subtable" two.pnum
EndChar

StartChar: three
Encoding: 22 51 23
GlifName: three
Width: 660
VWidth: 0
Flags: MW
LayerCount: 2
Fore
SplineSet
47 122 m 1
 139 139 l 1
 151 106 188 44 302 44 c 0
 450 44 482 138 482 205 c 0
 482 271 445 351 312 351 c 2
 212 351 l 1
 212 420 l 1
 302 420 l 2
 378 420 455 476 455 573 c 0
 455 635 425 721 303 721 c 0
 218 721 165 655 153 597 c 1
 57 607 l 1
 71 678 143 791 301 791 c 0
 511 791 546 639 546 573 c 0
 546 483 492 427 434 396 c 1
 544 362 577 272 577 210 c 0
 577 132 536 -25 302 -25 c 0
 126 -25 63 78 47 122 c 1
EndSplineSet
PickledDataWithLists: "(dp0
Vcom.fontlab.hintData
p1
(dp2
Vvhints
p3
(lp4
(dp5
Vwidth
p6
L10L
sVposition
p7
L66L
sa(dp8
g6
L10L
sg7
L76L
sa(dp9
g6
L10L
sg7
L203L
sa(dp10
g6
L10L
sg7
L491L
sa(dp11
g6
L10L
sg7
L546L
sa(dp12
g6
L10L
sg7
L589L
sa(dp13
g6
L10L
sg7
L644L
sasVhhints
p14
(lp15
(dp16
g6
L10L
sg7
L-27L
sa(dp17
g6
L10L
sg7
L44L
sa(dp18
g6
L10L
sg7
L150L
sa(dp19
g6
L10L
sg7
L361L
sa(dp20
g6
L10L
sg7
L372L
sa(dp21
g6
L10L
sg7
L630L
sa(dp22
g6
L10L
sg7
L741L
sa(dp23
g6
L10L
sg7
L810L
sass."
Substitution2: "Latin.dnom subtable" three.dnom
Substitution2: "Latin.numr subtable" three.numr
Substitution2: "Latin.subs subtable" three.subs
Substitution2: "Latin.sups subtable" three.sups
Substitution2: "Latin.pnum subtable" three.pnum
EndChar

StartChar: four
Encoding: 23 52 24
GlifName: four
Width: 660
VWidth: 0
Flags: MW
LayerCount: 2
Fore
SplineSet
408 206 m 1
 45 206 l 1
 38 250 l 1
 420 786 l 1
 498 779 l 1
 498 274 l 1
 623 274 l 1
 623 206 l 1
 498 206 l 1
 498 0 l 1
 408 0 l 1
 408 206 l 1
410 274 m 1
 410 657 l 1
 140 274 l 1
 410 274 l 1
EndSplineSet
PickledDataWithLists: "(dp0
Vcom.fontlab.hintData
p1
(dp2
Vvhints
p3
(lp4
(dp5
Vwidth
p6
L10L
sVposition
p7
L31L
sa(dp8
g6
L10L
sg7
L276L
sa(dp9
g6
L10L
sg7
L374L
sa(dp10
g6
L10L
sg7
L455L
sa(dp11
g6
L10L
sg7
L554L
sa(dp12
g6
L10L
sg7
L679L
sasVhhints
p13
(lp14
(dp15
g6
L10L
sg7
L-30L
sa(dp16
g6
L10L
sg7
L174L
sa(dp17
g6
L10L
sg7
L243L
sa(dp18
g6
L10L
sg7
L259L
sa(dp19
g6
L10L
sg7
L609L
sa(dp20
g6
L10L
sg7
L819L
sass."
Substitution2: "Latin.dnom subtable" four.dnom
Substitution2: "Latin.numr subtable" four.numr
Substitution2: "Latin.subs subtable" four.subs
Substitution2: "Latin.sups subtable" four.sups
Substitution2: "Latin.pnum subtable" four.pnum
EndChar

StartChar: five
Encoding: 24 53 25
GlifName: five
Width: 660
VWidth: 0
Flags: MW
LayerCount: 2
Fore
SplineSet
67 129 m 1
 159 146 l 1
 171 113 208 51 322 51 c 0
 470 51 502 154 502 231 c 0
 502 311 473 412 341 412 c 0
 265 412 198 359 170 317 c 1
 100 354 l 1
 114 780 l 1
 554 780 l 1
 554 711 l 1
 201 711 l 1
 192 421 l 1
 230 450 285 479 357 479 c 0
 559 479 597 312 597 236 c 0
 597 152 556 -18 322 -18 c 0
 146 -18 83 85 67 129 c 1
EndSplineSet
PickledDataWithLists: "(dp0
Vcom.fontlab.hintData
p1
(dp2
Vvhints
p3
(lp4
(dp5
Vwidth
p6
L10L
sVposition
p7
L76L
sa(dp8
g6
L10L
sg7
L106L
sa(dp9
g6
L10L
sg7
L125L
sa(dp10
g6
L10L
sg7
L226L
sa(dp11
g6
L10L
sg7
L541L
sa(dp12
g6
L10L
sg7
L614L
sa(dp13
g6
L10L
sg7
L639L
sasVhhints
p14
(lp15
(dp16
g6
L10L
sg7
L-26L
sa(dp17
g6
L10L
sg7
L43L
sa(dp18
g6
L10L
sg7
L150L
sa(dp19
g6
L10L
sg7
L334L
sa(dp20
g6
L10L
sg7
L409L
sa(dp21
g6
L10L
sg7
L477L
sa(dp22
g6
L10L
sg7
L716L
sa(dp23
g6
L10L
sg7
L784L
sa(dp24
g6
L10L
sg7
L795L
sass."
Substitution2: "Latin.dnom subtable" five.dnom
Substitution2: "Latin.numr subtable" five.numr
Substitution2: "Latin.subs subtable" five.subs
Substitution2: "Latin.sups subtable" five.sups
Substitution2: "Latin.pnum subtable" five.pnum
EndChar

StartChar: six
Encoding: 25 54 26
GlifName: six
Width: 660
VWidth: 0
Flags: MW
LayerCount: 2
Fore
SplineSet
88 294 m 2
 88 438 l 2
 88 570 114 798 344 798 c 0
 512 798 564 686 578 642 c 1
 487 627 l 1
 475 666 442 728 344 728 c 0
 217 728 182 592 182 438 c 2
 182 405 l 1
 222 448 280 477 357 477 c 0
 537 477 598 340 598 230 c 0
 598 94 509 -18 344 -18 c 0
 174 -18 88 96 88 294 c 2
183 266 m 1
 190 97 260 52 344 52 c 0
 436 52 505 111 505 230 c 0
 505 324 462 411 342 411 c 0
 257 411 198 352 183 266 c 1
EndSplineSet
PickledDataWithLists: "(dp0
Vcom.fontlab.hintData
p1
(dp2
Vvhints
p3
(lp4
(dp5
Vwidth
p6
L10L
sVposition
p7
L32L
sa(dp8
g6
L10L
sg7
L90L
sa(dp9
g6
L10L
sg7
L188L
sa(dp10
g6
L10L
sg7
L464L
sa(dp11
g6
L10L
sg7
L560L
sa(dp12
g6
L10L
sg7
L658L
sasVhhints
p13
(lp14
(dp15
g6
L10L
sg7
L-29L
sa(dp16
g6
L10L
sg7
L39L
sa(dp17
g6
L10L
sg7
L251L
sa(dp18
g6
L10L
sg7
L397L
sa(dp19
g6
L10L
sg7
L466L
sa(dp20
g6
L10L
sg7
L819L
sass."
Substitution2: "Latin.dnom subtable" six.dnom
Substitution2: "Latin.numr subtable" six.numr
Substitution2: "Latin.subs subtable" six.subs
Substitution2: "Latin.sups subtable" six.sups
Substitution2: "Latin.pnum subtable" six.pnum
EndChar

StartChar: seven
Encoding: 26 55 27
GlifName: seven
Width: 660
VWidth: 0
Flags: MW
LayerCount: 2
Fore
SplineSet
72 706 m 1
 72 780 l 1
 570 780 l 1
 577 728 l 1
 465 576 339 283 339 45 c 2
 339 0 l 1
 241 0 l 1
 241 45 l 2
 241 268 359 542 465 706 c 1
 72 706 l 1
EndSplineSet
PickledDataWithLists: "(dp0
Vcom.fontlab.hintData
p1
(dp2
Vvhints
p3
(lp4
(dp5
Vwidth
p6
L10L
sVposition
p7
L69L
sa(dp8
g6
L10L
sg7
L199L
sa(dp9
g6
L10L
sg7
L274L
sa(dp10
g6
L10L
sg7
L648L
sasVhhints
p11
(lp12
(dp13
g6
L10L
sg7
L-19L
sa(dp14
g6
L10L
sg7
L554L
sa(dp15
g6
L10L
sg7
L716L
sa(dp16
g6
L10L
sg7
L784L
sa(dp17
g6
L10L
sg7
L795L
sass."
Substitution2: "Latin.dnom subtable" seven.dnom
Substitution2: "Latin.numr subtable" seven.numr
Substitution2: "Latin.subs subtable" seven.subs
Substitution2: "Latin.sups subtable" seven.sups
Substitution2: "Latin.pnum subtable" seven.pnum
EndChar

StartChar: eight
Encoding: 27 56 28
GlifName: eight
Width: 660
VWidth: 0
Flags: MW
LayerCount: 2
Fore
SplineSet
330 -18 m 0
 162 -18 57 77 57 198 c 0
 57 329 154 381 224 401 c 1
 156 427 92 484 92 586 c 0
 92 704 186 798 330 798 c 0
 474 798 568 704 568 586 c 0
 568 484 504 427 436 401 c 1
 506 381 603 329 603 198 c 0
 603 77 498 -18 330 -18 c 0
330 50 m 0
 439 50 507 106 507 198 c 0
 507 298 444 338 384 353 c 0
 369 358 350 363 330 369 c 1
 310 363 291 358 276 353 c 0
 216 338 153 298 153 198 c 0
 153 106 221 50 330 50 c 0
330 730 m 0
 251 730 185 682 185 586 c 0
 185 502 240 456 291 443 c 0
 303 440 316 436 330 432 c 1
 344 436 357 440 369 443 c 0
 420 456 475 502 475 586 c 0
 475 682 409 730 330 730 c 0
EndSplineSet
PickledDataWithLists: "(dp0
Vcom.fontlab.hintData
p1
(dp2
Vvhints
p3
(lp4
(dp5
Vwidth
p6
L10L
sVposition
p7
L76L
sa(dp8
g6
L10L
sg7
L87L
sa(dp9
g6
L10L
sg7
L174L
sa(dp10
g6
L10L
sg7
L185L
sa(dp11
g6
L10L
sg7
L549L
sa(dp12
g6
L10L
sg7
L584L
sa(dp13
g6
L10L
sg7
L594L
sa(dp14
g6
L10L
sg7
L649L
sasVhhints
p15
(lp16
(dp17
g6
L10L
sg7
L-24L
sa(dp18
g6
L10L
sg7
L44L
sa(dp19
g6
L9L
sg7
L394L
sa(dp20
g6
L10L
sg7
L610L
sa(dp21
g6
L10L
sg7
L651L
sa(dp22
g6
L10L
sg7
L741L
sa(dp23
g6
L10L
sg7
L809L
sass."
Substitution2: "Latin.dnom subtable" eight.dnom
Substitution2: "Latin.numr subtable" eight.numr
Substitution2: "Latin.subs subtable" eight.subs
Substitution2: "Latin.sups subtable" eight.sups
Substitution2: "Latin.pnum subtable" eight.pnum
EndChar

StartChar: less
Encoding: 31 60 32
GlifName: less
Width: 600
VWidth: 0
Flags: HMW
LayerCount: 2
Fore
SplineSet
97 334 m 1
 97 360 l 1
 97 386 l 1
 485 618 l 1
 502 548 l 1
 183 360 l 1
 502 172 l 1
 485 102 l 1
 97 334 l 1
EndSplineSet
PickledDataWithLists: "(dp0
Vcom.fontlab.hintData
p1
(dp2
Vvhints
p3
(lp4
(dp5
Vwidth
p6
L10L
sVposition
p7
L63L
sa(dp8
g6
L10L
sg7
L514L
sa(dp9
g6
L10L
sg7
L524L
sasVhhints
p10
(lp11
(dp12
g6
L10L
sg7
L65L
sa(dp13
g6
L10L
sg7
L606L
sass."
EndChar

StartChar: equal
Encoding: 32 61 33
GlifName: equal
Width: 600
VWidth: 0
Flags: MW
LayerCount: 2
Fore
SplineSet
97 422 m 1
 97 489 l 1
 503 489 l 1
 503 422 l 1
 97 422 l 1
97 231 m 1
 97 298 l 1
 503 298 l 1
 503 231 l 1
 97 231 l 1
EndSplineSet
PickledDataWithLists: "(dp0
Vcom.fontlab.hintData
p1
(dp2
Vvhints
p3
(lp4
(dp5
Vwidth
p6
L10L
sVposition
p7
L75L
sa(dp8
g6
L10L
sg7
L514L
sasVhhints
p9
(lp10
(dp11
g6
L10L
sg7
L201L
sa(dp12
g6
L10L
sg7
L263L
sa(dp13
g6
L10L
sg7
L271L
sa(dp14
g6
L10L
sg7
L401L
sa(dp15
g6
L10L
sg7
L463L
sa(dp16
g6
L10L
sg7
L471L
sass."
EndChar

StartChar: question
Encoding: 34 63 35
GlifName: question
Width: 570
VWidth: 0
Flags: MW
LayerCount: 2
Fore
SplineSet
62 650 m 0
 62 752 148 828 284 828 c 0
 412 828 497 756 497 636 c 0
 497 472 292 430 292 309 c 0
 292 289 297 269 306 250 c 1
 231 241 l 1
 219 265 212 290 212 314 c 0
 212 470 402 501 402 633 c 0
 402 725 344 757 282 757 c 0
 209 757 158 720 158 650 c 0
 158 628 161 605 171 585 c 1
 82 561 l 1
 70 589 62 620 62 650 c 0
EndSplineSet
Refer: 18 46 N 1 0 0 1 120 0 2
PickledDataWithLists: "(dp0
Vcom.fontlab.hintData
p1
(dp2
Vvhints
p3
(lp4
(dp5
Vwidth
p6
L10L
sVposition
p7
L11L
sa(dp8
g6
L10L
sg7
L98L
sa(dp9
g6
L10L
sg7
L120L
sa(dp10
g6
L10L
sg7
L152L
sa(dp11
g6
L10L
sg7
L161L
sa(dp12
g6
L10L
sg7
L241L
sa(dp13
g6
L10L
sg7
L254L
sa(dp14
g6
L10L
sg7
L310L
sa(dp15
g6
L10L
sg7
L351L
sa(dp16
g6
L10L
sg7
L439L
sasVhhints
p17
(lp18
(dp19
g6
L10L
sg7
L-5L
sa(dp20
g6
L10L
sg7
L122L
sa(dp21
g6
L10L
sg7
L255L
sa(dp22
g6
L10L
sg7
L594L
sa(dp23
g6
L10L
sg7
L784L
sa(dp24
g6
L10L
sg7
L846L
sass."
EndChar

StartChar: at
Encoding: 35 64 36
GlifName: at
Width: 1020
VWidth: 0
Flags: MW
LayerCount: 2
Fore
SplineSet
85 236 m 0
 85 491 257 780 559 780 c 0
 812 780 935 598 935 398 c 0
 935 233 840 40 699 40 c 0
 638 40 618 77 613 121 c 1
 579 71 533 35 472 35 c 0
 343 35 297 137 297 229 c 0
 297 367 393 561 585 561 c 0
 674 561 708 495 708 439 c 0
 708 396 695 341 685 299 c 0
 673 234 667 186 667 153 c 0
 667 103 677 87 699 87 c 0
 781 87 881 236 881 398 c 0
 881 582 775 732 559 732 c 0
 301 732 139 478 139 236 c 0
 139 34 250 -142 502 -142 c 0
 572 -142 657 -105 683 -89 c 1
 713 -128 l 1
 679 -149 590 -190 502 -190 c 0
 210 -190 85 19 85 236 c 0
472 89 m 0
 550 89 594 178 621 307 c 0
 630 347 644 407 644 439 c 0
 644 485 620 508 585 508 c 0
 465 508 367 363 367 229 c 0
 367 141 408 89 472 89 c 0
EndSplineSet
PickledDataWithLists: "(dp0
Vcom.fontlab.hintData
p1
(dp2
Vvhints
p3
(lp4
(dp5
Vwidth
p6
L10L
sVposition
p7
L74L
sa(dp8
g6
L10L
sg7
L143L
sa(dp9
g6
L10L
sg7
L293L
sa(dp10
g6
L10L
sg7
L372L
sa(dp11
g6
L10L
sg7
L622L
sa(dp12
g6
L10L
sg7
L670L
sa(dp13
g6
L10L
sg7
L702L
sa(dp14
g6
L10L
sg7
L726L
sa(dp15
g6
L10L
sg7
L865L
sa(dp16
g6
L10L
sg7
L935L
sasVhhints
p17
(lp18
(dp19
g6
L10L
sg7
L-179L
sa(dp20
g6
L10L
sg7
L-131L
sa(dp21
g6
L10L
sg7
L-76L
sa(dp22
g6
L10L
sg7
L38L
sa(dp23
g6
L10L
sg7
L92L
sa(dp24
g6
L10L
sg7
L352L
sa(dp25
g6
L10L
sg7
L399L
sa(dp26
g6
L10L
sg7
L490L
sa(dp27
g6
L10L
sg7
L544L
sa(dp28
g6
L10L
sg7
L711L
sa(dp29
g6
L10L
sg7
L759L
sass."
EndChar

StartChar: A
Encoding: 36 65 37
GlifName: A_
Width: 750
VWidth: 0
Flags: MW
AnchorPoint: "LatinOgonek.mark" 670 0 basechar 0
AnchorPoint: "LatinBelow.mark" 375 0 basechar 0
AnchorPoint: "LatinAbove.mark" 375 150 basechar 0
LayerCount: 2
Fore
SplineSet
727 0 m 1
 619 0 l 1
 555 176 l 1
 195 176 l 1
 131 0 l 1
 23 0 l 1
 23 6 l 1
 335 780 l 1
 415 780 l 1
 727 6 l 1
 727 0 l 1
530 244 m 1
 375 670 l 1
 220 244 l 1
 530 244 l 1
EndSplineSet
PickledDataWithLists: "(dp0
Vcom.fontlab.hintData
p1
(dp2
Vvhints
p3
(lp4
(dp5
Vwidth
p6
L10L
sVposition
p7
L33L
sa(dp8
g6
L10L
sg7
L39L
sa(dp9
g6
L10L
sg7
L763L
sasVhhints
p10
(lp11
(dp12
g6
L10L
sg7
L-16L
sa(dp13
g6
L10L
sg7
L3L
sa(dp14
g6
L10L
sg7
L179L
sa(dp15
g6
L10L
sg7
L209L
sa(dp16
g6
L10L
sg7
L271L
sa(dp17
g6
L10L
sg7
L810L
sass."
EndChar

StartChar: B
Encoding: 37 66 38
GlifName: B_
Width: 745
VWidth: 0
Flags: MW
AnchorPoint: "LatinBelow.mark" 320 0 basechar 0
AnchorPoint: "LatinAbove.mark" 320 150 basechar 0
LayerCount: 2
Fore
SplineSet
495 430 m 1
 608 402 683 332 683 221 c 0
 683 73 550 -9 370 -9 c 0
 258 -9 126 -2 98 0 c 1
 98 780 l 1
 122 782 238 789 338 789 c 0
 486 789 608 723 608 594 c 0
 608 512 560 459 495 430 c 1
370 444 m 1
 444 452 516 497 516 587 c 0
 516 681 438 721 328 721 c 0
 273 721 216 718 188 716 c 1
 188 439 l 1
 239 442 306 444 370 444 c 1
188 64 m 1
 230 62 300 60 360 60 c 0
 488 60 590 105 590 221 c 0
 590 337 488 380 360 380 c 0
 300 380 230 378 188 376 c 1
 188 64 l 1
EndSplineSet
PickledDataWithLists: "(dp0
Vcom.fontlab.hintData
p1
(dp2
Vvhints
p3
(lp4
(dp5
Vwidth
p6
L10L
sVposition
p7
L26L
sa(dp8
g6
L10L
sg7
L116L
sa(dp9
g6
L10L
sg7
L121L
sa(dp10
g6
L10L
sg7
L223L
sa(dp11
g6
L10L
sg7
L537L
sa(dp12
g6
L10L
sg7
L636L
sa(dp13
g6
L10L
sg7
L735L
sasVhhints
p14
(lp15
(dp16
g6
L10L
sg7
L-22L
sa(dp17
g6
L10L
sg7
L49L
sa(dp18
g6
L10L
sg7
L395L
sa(dp19
g6
L10L
sg7
L634L
sa(dp20
g6
L10L
sg7
L661L
sa(dp21
g6
L10L
sg7
L742L
sa(dp22
g6
L10L
sg7
L809L
sass."
Colour: ff00
EndChar

StartChar: C
Encoding: 38 67 39
GlifName: C_
Width: 755
VWidth: 0
Flags: MW
AnchorPoint: "LatinCedilla.mark" 412 0 basechar 0
AnchorPoint: "LatinBelow.mark" 410 0 basechar 0
AnchorPoint: "LatinAbove.mark" 410 150 basechar 0
LayerCount: 2
Fore
SplineSet
68 405 m 2
 68 593 149 797 413 797 c 0
 607 797 694 671 708 591 c 1
 610 581 l 1
 598 642 535 724 413 724 c 0
 245 724 168 592 168 405 c 2
 168 373 l 2
 168 186 245 54 413 54 c 0
 535 54 598 136 610 197 c 1
 708 187 l 1
 694 107 607 -19 413 -19 c 0
 149 -19 68 185 68 373 c 2
 68 405 l 2
EndSplineSet
PickledDataWithLists: "(dp0
Vcom.fontlab.hintData
p1
(dp2
Vvhints
p3
(lp4
(dp5
Vwidth
p6
L10L
sVposition
p7
L68L
sa(dp8
g6
L10L
sg7
L172L
sa(dp9
g6
L10L
sg7
L569L
sa(dp10
g6
L10L
sg7
L673L
sa(dp11
g6
L10L
sg7
L707L
sasVhhints
p12
(lp13
(dp14
g6
L10L
sg7
L-20L
sa(dp15
g6
L10L
sg7
L52L
sa(dp16
g6
L10L
sg7
L169L
sa(dp17
g6
L10L
sg7
L586L
sa(dp18
g6
L10L
sg7
L739L
sa(dp19
g6
L10L
sg7
L811L
sass."
Colour: ff00
EndChar

StartChar: D
Encoding: 39 68 40
GlifName: D_
Width: 770
VWidth: 0
Flags: MW
AnchorPoint: "LatinBelow.mark" 320 0 basechar 0
AnchorPoint: "LatinAbove.mark" 320 150 basechar 0
LayerCount: 2
Fore
SplineSet
193 64 m 1
 223 63 262 61 290 61 c 0
 524 61 608 195 608 374 c 2
 608 406 l 2
 608 585 524 719 290 719 c 0
 262 719 223 717 193 716 c 1
 193 64 l 1
98 780 m 1
 98 780 206 789 290 789 c 0
 599 789 703 596 703 406 c 2
 703 374 l 2
 703 184 599 -9 290 -9 c 0
 206 -9 98 0 98 0 c 1
 98 780 l 1
EndSplineSet
PickledDataWithLists: "(dp0
Vcom.fontlab.hintData
p1
(dp2
Vvhints
p3
(lp4
(dp5
Vwidth
p6
L10L
sVposition
p7
L26L
sa(dp8
g6
L10L
sg7
L116L
sa(dp9
g6
L10L
sg7
L121L
sa(dp10
g6
L10L
sg7
L223L
sa(dp11
g6
L10L
sg7
L630L
sa(dp12
g6
L10L
sg7
L729L
sasVhhints
p13
(lp14
(dp15
g6
L10L
sg7
L-21L
sa(dp16
g6
L10L
sg7
L49L
sa(dp17
g6
L10L
sg7
L634L
sa(dp18
g6
L10L
sg7
L661L
sa(dp19
g6
L10L
sg7
L742L
sa(dp20
g6
L10L
sg7
L810L
sass."
EndChar

StartChar: E
Encoding: 40 69 41
GlifName: E_
Width: 675
VWidth: 0
Flags: MW
AnchorPoint: "LatinOgonek.mark" 545 0 basechar 0
AnchorPoint: "LatinBelow.mark" 350 0 basechar 0
AnchorPoint: "LatinAbove.mark" 350 150 basechar 0
LayerCount: 2
Fore
SplineSet
98 0 m 1
 98 780 l 1
 598 780 l 1
 598 706 l 1
 194 706 l 1
 194 420 l 1
 564 420 l 1
 564 350 l 1
 194 350 l 1
 194 74 l 1
 613 74 l 1
 613 0 l 1
 98 0 l 1
EndSplineSet
PickledDataWithLists: "(dp0
Vcom.fontlab.hintData
p1
(dp2
Vvhints
p3
(lp4
(dp5
Vwidth
p6
L10L
sVposition
p7
L66L
sa(dp8
g6
L10L
sg7
L106L
sa(dp9
g6
L10L
sg7
L121L
sa(dp10
g6
L10L
sg7
L204L
sa(dp11
g6
L10L
sg7
L220L
sa(dp12
g6
L10L
sg7
L564L
sa(dp13
g6
L10L
sg7
L644L
sa(dp14
g6
L10L
sg7
L674L
sasVhhints
p15
(lp16
(dp17
g6
L10L
sg7
L-24L
sa(dp18
g6
L10L
sg7
L-9L
sa(dp19
g6
L10L
sg7
L46L
sa(dp20
g6
L10L
sg7
L59L
sa(dp21
g6
L10L
sg7
L361L
sa(dp22
g6
L10L
sg7
L423L
sa(dp23
g6
L10L
sg7
L726L
sa(dp24
g6
L10L
sg7
L794L
sa(dp25
g6
L10L
sg7
L799L
sa(dp26
g6
L10L
sg7
L804L
sass."
Colour: ff00
EndChar

StartChar: F
Encoding: 41 70 42
GlifName: F_
Width: 640
VWidth: 0
Flags: MW
AnchorPoint: "LatinBelow.mark" 160 0 basechar 0
AnchorPoint: "LatinAbove.mark" 340 150 basechar 0
LayerCount: 2
Fore
SplineSet
98 0 m 1
 98 780 l 1
 588 780 l 1
 588 706 l 1
 194 706 l 1
 194 422 l 1
 554 422 l 1
 554 348 l 1
 194 348 l 1
 194 0 l 1
 98 0 l 1
EndSplineSet
PickledDataWithLists: "(dp0
Vcom.fontlab.hintData
p1
(dp2
Vvhints
p3
(lp4
(dp5
Vwidth
p6
L10L
sVposition
p7
L59L
sa(dp8
g6
L10L
sg7
L66L
sa(dp9
g6
L10L
sg7
L116L
sa(dp10
g6
L10L
sg7
L124L
sa(dp11
g6
L10L
sg7
L214L
sa(dp12
g6
L10L
sg7
L222L
sa(dp13
g6
L10L
sg7
L564L
sa(dp14
g6
L10L
sg7
L644L
sasVhhints
p15
(lp16
(dp17
g6
L10L
sg7
L-14L
sa(dp18
g6
L10L
sg7
L355L
sa(dp19
g6
L10L
sg7
L360L
sa(dp20
g6
L10L
sg7
L423L
sa(dp21
g6
L10L
sg7
L726L
sa(dp22
g6
L10L
sg7
L794L
sa(dp23
g6
L10L
sg7
L799L
sa(dp24
g6
L10L
sg7
L804L
sass."
Colour: ff00
EndChar

StartChar: G
Encoding: 42 71 43
GlifName: G_
Width: 770
VWidth: 0
Flags: MW
AnchorPoint: "LatinBelow.mark" 410 0 basechar 0
AnchorPoint: "LatinAbove.mark" 410 150 basechar 0
LayerCount: 2
Fore
SplineSet
422 311 m 1
 422 379 l 1
 703 379 l 1
 703 138 l 1
 673 74 585 -18 413 -18 c 0
 149 -18 68 185 68 373 c 2
 68 407 l 2
 68 595 149 798 413 798 c 0
 607 798 694 672 708 592 c 1
 611 583 l 1
 599 644 537 726 413 726 c 0
 243 726 166 596 166 407 c 2
 166 373 l 2
 166 184 243 54 413 54 c 0
 531 54 588 103 616 147 c 1
 616 311 l 1
 422 311 l 1
EndSplineSet
PickledDataWithLists: "(dp0
Vcom.fontlab.hintData
p1
(dp2
Vvhints
p3
(lp4
(dp5
Vwidth
p6
L10L
sVposition
p7
L71L
sa(dp8
g6
L10L
sg7
L169L
sa(dp9
g6
L10L
sg7
L386L
sa(dp10
g6
L10L
sg7
L572L
sa(dp11
g6
L10L
sg7
L615L
sa(dp12
g6
L10L
sg7
L670L
sa(dp13
g6
L10L
sg7
L715L
sasVhhints
p14
(lp15
(dp16
g6
L10L
sg7
L-24L
sa(dp17
g6
L10L
sg7
L44L
sa(dp18
g6
L10L
sg7
L290L
sa(dp19
g6
L10L
sg7
L390L
sa(dp20
g6
L10L
sg7
L587L
sa(dp21
g6
L10L
sg7
L741L
sa(dp22
g6
L10L
sg7
L810L
sass."
Colour: ff00
EndChar

StartChar: H
Encoding: 43 72 44
GlifName: H_
Width: 790
VWidth: 0
Flags: MW
AnchorPoint: "LatinBelow.mark" 395 0 basechar 0
AnchorPoint: "LatinAbove.mark" 395 150 basechar 0
LayerCount: 2
Fore
SplineSet
97 0 m 1
 97 780 l 1
 193 780 l 1
 193 427 l 1
 597 427 l 1
 597 780 l 1
 693 780 l 1
 693 0 l 1
 597 0 l 1
 597 353 l 1
 193 353 l 1
 193 0 l 1
 97 0 l 1
EndSplineSet
PickledDataWithLists: "(dp0
Vcom.fontlab.hintData
p1
(dp2
Vvhints
p3
(lp4
(dp5
Vwidth
p6
L10L
sVposition
p7
L66L
sa(dp8
g6
L10L
sg7
L101L
sa(dp9
g6
L10L
sg7
L111L
sa(dp10
g6
L10L
sg7
L211L
sa(dp11
g6
L10L
sg7
L605L
sa(dp12
g6
L10L
sg7
L704L
sa(dp13
g6
L10L
sg7
L744L
sasVhhints
p14
(lp15
(dp16
g6
L10L
sg7
L-14L
sa(dp17
g6
L10L
sg7
L355L
sa(dp18
g6
L10L
sg7
L423L
sa(dp19
g6
L10L
sg7
L794L
sa(dp20
g6
L10L
sg7
L799L
sass."
Colour: ff00
EndChar

StartChar: I
Encoding: 44 73 45
GlifName: I_
Width: 320
VWidth: 0
Flags: MW
AnchorPoint: "LatinOgonek.mark" 165 0 basechar 0
AnchorPoint: "LatinBelow.mark" 160 0 basechar 0
AnchorPoint: "LatinAbove.mark" 160 150 basechar 0
LayerCount: 2
Fore
SplineSet
112 0 m 1
 112 780 l 1
 208 780 l 1
 208 0 l 1
 112 0 l 1
EndSplineSet
PickledDataWithLists: "(dp0
Vcom.fontlab.hintData
p1
(dp2
Vvhints
p3
(lp4
(dp5
Vwidth
p6
L10L
sVposition
p7
L53L
sa(dp8
g6
L10L
sg7
L77L
sa(dp9
g6
L10L
sg7
L188L
sa(dp10
g6
L10L
sg7
L194L
sa(dp11
g6
L10L
sg7
L282L
sa(dp12
g6
L10L
sg7
L288L
sa(dp13
g6
L10L
sg7
L414L
sasVhhints
p14
(lp15
(dp16
g6
L10L
sg7
L-3L
sa(dp17
g6
L10L
sg7
L3L
sa(dp18
g6
L10L
sg7
L59L
sa(dp19
g6
L10L
sg7
L67L
sa(dp20
g6
L10L
sg7
L729L
sa(dp21
g6
L10L
sg7
L788L
sass."
Colour: ff00
EndChar

StartChar: J
Encoding: 45 74 46
GlifName: J_
Width: 520
VWidth: 0
Flags: MW
AnchorPoint: "LatinBelow.mark" 230 0 basechar 0
AnchorPoint: "LatinAbove.mark" 360 150 basechar 0
LayerCount: 2
Fore
SplineSet
28 136 m 1
 124 143 l 1
 133 85 170 53 226 53 c 0
 282 53 327 84 327 162 c 2
 327 781 l 1
 423 781 l 1
 423 162 l 2
 423 63 351 -17 226 -17 c 0
 102 -17 39 62 28 136 c 1
EndSplineSet
PickledDataWithLists: "(dp0
Vcom.fontlab.hintData
p1
(dp2
Vvhints
p3
(lp4
(dp5
Vwidth
p6
L10L
sVposition
p7
L16L
sa(dp8
g6
L10L
sg7
L152L
sa(dp9
g6
L10L
sg7
L318L
sa(dp10
g6
L10L
sg7
L412L
sa(dp11
g6
L10L
sg7
L492L
sasVhhints
p12
(lp13
(dp14
g6
L10L
sg7
L-14L
sa(dp15
g6
L9L
sg7
L55L
sa(dp16
g6
L10L
sg7
L129L
sa(dp17
g6
L10L
sg7
L730L
sa(dp18
g6
L10L
sg7
L788L
sass."
Colour: ff00
EndChar

StartChar: K
Encoding: 46 75 47
GlifName: K_
Width: 715
VWidth: 0
Flags: MW
AnchorPoint: "LatinBelow.mark" 360 0 basechar 0
AnchorPoint: "LatinAbove.mark" 360 150 basechar 0
LayerCount: 2
Fore
SplineSet
97 0 m 1
 97 780 l 1
 189 780 l 1
 189 378 l 1
 548 780 l 1
 654 772 l 1
 654 768 l 1
 355 452 l 1
 702 5 l 1
 702 0 l 1
 589 0 l 1
 294 388 l 1
 189 276 l 1
 189 0 l 1
 97 0 l 1
EndSplineSet
PickledDataWithLists: "(dp0
Vcom.fontlab.hintData
p1
(dp2
Vvhints
p3
(lp4
(dp5
Vwidth
p6
L10L
sVposition
p7
L64L
sa(dp8
g6
L10L
sg7
L86L
sa(dp9
g6
L10L
sg7
L116L
sa(dp10
g6
L10L
sg7
L211L
sa(dp11
g6
L10L
sg7
L219L
sa(dp12
g6
L10L
sg7
L679L
sa(dp13
g6
L10L
sg7
L734L
sasVhhints
p14
(lp15
(dp16
g6
L10L
sg7
L-14L
sa(dp17
g6
L10L
sg7
L-9L
sa(dp18
g6
L10L
sg7
L799L
sass."
Colour: ff00
EndChar

StartChar: L
Encoding: 47 76 48
GlifName: L_
Width: 570
VWidth: 0
Flags: MW
AnchorPoint: "LatinBelow.mark" 320 0 basechar 0
AnchorPoint: "LatinAbove.mark" 160 150 basechar 0
LayerCount: 2
Fore
SplineSet
98 0 m 1
 98 780 l 1
 194 780 l 1
 194 74 l 1
 538 74 l 1
 538 0 l 1
 98 0 l 1
EndSplineSet
PickledDataWithLists: "(dp0
Vcom.fontlab.hintData
p1
(dp2
Vvhints
p3
(lp4
(dp5
Vwidth
p6
L10L
sVposition
p7
L126L
sa(dp8
g6
L10L
sg7
L131L
sa(dp9
g6
L10L
sg7
L144L
sa(dp10
g6
L10L
sg7
L224L
sa(dp11
g6
L10L
sg7
L242L
sa(dp12
g6
L10L
sg7
L624L
sasVhhints
p13
(lp14
(dp15
g6
L10L
sg7
L-23L
sa(dp16
g6
L10L
sg7
L-9L
sa(dp17
g6
L10L
sg7
L45L
sa(dp18
g6
L10L
sg7
L59L
sa(dp19
g6
L10L
sg7
L794L
sass."
Colour: ff00
EndChar

StartChar: M
Encoding: 48 77 49
GlifName: M_
Width: 880
VWidth: 0
Flags: MW
AnchorPoint: "LatinBelow.mark" 440 0 basechar 0
AnchorPoint: "LatinAbove.mark" 440 150 basechar 0
LayerCount: 2
Fore
SplineSet
783 0 m 1
 689 0 l 1
 689 600 l 1
 464 195 l 1
 416 195 l 1
 191 600 l 1
 191 0 l 1
 97 0 l 1
 97 771 l 1
 177 780 l 1
 440 294 l 1
 703 780 l 1
 783 771 l 1
 783 0 l 1
EndSplineSet
PickledDataWithLists: "(dp0
Vcom.fontlab.hintData
p1
(dp2
Vvhints
p3
(lp4
(dp5
Vwidth
p6
L10L
sVposition
p7
L66L
sa(dp8
g6
L10L
sg7
L102L
sa(dp9
g6
L10L
sg7
L197L
sa(dp10
g6
L10L
sg7
L691L
sa(dp11
g6
L10L
sg7
L785L
sa(dp12
g6
L10L
sg7
L824L
sasVhhints
p13
(lp14
(dp15
g6
L10L
sg7
L-19L
sa(dp16
g6
L10L
sg7
L-9L
sa(dp17
g6
L10L
sg7
L137L
sa(dp18
g6
L20L
sg7
L604L
sa(dp19
g6
L10L
sg7
L783L
sa(dp20
g6
L10L
sg7
L795L
sass."
Colour: ff00
EndChar

StartChar: N
Encoding: 49 78 50
GlifName: N_
Width: 790
VWidth: 0
Flags: MW
AnchorPoint: "LatinBelow.mark" 395 0 basechar 0
AnchorPoint: "LatinAbove.mark" 395 150 basechar 0
LayerCount: 2
Fore
SplineSet
98 0 m 1
 98 771 l 1
 180 780 l 1
 599 152 l 1
 599 780 l 1
 692 780 l 1
 692 0 l 1
 610 0 l 1
 191 628 l 1
 191 0 l 1
 98 0 l 1
EndSplineSet
PickledDataWithLists: "(dp0
Vcom.fontlab.hintData
p1
(dp2
Vvhints
p3
(lp4
(dp5
Vwidth
p6
L10L
sVposition
p7
L97L
sa(dp8
g6
L10L
sg7
L111L
sa(dp9
g6
L10L
sg7
L209L
sa(dp10
g6
L10L
sg7
L601L
sa(dp11
g6
L10L
sg7
L613L
sa(dp12
g6
L10L
sg7
L699L
sa(dp13
g6
L10L
sg7
L711L
sasVhhints
p14
(lp15
(dp16
g6
L10L
sg7
L-14L
sa(dp17
g6
L10L
sg7
L-8L
sa(dp18
g6
L10L
sg7
L794L
sass."
Colour: ff00
EndChar

StartChar: O
Encoding: 50 79 51
GlifName: O_
Width: 820
VWidth: 0
Flags: MW
AnchorPoint: "LatinOgonek.mark" 480 0 basechar 0
AnchorPoint: "LatinBelow.mark" 410 0 basechar 0
AnchorPoint: "LatinAbove.mark" 410 150 basechar 0
LayerCount: 2
Fore
SplineSet
68 372 m 2
 68 408 l 2
 68 594 147 798 410 798 c 0
 673 798 752 594 752 408 c 2
 752 372 l 2
 752 186 673 -18 410 -18 c 0
 147 -18 68 186 68 372 c 2
410 54 m 0
 579 54 654 186 654 372 c 2
 654 408 l 2
 654 594 579 726 410 726 c 0
 241 726 166 594 166 408 c 2
 166 372 l 2
 166 186 241 54 410 54 c 0
EndSplineSet
PickledDataWithLists: "(dp0
Vcom.fontlab.hintData
p1
(dp2
Vvhints
p3
(lp4
(dp5
Vwidth
p6
L10L
sVposition
p7
L66L
sa(dp8
g6
L10L
sg7
L164L
sa(dp9
g6
L10L
sg7
L572L
sa(dp10
g6
L10L
sg7
L659L
sa(dp11
g6
L10L
sg7
L690L
sa(dp12
g6
L10L
sg7
L757L
sasVhhints
p13
(lp14
(dp15
g6
L10L
sg7
L-22L
sa(dp16
g6
L10L
sg7
L47L
sa(dp17
g6
L10L
sg7
L742L
sa(dp18
g6
L10L
sg7
L811L
sass."
Colour: ff00
EndChar

StartChar: P
Encoding: 51 80 52
GlifName: P_
Width: 710
VWidth: 0
Flags: MW
AnchorPoint: "LatinBelow.mark" 160 0 basechar 0
AnchorPoint: "LatinAbove.mark" 360 150 basechar 0
LayerCount: 2
Fore
SplineSet
192 402 m 1
 228 400 283 398 340 398 c 0
 468 398 568 443 568 559 c 0
 568 675 468 720 340 720 c 0
 283 720 228 718 192 716 c 1
 192 402 l 1
192 333 m 1
 192 0 l 1
 98 0 l 1
 98 338 l 1
 98 780 l 1
 126 782 238 789 350 789 c 0
 530 789 663 707 663 559 c 0
 663 411 530 329 350 329 c 0
 294 329 238 331 192 333 c 1
EndSplineSet
PickledDataWithLists: "(dp0
Vcom.fontlab.hintData
p1
(dp2
Vvhints
p3
(lp4
(dp5
Vwidth
p6
L10L
sVposition
p7
L26L
sa(dp8
g6
L10L
sg7
L36L
sa(dp9
g6
L10L
sg7
L116L
sa(dp10
g6
L10L
sg7
L130L
sa(dp11
g6
L10L
sg7
L228L
sa(dp12
g6
L10L
sg7
L592L
sa(dp13
g6
L10L
sg7
L693L
sasVhhints
p14
(lp15
(dp16
g6
L10L
sg7
L-24L
sa(dp17
g6
L10L
sg7
L302L
sa(dp18
g6
L10L
sg7
L369L
sa(dp19
g6
L10L
sg7
L429L
sa(dp20
g6
L10L
sg7
L634L
sa(dp21
g6
L10L
sg7
L661L
sa(dp22
g6
L10L
sg7
L744L
sa(dp23
g6
L10L
sg7
L813L
sass."
Colour: ff00
EndChar

StartChar: Q
Encoding: 52 81 53
GlifName: Q_
Width: 820
VWidth: 0
Flags: MW
AnchorPoint: "LatinBelow.mark" 410 0 basechar 0
AnchorPoint: "LatinAbove.mark" 410 150 basechar 0
LayerCount: 2
Fore
SplineSet
68 372 m 2
 68 408 l 2
 68 594 147 798 410 798 c 0
 673 798 752 594 752 408 c 2
 752 372 l 2
 752 283 733 189 685 116 c 1
 795 29 l 1
 754 -25 l 1
 643 65 l 1
 590 14 515 -18 410 -18 c 0
 147 -18 68 186 68 372 c 2
391 269 m 1
 429 319 l 1
 613 173 l 1
 641 226 654 294 654 372 c 2
 654 408 l 2
 654 594 579 726 410 726 c 0
 241 726 166 594 166 408 c 2
 166 372 l 2
 166 186 241 54 410 54 c 0
 482 54 537 77 576 119 c 1
 391 269 l 1
EndSplineSet
PickledDataWithLists: "(dp0
Vcom.fontlab.hintData
p1
(dp2
Vvhints
p3
(lp4
(dp5
Vwidth
p6
L10L
sVposition
p7
L66L
sa(dp8
g6
L10L
sg7
L164L
sa(dp9
g6
L10L
sg7
L407L
sa(dp10
g6
L10L
sg7
L491L
sa(dp11
g6
L10L
sg7
L675L
sa(dp12
g6
L10L
sg7
L690L
sa(dp13
g6
L10L
sg7
L760L
sa(dp14
g6
L10L
sg7
L769L
sasVhhints
p15
(lp16
(dp17
g6
L10L
sg7
L-206L
sa(dp18
g6
L10L
sg7
L-17L
sa(dp19
g6
L10L
sg7
L46L
sa(dp20
g6
L10L
sg7
L514L
sa(dp21
g6
L10L
sg7
L576L
sa(dp22
g6
L10L
sg7
L598L
sa(dp23
g6
L10L
sg7
L742L
sa(dp24
g6
L10L
sg7
L811L
sass."
Colour: ff00
EndChar

StartChar: R
Encoding: 53 82 54
GlifName: R_
Width: 730
VWidth: 0
Flags: MW
AnchorPoint: "LatinBelow.mark" 360 0 basechar 0
AnchorPoint: "LatinAbove.mark" 360 150 basechar 0
LayerCount: 2
Fore
SplineSet
192 402 m 1
 228 400 283 398 340 398 c 0
 468 398 568 443 568 559 c 0
 568 675 468 720 340 720 c 0
 283 720 228 718 192 716 c 1
 192 402 l 1
318 329 m 1
 273 330 229 331 192 333 c 1
 192 0 l 1
 98 0 l 1
 98 338 l 1
 98 780 l 1
 126 782 238 789 350 789 c 0
 530 789 663 707 663 559 c 0
 663 431 563 352 420 333 c 1
 693 5 l 1
 693 0 l 1
 585 0 l 1
 318 329 l 1
EndSplineSet
PickledDataWithLists: "(dp0
Vcom.fontlab.hintData
p1
(dp2
Vvhints
p3
(lp4
(dp5
Vwidth
p6
L10L
sVposition
p7
L26L
sa(dp8
g6
L10L
sg7
L116L
sa(dp9
g6
L10L
sg7
L126L
sa(dp10
g6
L10L
sg7
L228L
sa(dp11
g6
L10L
sg7
L605L
sa(dp12
g6
L10L
sg7
L705L
sa(dp13
g6
L10L
sg7
L734L
sasVhhints
p14
(lp15
(dp16
g6
L10L
sg7
L-29L
sa(dp17
g6
L10L
sg7
L-24L
sa(dp18
g6
L10L
sg7
L332L
sa(dp19
g6
L10L
sg7
L401L
sa(dp20
g6
L10L
sg7
L430L
sa(dp21
g6
L10L
sg7
L634L
sa(dp22
g6
L10L
sg7
L661L
sa(dp23
g6
L10L
sg7
L745L
sa(dp24
g6
L10L
sg7
L812L
sass."
Colour: ff00
EndChar

StartChar: S
Encoding: 54 83 55
GlifName: S_
Width: 710
VWidth: 0
Flags: MW
AnchorPoint: "LatinCedilla.mark" 380 0 basechar 0
AnchorPoint: "LatinBelow.mark" 355 0 basechar 0
AnchorPoint: "LatinAbove.mark" 355 150 basechar 0
LayerCount: 2
Fore
SplineSet
62 177 m 1
 156 190 l 1
 166 128 229 52 355 52 c 0
 486 52 554 109 554 197 c 0
 554 279 493 313 446 327 c 0
 388 343 301 370 242 392 c 0
 172 418 81 473 81 583 c 0
 81 707 191 798 355 798 c 0
 527 798 613 685 627 607 c 1
 532 594 l 1
 520 656 461 728 355 728 c 0
 243 728 174 672 174 587 c 0
 174 517 232 489 284 469 c 0
 340 449 426 421 480 405 c 0
 558 381 647 323 647 201 c 0
 647 75 539 -18 355 -18 c 0
 166 -18 77 97 62 177 c 1
EndSplineSet
PickledDataWithLists: "(dp0
Vcom.fontlab.hintData
p1
(dp2
Vvhints
p3
(lp4
(dp5
Vwidth
p6
L10L
sVposition
p7
L60L
sa(dp8
g6
L10L
sg7
L68L
sa(dp9
g6
L10L
sg7
L159L
sa(dp10
g6
L10L
sg7
L494L
sa(dp11
g6
L10L
sg7
L555L
sa(dp12
g6
L10L
sg7
L594L
sa(dp13
g6
L10L
sg7
L654L
sasVhhints
p14
(lp15
(dp16
g6
L10L
sg7
L-22L
sa(dp17
g6
L10L
sg7
L46L
sa(dp18
g6
L10L
sg7
L192L
sa(dp19
g6
L10L
sg7
L584L
sa(dp20
g6
L10L
sg7
L744L
sa(dp21
g6
L10L
sg7
L812L
sass."
Colour: ff00
EndChar

StartChar: T
Encoding: 55 84 56
GlifName: T_
Width: 620
VWidth: 0
Flags: MW
AnchorPoint: "LatinCedilla.mark" 320 0 basechar 0
AnchorPoint: "LatinBelow.mark" 310 0 basechar 0
AnchorPoint: "LatinAbove.mark" 310 150 basechar 0
LayerCount: 2
Fore
SplineSet
37 708 m 1
 37 780 l 1
 583 780 l 1
 583 708 l 1
 358 708 l 1
 358 0 l 1
 262 0 l 1
 262 708 l 1
 37 708 l 1
EndSplineSet
PickledDataWithLists: "(dp0
Vcom.fontlab.hintData
p1
(dp2
Vvhints
p3
(lp4
(dp5
Vwidth
p6
L10L
sVposition
p7
L25L
sa(dp8
g6
L10L
sg7
L301L
sa(dp9
g6
L10L
sg7
L306L
sa(dp10
g6
L10L
sg7
L407L
sa(dp11
g6
L10L
sg7
L674L
sasVhhints
p12
(lp13
(dp14
g6
L10L
sg7
L-19L
sa(dp15
g6
L10L
sg7
L722L
sa(dp16
g6
L10L
sg7
L731L
sa(dp17
g6
L10L
sg7
L790L
sa(dp18
g6
L10L
sg7
L800L
sass."
Colour: ff00
EndChar

StartChar: U
Encoding: 56 85 57
GlifName: U_
Width: 770
VWidth: 0
Flags: MW
AnchorPoint: "LatinOgonek.mark" 480 0 basechar 0
AnchorPoint: "LatinBelow.mark" 385 0 basechar 0
AnchorPoint: "LatinAbove.mark" 385 150 basechar 0
LayerCount: 2
Fore
SplineSet
87 236 m 2
 87 780 l 1
 183 780 l 1
 183 236 l 2
 183 118 267 54 385 54 c 0
 503 54 587 118 587 236 c 2
 587 780 l 1
 683 780 l 1
 683 236 l 2
 683 90 565 -18 385 -18 c 0
 205 -18 87 90 87 236 c 2
EndSplineSet
PickledDataWithLists: "(dp0
Vcom.fontlab.hintData
p1
(dp2
Vvhints
p3
(lp4
(dp5
Vwidth
p6
L10L
sVposition
p7
L96L
sa(dp8
g6
L10L
sg7
L107L
sa(dp9
g6
L10L
sg7
L194L
sa(dp10
g6
L10L
sg7
L205L
sa(dp11
g6
L10L
sg7
L603L
sa(dp12
g6
L10L
sg7
L616L
sa(dp13
g6
L10L
sg7
L704L
sa(dp14
g6
L10L
sg7
L714L
sasVhhints
p15
(lp16
(dp17
g6
L10L
sg7
L-24L
sa(dp18
g6
L10L
sg7
L44L
sa(dp19
g6
L10L
sg7
L789L
sass."
EndChar

StartChar: V
Encoding: 57 86 58
GlifName: V_
Width: 750
VWidth: 0
Flags: MW
AnchorPoint: "LatinBelow.mark" 375 0 basechar 0
AnchorPoint: "LatinAbove.mark" 375 150 basechar 0
LayerCount: 2
Fore
SplineSet
28 764 m 1
 28 771 l 1
 140 780 l 1
 375 116 l 1
 610 780 l 1
 722 771 l 1
 722 764 l 1
 416 0 l 1
 334 0 l 1
 28 764 l 1
EndSplineSet
PickledDataWithLists: "(dp0
Vcom.fontlab.hintData
p1
(dp2
Vvhints
p3
(lp4
(dp5
Vwidth
p6
L10L
sVposition
p7
L41L
sa(dp8
g6
L10L
sg7
L759L
sasVhhints
p9
(lp10
(dp11
g6
L10L
sg7
L-21L
sa(dp12
g6
L10L
sg7
L781L
sa(dp13
g6
L10L
sg7
L794L
sass."
EndChar

StartChar: W
Encoding: 58 87 59
GlifName: W_
Width: 1060
VWidth: 0
Flags: MW
AnchorPoint: "LatinBelow.mark" 530 0 basechar 0
AnchorPoint: "LatinAbove.mark" 530 150 basechar 0
LayerCount: 2
Fore
SplineSet
1028 765 m 1
 798 0 l 1
 714 0 l 1
 530 624 l 1
 346 0 l 1
 262 0 l 1
 32 765 l 1
 32 771 l 1
 136 780 l 1
 311 129 l 1
 490 760 l 1
 570 760 l 1
 749 129 l 1
 924 780 l 1
 1028 771 l 1
 1028 765 l 1
EndSplineSet
PickledDataWithLists: "(dp0
Vcom.fontlab.hintData
p1
(dp2
Vvhints
p3
(lp4
(dp5
Vwidth
p6
L10L
sVposition
p7
L46L
sa(dp8
g6
L10L
sg7
L1045L
sasVhhints
p9
(lp10
(dp11
g6
L10L
sg7
L-10L
sa(dp12
g6
L10L
sg7
L762L
sa(dp13
g6
L10L
sg7
L790L
sass."
Colour: ff00
EndChar

StartChar: X
Encoding: 59 88 60
GlifName: X_
Width: 740
VWidth: 0
Flags: MW
AnchorPoint: "LatinBelow.mark" 370 0 basechar 0
AnchorPoint: "LatinAbove.mark" 370 150 basechar 0
LayerCount: 2
Fore
SplineSet
63 764 m 1
 63 770 l 1
 168 780 l 1
 371 475 l 1
 573 780 l 1
 678 770 l 1
 678 764 l 1
 424 415 l 1
 728 6 l 1
 728 0 l 1
 617 0 l 1
 371 340 l 1
 124 0 l 1
 13 0 l 1
 13 6 l 1
 317 415 l 1
 63 764 l 1
EndSplineSet
PickledDataWithLists: "(dp0
Vcom.fontlab.hintData
p1
(dp2
Vvhints
p3
(lp4
(dp5
Vwidth
p6
L10L
sVposition
p7
L31L
sa(dp8
g6
L10L
sg7
L91L
sa(dp9
g6
L10L
sg7
L687L
sa(dp10
g6
L10L
sg7
L734L
sasVhhints
p11
(lp12
(dp13
g6
L10L
sg7
L-9L
sa(dp14
g6
L10L
sg7
L4L
sa(dp15
g6
L10L
sg7
L789L
sass."
Colour: ff00
EndChar

StartChar: Y
Encoding: 60 89 61
GlifName: Y_
Width: 670
VWidth: 0
Flags: MW
AnchorPoint: "LatinBelow.mark" 335 0 basechar 0
AnchorPoint: "LatinAbove.mark" 335 150 basechar 0
LayerCount: 2
Fore
SplineSet
18 765 m 1
 18 772 l 1
 125 780 l 1
 335 392 l 1
 545 780 l 1
 652 772 l 1
 652 765 l 1
 383 301 l 1
 383 0 l 1
 287 0 l 1
 287 301 l 1
 18 765 l 1
EndSplineSet
PickledDataWithLists: "(dp0
Vcom.fontlab.hintData
p1
(dp2
Vvhints
p3
(lp4
(dp5
Vwidth
p6
L10L
sVposition
p7
L35L
sa(dp8
g6
L10L
sg7
L310L
sa(dp9
g6
L10L
sg7
L408L
sa(dp10
g6
L10L
sg7
L414L
sa(dp11
g6
L10L
sg7
L675L
sasVhhints
p12
(lp13
(dp14
g6
L10L
sg7
L-20L
sa(dp15
g6
L10L
sg7
L789L
sa(dp16
g6
L10L
sg7
L800L
sass."
EndChar

StartChar: Z
Encoding: 61 90 62
GlifName: Z_
Width: 670
VWidth: 0
Flags: MW
AnchorPoint: "LatinBelow.mark" 335 0 basechar 0
AnchorPoint: "LatinAbove.mark" 335 150 basechar 0
LayerCount: 2
Fore
SplineSet
43 55 m 1
 490 706 l 1
 67 706 l 1
 67 780 l 1
 611 780 l 1
 618 725 l 1
 171 74 l 1
 628 74 l 1
 628 0 l 1
 50 0 l 1
 43 55 l 1
EndSplineSet
PickledDataWithLists: "(dp0
Vcom.fontlab.hintData
p1
(dp2
Vvhints
p3
(lp4
(dp5
Vwidth
p6
L10L
sVposition
p7
L46L
sa(dp8
g6
L10L
sg7
L66L
sa(dp9
g6
L10L
sg7
L679L
sa(dp10
g6
L10L
sg7
L699L
sasVhhints
p11
(lp12
(dp13
g6
L10L
sg7
L-13L
sa(dp14
g6
L10L
sg7
L64L
sa(dp15
g6
L10L
sg7
L75L
sa(dp16
g6
L10L
sg7
L709L
sa(dp17
g6
L10L
sg7
L779L
sa(dp18
g6
L10L
sg7
L785L
sa(dp19
g6
L10L
sg7
L790L
sass."
Colour: ff00
EndChar

StartChar: bracketleft
Encoding: 62 91 63
GlifName: bracketleft
Width: 435
VWidth: 0
Flags: MW
LayerCount: 2
Fore
SplineSet
127 -120 m 1
 127 900 l 1
 337 900 l 1
 337 844 l 1
 205 844 l 1
 205 -64 l 1
 335 -64 l 1
 335 -120 l 1
 127 -120 l 1
EndSplineSet
PickledDataWithLists: "(dp0
Vcom.fontlab.hintData
p1
(dp2
Vvhints
p3
(lp4
(dp5
Vwidth
p6
L10L
sVposition
p7
L71L
sa(dp8
g6
L10L
sg7
L92L
sa(dp9
g6
L10L
sg7
L161L
sa(dp10
g6
L10L
sg7
L289L
sasVhhints
p11
(lp12
(dp13
g6
L10L
sg7
L-91L
sa(dp14
g6
L10L
sg7
L-44L
sa(dp15
g6
L10L
sg7
L830L
sa(dp16
g6
L10L
sg7
L877L
sass."
EndChar

StartChar: backslash
Encoding: 63 92 64
GlifName: backslash
Width: 510
VWidth: 0
Flags: MW
LayerCount: 2
Fore
SplineSet
460 0 m 1
 378 0 l 1
 50 775 l 1
 50 780 l 1
 131 780 l 1
 460 5 l 1
 460 0 l 1
EndSplineSet
PickledDataWithLists: "(dp0
Vcom.fontlab.hintData
p1
(dp2
Vvhints
p3
(lp4
(dp5
Vwidth
p6
L10L
sVposition
p7
L40L
sa(dp8
g6
L10L
sg7
L430L
sasVhhints
p9
(lp10
(dp11
g6
L10L
sg7
L-29L
sa(dp12
g6
L10L
sg7
L819L
sass."
EndChar

StartChar: asciicircum
Encoding: 65 94 66
GlifName: asciicircum
Width: 630
VWidth: 0
Flags: MW
LayerCount: 2
Fore
SplineSet
37 586 m 1
 296 883 l 1
 333 883 l 1
 592 586 l 1
 545 553 l 1
 315 786 l 1
 83 553 l 1
 37 586 l 1
EndSplineSet
PickledDataWithLists: "(dp0
Vcom.fontlab.hintData
p1
(dp2
Vvhints
p3
(lp4
(dp5
Vwidth
p6
L10L
sVposition
p7
L23L
sasVhhints
p8
(lp9
(dp10
g6
L10L
sg7
L532L
sa(dp11
g6
L10L
sg7
L839L
sass."
EndChar

StartChar: underscore
Encoding: 66 95 67
GlifName: underscore
Width: 600
VWidth: 0
Flags: MW
LayerCount: 2
Fore
SplineSet
0 0 m 25
 600 0 l 25
 600 -70 l 25
 0 -70 l 25
 0 0 l 25
EndSplineSet
PickledDataWithLists: "(dp0
Vcom.fontlab.hintData
p1
(dp2
Vvhints
p3
(lp4
(dp5
Vwidth
p6
L10L
sVposition
p7
L30L
sa(dp8
g6
L10L
sg7
L559L
sasVhhints
p9
(lp10
(dp11
g6
L10L
sg7
L-69L
sa(dp12
g6
L10L
sg7
L-6L
sa(dp13
g6
L10L
sg7
L1L
sass."
EndChar

StartChar: grave
Encoding: 67 96 68
GlifName: grave
Width: 390
VWidth: 0
Flags: MW
LayerCount: 2
Fore
SplineSet
8 830 m 1
 77 882 l 1
 353 586 l 1
 306 553 l 1
 8 830 l 1
EndSplineSet
PickledDataWithLists: "(dp0
Vcom.fontlab.hintData
p1
(dp2
Vvhints
p3
(lp4
(dp5
Vwidth
p6
L10L
sVposition
p7
L20L
sasVhhints
p8
(lp9
(dp10
g6
L10L
sg7
L541L
sa(dp11
g6
L10L
sg7
L838L
sass."
EndChar

StartChar: a
Encoding: 68 97 69
GlifName: a
Width: 625
VWidth: 0
Flags: MW
AnchorPoint: "LatinOgonek.mark" 515 0 basechar 0
AnchorPoint: "LatinBelow.mark" 330 0 basechar 0
AnchorPoint: "LatinAbove.mark" 310 0 basechar 0
LayerCount: 2
Fore
SplineSet
63 172 m 0
 63 249 125 320 251 320 c 0
 324 320 395 314 446 308 c 1
 446 422 l 2
 446 511 384 552 300 552 c 0
 220 552 169 505 158 429 c 1
 68 435 l 1
 81 528 156 618 300 618 c 0
 442 618 533 536 533 422 c 2
 533 137 l 2
 533 77 551 53 603 47 c 1
 581 -13 l 1
 536 -8 476 14 462 89 c 1
 427 35 369 -13 275 -13 c 0
 146 -13 63 57 63 172 c 0
450 252 m 1
 405 258 336 266 256 266 c 0
 198 266 151 232 151 171 c 0
 151 83 213 43 285 43 c 0
 392 43 436 133 450 210 c 1
 450 252 l 1
EndSplineSet
PickledDataWithLists: "(dp0
Vcom.fontlab.hintData
p1
(dp2
Vvhints
p3
(lp4
(dp5
Vwidth
p6
L10L
sVposition
p7
L60L
sa(dp8
g6
L10L
sg7
L149L
sa(dp9
g6
L10L
sg7
L441L
sa(dp10
g6
L10L
sg7
L529L
sa(dp11
g6
L10L
sg7
L649L
sasVhhints
p12
(lp13
(dp14
g6
L10L
sg7
L-21L
sa(dp15
g6
L10L
sg7
L-11L
sa(dp16
g6
L10L
sg7
L41L
sa(dp17
g6
L10L
sg7
L362L
sa(dp18
g6
L10L
sg7
L432L
sa(dp19
g6
L10L
sg7
L549L
sa(dp20
g6
L10L
sg7
L611L
sass."
Substitution2: "Latin.ss20 subtable" uni0251
Substitution2: "Latin.ss19 subtable" uni0251
Colour: ff00
EndChar

StartChar: b
Encoding: 69 98 70
GlifName: b
Width: 675
VWidth: 0
Flags: MW
AnchorPoint: "LatinBelow.mark" 360 0 basechar 0
AnchorPoint: "LatinAbove.mark" 135 180 basechar 0
LayerCount: 2
Fore
SplineSet
613 312 m 2
 613 288 l 2
 613 146 549 -13 363 -13 c 0
 273 -13 214 42 177 106 c 1
 170 0 l 1
 93 0 l 1
 93 810 l 1
 180 810 l 1
 180 504 l 1
 218 563 278 613 363 613 c 0
 549 613 613 454 613 312 c 2
180 378 m 1
 180 222 l 1
 199 140 253 54 353 54 c 0
 465 54 523 144 523 288 c 2
 523 312 l 2
 523 456 465 546 353 546 c 0
 253 546 199 460 180 378 c 1
EndSplineSet
PickledDataWithLists: "(dp0
Vcom.fontlab.hintData
p1
(dp2
Vvhints
p3
(lp4
(dp5
Vwidth
p6
L10L
sVposition
p7
L81L
sa(dp8
g6
L10L
sg7
L91L
sa(dp9
g6
L10L
sg7
L179L
sa(dp10
g6
L10L
sg7
L211L
sa(dp11
g6
L10L
sg7
L504L
sa(dp12
g6
L10L
sg7
L593L
sasVhhints
p13
(lp14
(dp15
g6
L10L
sg7
L-21L
sa(dp16
g6
L10L
sg7
L41L
sa(dp17
g6
L10L
sg7
L524L
sa(dp18
g6
L10L
sg7
L546L
sa(dp19
g6
L10L
sg7
L607L
sa(dp20
g6
L10L
sg7
L836L
sass."
Colour: ff00
EndChar

StartChar: c
Encoding: 70 99 71
GlifName: c
Width: 605
VWidth: 0
Flags: MW
AnchorPoint: "LatinCedilla.mark" 330 0 basechar 0
AnchorPoint: "LatinBelow.mark" 330 0 basechar 0
AnchorPoint: "LatinAbove.mark" 330 0 basechar 0
LayerCount: 2
Fore
SplineSet
63 287 m 2
 63 313 l 2
 63 455 122 618 331 618 c 0
 485 618 553 518 563 455 c 1
 473 447 l 1
 465 493 417 551 331 551 c 0
 214 551 155 456 155 313 c 2
 155 287 l 2
 155 144 214 49 331 49 c 0
 417 49 465 107 473 153 c 1
 563 145 l 1
 553 82 485 -18 331 -18 c 0
 122 -18 63 145 63 287 c 2
EndSplineSet
PickledDataWithLists: "(dp0
Vcom.fontlab.hintData
p1
(dp2
Vvhints
p3
(lp4
(dp5
Vwidth
p6
L10L
sVposition
p7
L58L
sa(dp8
g6
L10L
sg7
L152L
sa(dp9
g6
L10L
sg7
L433L
sa(dp10
g6
L10L
sg7
L527L
sa(dp11
g6
L10L
sg7
L552L
sasVhhints
p12
(lp13
(dp14
g6
L10L
sg7
L-22L
sa(dp15
g6
L10L
sg7
L44L
sa(dp16
g6
L10L
sg7
L133L
sa(dp17
g6
L10L
sg7
L433L
sa(dp18
g6
L10L
sg7
L548L
sa(dp19
g6
L10L
sg7
L614L
sass."
Colour: ff00
EndChar

StartChar: d
Encoding: 71 100 72
GlifName: d
Width: 680
VWidth: 0
Flags: MW
AnchorPoint: "LatinBelow.mark" 360 0 basechar 0
AnchorPoint: "LatinAbove.mark" 525 180 basechar 0
LayerCount: 2
Fore
SplineSet
62 288 m 2
 62 312 l 2
 62 454 126 613 312 613 c 0
 400 613 458 561 495 500 c 1
 495 810 l 1
 582 810 l 1
 582 137 l 2
 582 77 600 53 652 47 c 1
 630 -13 l 1
 581 -7 510 18 506 114 c 1
 468 47 406 -13 312 -13 c 0
 126 -13 62 146 62 288 c 2
495 378 m 1
 476 460 422 546 322 546 c 0
 210 546 152 456 152 312 c 2
 152 288 l 2
 152 144 210 54 322 54 c 0
 422 54 476 140 495 222 c 1
 495 378 l 1
EndSplineSet
PickledDataWithLists: "(dp0
Vcom.fontlab.hintData
p1
(dp2
Vvhints
p3
(lp4
(dp5
Vwidth
p6
L10L
sVposition
p7
L61L
sa(dp8
g6
L10L
sg7
L149L
sa(dp9
g6
L10L
sg7
L476L
sa(dp10
g6
L10L
sg7
L564L
sa(dp11
g6
L10L
sg7
L679L
sasVhhints
p12
(lp13
(dp14
g6
L10L
sg7
L-21L
sa(dp15
g6
L10L
sg7
L41L
sa(dp16
g6
L10L
sg7
L544L
sa(dp17
g6
L10L
sg7
L606L
sa(dp18
g6
L10L
sg7
L836L
sass."
Colour: ff00
EndChar

StartChar: e
Encoding: 72 101 73
GlifName: e
Width: 640
VWidth: 0
Flags: MW
AnchorPoint: "LatinOgonek.mark" 410 0 basechar 0
AnchorPoint: "LatinBelow.mark" 330 0 basechar 0
AnchorPoint: "LatinAbove.mark" 330 0 basechar 0
LayerCount: 2
Fore
SplineSet
63 286 m 2
 63 314 l 2
 63 456 124 618 327 618 c 0
 493 618 578 496 578 362 c 0
 578 337 576 311 571 286 c 1
 151 286 l 1
 151 144 207 47 327 47 c 0
 417 47 465 107 473 153 c 1
 560 145 l 1
 549 81 479 -18 327 -18 c 0
 121 -18 63 144 63 286 c 2
152 344 m 1
 493 344 l 1
 493 351 493 357 493 363 c 0
 493 487 425 554 327 554 c 0
 217 554 160 470 152 344 c 1
EndSplineSet
PickledDataWithLists: "(dp0
Vcom.fontlab.hintData
p1
(dp2
Vvhints
p3
(lp4
(dp5
Vwidth
p6
L10L
sVposition
p7
L45L
sa(dp8
g6
L10L
sg7
L71L
sa(dp9
g6
L10L
sg7
L159L
sa(dp10
g6
L10L
sg7
L471L
sa(dp11
g6
L10L
sg7
L559L
sa(dp12
g6
L10L
sg7
L570L
sasVhhints
p13
(lp14
(dp15
g6
L10L
sg7
L-20L
sa(dp16
g6
L10L
sg7
L42L
sa(dp17
g6
L10L
sg7
L131L
sa(dp18
g6
L10L
sg7
L552L
sa(dp19
g6
L10L
sg7
L613L
sass."
Colour: ff00
EndChar

StartChar: f
Encoding: 73 102 74
GlifName: f
Width: 400
VWidth: 0
Flags: MW
AnchorPoint: "LatinBelow.mark" 180 0 basechar 0
AnchorPoint: "LatinAbove.mark" 270 180 basechar 0
LayerCount: 2
Fore
SplineSet
35 542 m 1
 35 600 l 1
 130 600 l 1
 130 683 l 2
 130 743 167 828 283 828 c 0
 360 828 406 794 420 784 c 1
 381 735 l 1
 368 744 337 765 289 765 c 0
 241 765 217 729 217 683 c 2
 217 600 l 1
 375 600 l 1
 375 542 l 1
 220 542 l 1
 220 0 l 1
 130 0 l 1
 130 542 l 1
 35 542 l 1
EndSplineSet
PickledDataWithLists: "(dp0
Vcom.fontlab.hintData
p1
(dp2
Vvhints
p3
(lp4
(dp5
Vwidth
p6
L10L
sVposition
p7
L20L
sa(dp8
g6
L10L
sg7
L132L
sa(dp9
g6
L10L
sg7
L166L
sa(dp10
g6
L9L
sg7
L219L
sa(dp11
g6
L10L
sg7
L255L
sa(dp12
g6
L10L
sg7
L399L
sa(dp13
g6
L10L
sg7
L469L
sasVhhints
p14
(lp15
(dp16
g6
L10L
sg7
L-20L
sa(dp17
g6
L10L
sg7
L521L
sa(dp18
g6
L10L
sg7
L586L
sa(dp19
g6
L10L
sg7
L591L
sa(dp20
g6
L10L
sg7
L759L
sa(dp21
g6
L10L
sg7
L803L
sa(dp22
g6
L10L
sg7
L864L
sass."
Colour: ff00
EndChar

StartChar: h
Encoding: 75 104 76
GlifName: h
Width: 665
VWidth: 0
Flags: MW
AnchorPoint: "LatinBelow.mark" 360 0 basechar 0
AnchorPoint: "LatinAbove.mark" 135 180 basechar 0
LayerCount: 2
Fore
SplineSet
93 0 m 1
 93 810 l 1
 181 810 l 1
 181 433 l 1
 223 524 298 613 416 613 c 0
 534 613 588 525 588 421 c 2
 588 0 l 1
 498 0 l 1
 498 418 l 2
 498 506 453 541 393 541 c 0
 284 541 200 412 183 301 c 1
 183 0 l 1
 93 0 l 1
EndSplineSet
PickledDataWithLists: "(dp0
Vcom.fontlab.hintData
p1
(dp2
Vvhints
p3
(lp4
(dp5
Vwidth
p6
L10L
sVposition
p7
L65L
sa(dp8
g6
L10L
sg7
L106L
sa(dp9
g6
L10L
sg7
L187L
sa(dp10
g6
L10L
sg7
L491L
sa(dp11
g6
L10L
sg7
L496L
sa(dp12
g6
L10L
sg7
L579L
sa(dp13
g6
L10L
sg7
L584L
sasVhhints
p14
(lp15
(dp16
g6
L10L
sg7
L-14L
sa(dp17
g6
L10L
sg7
L549L
sa(dp18
g6
L10L
sg7
L611L
sa(dp19
g6
L10L
sg7
L836L
sass."
Colour: ff00
EndChar

StartChar: i
Encoding: 76 105 77
GlifName: i
Width: 300
VWidth: 0
GlyphClass: 3
Flags: MW
AnchorPoint: "LatinOgonek.mark" 155 0 basechar 0
AnchorPoint: "LatinBelow.mark" 150 0 basechar 0
AnchorPoint: "LatinAbove.mark" 150 180 basechar 0
LayerCount: 2
Fore
SplineSet
105 0 m 1
 105 600 l 1
 195 600 l 1
 195 0 l 1
 105 0 l 1
150 848 m 0
 191 848 222 822 222 780 c 0
 222 738 191 712 150 712 c 0
 109 712 78 738 78 780 c 0
 78 822 109 848 150 848 c 0
EndSplineSet
PickledDataWithLists: "(dp0
Vcom.fontlab.hintData
p1
(dp2
Vvhints
p3
(lp4
(dp5
Vwidth
p6
L10L
sVposition
p7
L86L
sa(dp8
g6
L10L
sg7
L116L
sa(dp9
g6
L10L
sg7
L204L
sa(dp10
g6
L10L
sg7
L234L
sa(dp11
g6
L10L
sg7
L244L
sasVhhints
p12
(lp13
(dp14
g6
L10L
sg7
L-21L
sa(dp15
g6
L10L
sg7
L595L
sa(dp16
g6
L10L
sg7
L725L
sa(dp17
g6
L20L
sg7
L826L
sa(dp18
g6
L10L
sg7
L852L
sass."
Substitution2: "Latin.ij.dotless subtable" dotlessi
Ligature2: "Latin.ij subtable" dotlessi uni0307
EndChar

StartChar: j
Encoding: 77 106 78
GlifName: j
Width: 310
VWidth: 0
GlyphClass: 3
Flags: MW
AnchorPoint: "LatinBelow.mark" 150 -180 basechar 0
AnchorPoint: "LatinAbove.mark" 150 180 basechar 0
LayerCount: 2
Fore
SplineSet
1 -164 m 1
 70 -140 116 -102 116 -19 c 2
 116 600 l 1
 206 600 l 1
 206 -24 l 2
 206 -133 123 -195 29 -223 c 1
 1 -164 l 1
161 848 m 0
 202 848 233 822 233 780 c 0
 233 738 202 712 161 712 c 0
 120 712 89 738 89 780 c 0
 89 822 120 848 161 848 c 0
EndSplineSet
PickledDataWithLists: "(dp0
Vcom.fontlab.hintData
p1
(dp2
Vvhints
p3
(lp4
(dp5
Vwidth
p6
L10L
sVposition
p7
L31L
sa(dp8
g6
L10L
sg7
L86L
sa(dp9
g6
L10L
sg7
L126L
sa(dp10
g6
L10L
sg7
L146L
sa(dp11
g6
L10L
sg7
L234L
sa(dp12
g6
L10L
sg7
L244L
sasVhhints
p13
(lp14
(dp15
g6
L10L
sg7
L-246L
sa(dp16
g6
L10L
sg7
L596L
sa(dp17
g6
L10L
sg7
L725L
sa(dp18
g6
L20L
sg7
L826L
sa(dp19
g6
L10L
sg7
L852L
sass."
Substitution2: "Latin.ij.dotless subtable" uni0237
Ligature2: "Latin.ij subtable" uni0237 uni200D uni0307
Ligature2: "Latin.ij subtable" uni0237 uni0307
Ligature2: "Latin.ij subtable" dotlessi uni200D uni0307
EndChar

StartChar: k
Encoding: 78 107 79
GlifName: k
Width: 605
VWidth: 0
Flags: MW
AnchorPoint: "LatinBelow.mark" 360 0 basechar 0
AnchorPoint: "LatinAbove.mark" 135 180 basechar 0
LayerCount: 2
Fore
SplineSet
102 0 m 1
 102 810 l 1
 188 810 l 1
 188 305 l 1
 459 600 l 1
 557 594 l 1
 557 590 l 1
 320 345 l 1
 592 4 l 1
 592 0 l 1
 488 0 l 1
 263 287 l 1
 188 209 l 1
 188 0 l 1
 102 0 l 1
EndSplineSet
PickledDataWithLists: "(dp0
Vcom.fontlab.hintData
p1
(dp2
Vvhints
p3
(lp4
(dp5
Vwidth
p6
L10L
sVposition
p7
L75L
sa(dp8
g6
L10L
sg7
L105L
sa(dp9
g6
L10L
sg7
L194L
sa(dp10
g6
L10L
sg7
L539L
sa(dp11
g6
L10L
sg7
L580L
sasVhhints
p12
(lp13
(dp14
g6
L10L
sg7
L-11L
sa(dp15
g6
L10L
sg7
L596L
sa(dp16
g6
L10L
sg7
L836L
sass."
Colour: ff00
EndChar

StartChar: l
Encoding: 79 108 80
GlifName: l
Width: 315
VWidth: 0
Flags: MW
AnchorPoint: "LatinBelow.mark" 190 0 basechar 0
AnchorPoint: "LatinAbove.mark" 140 180 basechar 0
LayerCount: 2
Fore
SplineSet
100 122 m 2
 100 810 l 1
 190 810 l 1
 190 130 l 2
 190 70 232 53 300 47 c 1
 282 -13 l 1
 204 -7 100 15 100 122 c 2
EndSplineSet
PickledDataWithLists: "(dp0
Vcom.fontlab.hintData
p1
(dp2
Vvhints
p3
(lp4
(dp5
Vwidth
p6
L10L
sVposition
p7
L106L
sa(dp8
g6
L10L
sg7
L111L
sa(dp9
g6
L10L
sg7
L194L
sa(dp10
g6
L10L
sg7
L199L
sa(dp11
g6
L10L
sg7
L315L
sasVhhints
p12
(lp13
(dp14
g6
L10L
sg7
L-23L
sa(dp15
g6
L10L
sg7
L830L
sass."
EndChar

StartChar: m
Encoding: 80 109 81
GlifName: m
Width: 945
VWidth: 0
Flags: MW
AnchorPoint: "LatinBelow.mark" 480 0 basechar 0
AnchorPoint: "LatinAbove.mark" 480 0 basechar 0
LayerCount: 2
Fore
SplineSet
82 595 m 1
 164 603 l 1
 178 464 l 1
 210 540 265 607 362 607 c 0
 454 607 507 546 521 467 c 1
 553 542 609 607 704 607 c 0
 814 607 867 521 867 420 c 2
 867 0 l 1
 777 0 l 1
 777 418 l 2
 777 504 736 536 682 536 c 0
 592 536 541 428 525 328 c 1
 525 0 l 1
 435 0 l 1
 435 418 l 2
 435 504 393 536 339 536 c 0
 247 536 197 423 182 322 c 1
 182 0 l 1
 92 0 l 1
 92 420 l 1
 82 595 l 1
EndSplineSet
PickledDataWithLists: "(dp0
Vcom.fontlab.hintData
p1
(dp2
Vvhints
p3
(lp4
(dp5
Vwidth
p6
L10L
sVposition
p7
L76L
sa(dp8
g6
L10L
sg7
L96L
sa(dp9
g6
L10L
sg7
L167L
sa(dp10
g6
L10L
sg7
L436L
sa(dp11
g6
L10L
sg7
L441L
sa(dp12
g6
L10L
sg7
L776L
sa(dp13
g6
L10L
sg7
L781L
sa(dp14
g6
L10L
sg7
L864L
sa(dp15
g6
L10L
sg7
L869L
sasVhhints
p16
(lp17
(dp18
g6
L10L
sg7
L-19L
sa(dp19
g6
L10L
sg7
L-10L
sa(dp20
g6
L10L
sg7
L549L
sa(dp21
g6
L10L
sg7
L606L
sa(dp22
g6
L10L
sg7
L611L
sass."
Colour: ff00
EndChar

StartChar: n
Encoding: 81 110 82
GlifName: n
Width: 655
VWidth: 0
Flags: MW
AnchorPoint: "LatinBelow.mark" 360 0 basechar 0
AnchorPoint: "LatinAbove.mark" 330 0 basechar 0
LayerCount: 2
Fore
SplineSet
92 0 m 1
 92 420 l 1
 82 595 l 1
 164 603 l 1
 180 438 l 1
 220 527 292 613 407 613 c 0
 522 613 577 525 577 421 c 2
 577 0 l 1
 487 0 l 1
 487 418 l 2
 487 506 442 541 385 541 c 0
 278 541 199 413 182 302 c 1
 182 0 l 1
 92 0 l 1
EndSplineSet
PickledDataWithLists: "(dp0
Vcom.fontlab.hintData
p1
(dp2
Vvhints
p3
(lp4
(dp5
Vwidth
p6
L10L
sVposition
p7
L55L
sa(dp8
g6
L10L
sg7
L96L
sa(dp9
g6
L10L
sg7
L481L
sa(dp10
g6
L10L
sg7
L486L
sa(dp11
g6
L10L
sg7
L569L
sa(dp12
g6
L10L
sg7
L574L
sasVhhints
p13
(lp14
(dp15
g6
L10L
sg7
L-15L
sa(dp16
g6
L10L
sg7
L-10L
sa(dp17
g6
L10L
sg7
L549L
sa(dp18
g6
L10L
sg7
L606L
sa(dp19
g6
L10L
sg7
L611L
sass."
Substitution2: "Latin.sups subtable" n.sups
Substitution2: "Latin.sups subtable" n.sups
Colour: ff00
EndChar

StartChar: o
Encoding: 82 111 83
GlifName: o
Width: 660
VWidth: 0
Flags: MW
AnchorPoint: "LatinOgonek.mark" 400 0 basechar 0
AnchorPoint: "LatinBelow.mark" 330 0 basechar 0
AnchorPoint: "LatinAbove.mark" 330 0 basechar 0
LayerCount: 2
Fore
SplineSet
62 286 m 2
 62 314 l 2
 62 456 122 618 330 618 c 0
 538 618 598 456 598 314 c 2
 598 286 l 2
 598 144 538 -18 330 -18 c 0
 122 -18 62 144 62 286 c 2
330 48 m 0
 450 48 508 143 508 286 c 2
 508 314 l 2
 508 457 450 552 330 552 c 0
 210 552 152 457 152 314 c 2
 152 286 l 2
 152 143 210 48 330 48 c 0
EndSplineSet
PickledDataWithLists: "(dp0
Vcom.fontlab.hintData
p1
(dp2
Vvhints
p3
(lp4
(dp5
Vwidth
p6
L10L
sVposition
p7
L61L
sa(dp8
g6
L10L
sg7
L149L
sa(dp9
g6
L10L
sg7
L441L
sa(dp10
g6
L10L
sg7
L506L
sa(dp11
g6
L10L
sg7
L594L
sasVhhints
p12
(lp13
(dp14
g6
L10L
sg7
L-21L
sa(dp15
g6
L9L
sg7
L42L
sa(dp16
g6
L10L
sg7
L552L
sa(dp17
g6
L10L
sg7
L614L
sass."
Colour: ff00
EndChar

StartChar: p
Encoding: 83 112 84
GlifName: p
Width: 675
VWidth: 0
Flags: MW
AnchorPoint: "LatinBelow.mark" 150 -180 basechar 0
AnchorPoint: "LatinAbove.mark" 330 0 basechar 0
LayerCount: 2
Fore
SplineSet
613 312 m 2
 613 288 l 2
 613 146 549 -13 363 -13 c 0
 278 -13 220 37 183 96 c 1
 183 -210 l 1
 93 -210 l 1
 93 420 l 1
 83 595 l 1
 165 603 l 1
 175 497 l 1
 213 559 274 613 363 613 c 0
 549 613 613 454 613 312 c 2
183 210 m 1
 204 132 258 54 353 54 c 0
 465 54 523 144 523 288 c 2
 523 312 l 2
 523 456 465 546 353 546 c 0
 258 546 204 468 183 390 c 1
 183 210 l 1
EndSplineSet
PickledDataWithLists: "(dp0
Vcom.fontlab.hintData
p1
(dp2
Vvhints
p3
(lp4
(dp5
Vwidth
p6
L10L
sVposition
p7
L41L
sa(dp8
g6
L10L
sg7
L101L
sa(dp9
g6
L10L
sg7
L108L
sa(dp10
g6
L10L
sg7
L193L
sa(dp11
g6
L10L
sg7
L523L
sa(dp12
g6
L10L
sg7
L612L
sasVhhints
p13
(lp14
(dp15
g6
L10L
sg7
L-246L
sa(dp16
g6
L10L
sg7
L-16L
sa(dp17
g6
L10L
sg7
L46L
sa(dp18
g6
L10L
sg7
L549L
sa(dp19
g6
L10L
sg7
L610L
sass."
Colour: ff00
EndChar

StartChar: q
Encoding: 84 113 85
GlifName: q
Width: 675
VWidth: 0
Flags: MW
AnchorPoint: "LatinBelow.mark" 535 -240 basechar 0
AnchorPoint: "LatinAbove.mark" 360 0 basechar 0
LayerCount: 2
Fore
SplineSet
62 288 m 2
 62 312 l 2
 62 454 126 613 312 613 c 0
 402 613 461 558 498 494 c 1
 505 600 l 1
 582 600 l 1
 582 -210 l 1
 495 -210 l 1
 495 96 l 1
 457 37 397 -13 312 -13 c 0
 126 -13 62 146 62 288 c 2
495 222 m 1
 495 378 l 1
 476 460 422 546 322 546 c 0
 210 546 152 456 152 312 c 2
 152 288 l 2
 152 144 210 54 322 54 c 0
 422 54 476 140 495 222 c 1
EndSplineSet
PickledDataWithLists: "(dp0
Vcom.fontlab.hintData
p1
(dp2
Vvhints
p3
(lp4
(dp5
Vwidth
p6
L10L
sVposition
p7
L59L
sa(dp8
g6
L10L
sg7
L149L
sa(dp9
g6
L10L
sg7
L444L
sa(dp10
g6
L10L
sg7
L459L
sa(dp11
g6
L10L
sg7
L471L
sa(dp12
g6
L10L
sg7
L547L
sa(dp13
g6
L10L
sg7
L559L
sa(dp14
g6
L10L
sg7
L649L
sasVhhints
p15
(lp16
(dp17
g6
L10L
sg7
L-261L
sa(dp18
g6
L10L
sg7
L-184L
sa(dp19
g6
L10L
sg7
L-17L
sa(dp20
g6
L10L
sg7
L44L
sa(dp21
g6
L10L
sg7
L66L
sa(dp22
g6
L10L
sg7
L549L
sa(dp23
g6
L10L
sg7
L611L
sass."
Colour: ff00
EndChar

StartChar: r
Encoding: 85 114 86
GlifName: r
Width: 435
VWidth: 0
Flags: MW
AnchorPoint: "LatinBelow.mark" 170 0 basechar 0
AnchorPoint: "LatinAbove.mark" 240 0 basechar 0
LayerCount: 2
Fore
SplineSet
77 594 m 1
 153 603 l 1
 187 453 l 1
 211 535 260 613 357 613 c 0
 385 613 407 607 427 598 c 1
 393 524 l 1
 379 531 363 535 343 535 c 0
 255 535 214 428 202 327 c 1
 202 0 l 1
 112 0 l 1
 112 427 l 1
 77 594 l 1
EndSplineSet
PickledDataWithLists: "(dp0
Vcom.fontlab.hintData
p1
(dp2
Vvhints
p3
(lp4
(dp5
Vwidth
p6
L10L
sVposition
p7
L20L
sa(dp8
g6
L10L
sg7
L171L
sa(dp9
g6
L10L
sg7
L261L
sa(dp10
g6
L10L
sg7
L479L
sasVhhints
p11
(lp12
(dp13
g6
L10L
sg7
L-13L
sa(dp14
g6
L10L
sg7
L524L
sa(dp15
g6
L10L
sg7
L549L
sa(dp16
g6
L10L
sg7
L596L
sa(dp17
g6
L10L
sg7
L611L
sass."
Colour: ff00
EndChar

StartChar: s
Encoding: 86 115 87
GlifName: s
Width: 570
VWidth: 0
Flags: MW
AnchorPoint: "LatinCedilla.mark" 310 0 basechar 0
AnchorPoint: "LatinBelow.mark" 285 0 basechar 0
AnchorPoint: "LatinAbove.mark" 285 0 basechar 0
LayerCount: 2
Fore
SplineSet
52 137 m 1
 140 147 l 1
 148 100 195 47 288 47 c 0
 380 47 431 89 431 153 c 0
 431 213 384 239 350 249 c 0
 305 263 240 281 196 297 c 0
 140 317 68 358 68 448 c 0
 68 546 152 618 284 618 c 0
 424 618 490 529 501 467 c 1
 414 455 l 1
 406 501 364 553 284 553 c 0
 204 553 154 514 154 451 c 0
 154 401 198 375 234 363 c 0
 278 349 344 329 384 317 c 0
 447 298 517 255 517 155 c 0
 517 56 428 -18 284 -18 c 0
 132 -18 64 73 52 137 c 1
EndSplineSet
PickledDataWithLists: "(dp0
Vcom.fontlab.hintData
p1
(dp2
Vvhints
p3
(lp4
(dp5
Vwidth
p6
L10L
sVposition
p7
L60L
sa(dp8
g6
L10L
sg7
L139L
sa(dp9
g6
L10L
sg7
L381L
sa(dp10
g6
L10L
sg7
L431L
sa(dp11
g6
L10L
sg7
L470L
sa(dp12
g6
L10L
sg7
L516L
sasVhhints
p13
(lp14
(dp15
g6
L10L
sg7
L-20L
sa(dp16
g6
L10L
sg7
L42L
sa(dp17
g6
L10L
sg7
L151L
sa(dp18
g6
L10L
sg7
L434L
sa(dp19
g6
L10L
sg7
L554L
sa(dp20
g6
L10L
sg7
L616L
sass."
Colour: ff00
EndChar

StartChar: t
Encoding: 87 116 88
GlifName: t
Width: 415
VWidth: 0
Flags: MW
AnchorPoint: "LatinCedilla.mark" 270 0 basechar 0
AnchorPoint: "LatinBelow.mark" 280 0 basechar 0
AnchorPoint: "LatinAbove.mark" 180 120 basechar 0
LayerCount: 2
Fore
SplineSet
35 542 m 1
 35 600 l 1
 133 600 l 1
 133 728 l 1
 219 735 l 1
 219 600 l 1
 375 600 l 1
 375 542 l 1
 220 542 l 1
 220 133 l 2
 220 69 240 52 282 52 c 0
 326 52 367 69 383 79 c 1
 405 19 l 1
 378 3 329 -13 271 -13 c 0
 186 -13 130 25 130 121 c 2
 130 542 l 1
 35 542 l 1
EndSplineSet
PickledDataWithLists: "(dp0
Vcom.fontlab.hintData
p1
(dp2
Vvhints
p3
(lp4
(dp5
Vwidth
p6
L10L
sVposition
p7
L20L
sa(dp8
g6
L10L
sg7
L131L
sa(dp9
g6
L10L
sg7
L136L
sa(dp10
g6
L10L
sg7
L141L
sa(dp11
g6
L10L
sg7
L219L
sa(dp12
g6
L10L
sg7
L225L
sa(dp13
g6
L10L
sg7
L399L
sa(dp14
g6
L10L
sg7
L439L
sasVhhints
p15
(lp16
(dp17
g6
L10L
sg7
L-18L
sa(dp18
g6
L10L
sg7
L41L
sa(dp19
g6
L10L
sg7
L86L
sa(dp20
g6
L10L
sg7
L524L
sa(dp21
g6
L10L
sg7
L586L
sa(dp22
g6
L10L
sg7
L741L
sass."
Colour: ff00
EndChar

StartChar: u
Encoding: 88 117 89
GlifName: u
Width: 620
VWidth: 0
Flags: MW
AnchorPoint: "LatinOgonek.mark" 380 0 basechar 0
AnchorPoint: "LatinBelow.mark" 310 0 basechar 0
AnchorPoint: "LatinAbove.mark" 310 0 basechar 0
LayerCount: 2
Fore
SplineSet
72 184 m 2
 72 600 l 1
 162 600 l 1
 162 184 l 2
 162 94 224 48 310 48 c 0
 396 48 458 94 458 184 c 2
 458 600 l 1
 548 600 l 1
 548 184 l 2
 548 69 456 -18 310 -18 c 0
 164 -18 72 69 72 184 c 2
EndSplineSet
PickledDataWithLists: "(dp0
Vcom.fontlab.hintData
p1
(dp2
Vvhints
p3
(lp4
(dp5
Vwidth
p6
L10L
sVposition
p7
L81L
sa(dp8
g6
L10L
sg7
L86L
sa(dp9
g6
L10L
sg7
L174L
sa(dp10
g6
L10L
sg7
L471L
sa(dp11
g6
L10L
sg7
L649L
sasVhhints
p12
(lp13
(dp14
g6
L10L
sg7
L-21L
sa(dp15
g6
L10L
sg7
L-16L
sa(dp16
g6
L10L
sg7
L41L
sa(dp17
g6
L10L
sg7
L601L
sass."
EndChar

StartChar: v
Encoding: 89 118 90
GlifName: v
Width: 600
VWidth: 0
Flags: MW
AnchorPoint: "LatinBelow.mark" 300 0 basechar 0
AnchorPoint: "LatinAbove.mark" 300 0 basechar 0
LayerCount: 2
Fore
SplineSet
17 588 m 1
 17 593 l 1
 115 600 l 1
 305 96 l 1
 495 600 l 1
 593 593 l 1
 593 588 l 1
 341 0 l 1
 269 0 l 1
 17 588 l 1
EndSplineSet
PickledDataWithLists: "(dp0
Vcom.fontlab.hintData
p1
(dp2
Vvhints
p3
(lp4
(dp5
Vwidth
p6
L10L
sVposition
p7
L35L
sa(dp8
g6
L10L
sg7
L584L
sasVhhints
p9
(lp10
(dp11
g6
L10L
sg7
L-18L
sa(dp12
g6
L10L
sg7
L581L
sa(dp13
g6
L10L
sg7
L591L
sass."
Colour: ff00
EndChar

StartChar: w
Encoding: 90 119 91
GlifName: w
Width: 830
VWidth: 0
Flags: MW
AnchorPoint: "LatinBelow.mark" 415 0 basechar 0
AnchorPoint: "LatinAbove.mark" 415 0 basechar 0
LayerCount: 2
Fore
SplineSet
803 588 m 1
 627 0 l 1
 549 0 l 1
 415 461 l 1
 281 0 l 1
 203 0 l 1
 27 588 l 1
 27 592 l 1
 123 600 l 1
 248 125 l 1
 379 585 l 1
 451 585 l 1
 582 125 l 1
 707 600 l 1
 803 592 l 1
 803 588 l 1
EndSplineSet
PickledDataWithLists: "(dp0
Vcom.fontlab.hintData
p1
(dp2
Vvhints
p3
(lp4
(dp5
Vwidth
p6
L10L
sVposition
p7
L41L
sa(dp8
g6
L10L
sg7
L790L
sasVhhints
p9
(lp10
(dp11
g6
L10L
sg7
L-11L
sa(dp12
g6
L10L
sg7
L568L
sa(dp13
g6
L10L
sg7
L590L
sass."
Colour: ff00
EndChar

StartChar: x
Encoding: 91 120 92
GlifName: x
Width: 600
VWidth: 0
Flags: MW
AnchorPoint: "LatinBelow.mark" 300 0 basechar 0
AnchorPoint: "LatinAbove.mark" 300 0 basechar 0
LayerCount: 2
Fore
SplineSet
58 588 m 1
 58 593 l 1
 154 600 l 1
 300 380 l 1
 447 600 l 1
 543 593 l 1
 543 588 l 1
 350 324 l 1
 583 4 l 1
 583 0 l 1
 482 0 l 1
 300 255 l 1
 119 0 l 1
 18 0 l 1
 18 4 l 1
 251 324 l 1
 58 588 l 1
EndSplineSet
PickledDataWithLists: "(dp0
Vcom.fontlab.hintData
p1
(dp2
Vvhints
p3
(lp4
(dp5
Vwidth
p6
L10L
sVposition
p7
L26L
sa(dp8
g6
L10L
sg7
L71L
sa(dp9
g6
L10L
sg7
L524L
sa(dp10
g6
L10L
sg7
L559L
sasVhhints
p11
(lp12
(dp13
g6
L10L
sg7
L-6L
sa(dp14
g6
L10L
sg7
L5L
sa(dp15
g6
L10L
sg7
L591L
sass."
Colour: ff00
EndChar

StartChar: y
Encoding: 92 121 93
GlifName: y
Width: 600
VWidth: 0
Flags: MW
AnchorPoint: "LatinBelow.mark" 300 -180 basechar 0
AnchorPoint: "LatinAbove.mark" 300 0 basechar 0
LayerCount: 2
Fore
SplineSet
22 588 m 1
 22 593 l 1
 120 600 l 1
 299 103 l 1
 481 600 l 1
 578 593 l 1
 578 588 l 1
 328 -29 l 2
 290 -113 245 -228 138 -228 c 0
 88 -228 56 -206 32 -186 c 1
 76 -131 l 1
 94 -147 111 -165 136 -165 c 0
 184 -165 218 -96 254 -12 c 2
 261 3 l 1
 22 588 l 1
EndSplineSet
PickledDataWithLists: "(dp0
Vcom.fontlab.hintData
p1
(dp2
Vvhints
p3
(lp4
(dp5
Vwidth
p6
L10L
sVposition
p7
L56L
sa(dp8
g6
L10L
sg7
L130L
sasVhhints
p9
(lp10
(dp11
g6
L10L
sg7
L-257L
sa(dp12
g6
L10L
sg7
L-195L
sa(dp13
g6
L10L
sg7
L-164L
sa(dp14
g6
L10L
sg7
L4L
sa(dp15
g6
L10L
sg7
L584L
sa(dp16
g6
L10L
sg7
L595L
sass."
Colour: ff00
EndChar

StartChar: z
Encoding: 93 122 94
GlifName: z
Width: 530
VWidth: 0
Flags: MW
AnchorPoint: "LatinBelow.mark" 265 0 basechar 0
AnchorPoint: "LatinAbove.mark" 265 0 basechar 0
LayerCount: 2
Fore
SplineSet
37 46 m 1
 367 536 l 1
 57 536 l 1
 57 600 l 1
 479 600 l 1
 485 554 l 1
 156 64 l 1
 492 64 l 1
 492 0 l 1
 43 0 l 1
 37 46 l 1
EndSplineSet
PickledDataWithLists: "(dp0
Vcom.fontlab.hintData
p1
(dp2
Vvhints
p3
(lp4
(dp5
Vwidth
p6
L10L
sVposition
p7
L46L
sa(dp8
g6
L10L
sg7
L61L
sa(dp9
g6
L10L
sg7
L531L
sa(dp10
g6
L10L
sg7
L544L
sasVhhints
p11
(lp12
(dp13
g6
L10L
sg7
L-17L
sa(dp14
g6
L10L
sg7
L51L
sa(dp15
g6
L10L
sg7
L59L
sa(dp16
g6
L15L
sg7
L525L
sa(dp17
g6
L10L
sg7
L587L
sa(dp18
g6
L10L
sg7
L592L
sass."
Colour: ff00
EndChar

StartChar: braceleft
Encoding: 94 123 95
GlifName: braceleft
Width: 390
VWidth: 0
Flags: MW
LayerCount: 2
Fore
SplineSet
52 373 m 1
 52 390 l 1
 52 407 l 1
 94 414 150 452 150 538 c 0
 150 578 117 678 117 738 c 0
 117 834 170 900 262 900 c 2
 307 900 l 1
 307 852 l 1
 272 852 l 2
 236 852 197 828 197 732 c 0
 197 680 227 580 227 530 c 0
 227 456 188 410 141 390 c 1
 188 370 227 324 227 250 c 0
 227 200 197 100 197 48 c 0
 197 -48 236 -72 272 -72 c 2
 307 -72 l 1
 307 -120 l 1
 262 -120 l 2
 170 -120 117 -54 117 42 c 0
 117 102 150 202 150 242 c 0
 150 328 94 366 52 373 c 1
EndSplineSet
PickledDataWithLists: "(dp0
Vcom.fontlab.hintData
p1
(dp2
Vvhints
p3
(lp4
(dp5
Vwidth
p6
L10L
sVposition
p7
L22L
sa(dp8
g6
L10L
sg7
L112L
sa(dp9
g6
L10L
sg7
L128L
sa(dp10
g6
L10L
sg7
L182L
sa(dp11
g6
L10L
sg7
L197L
sa(dp12
g6
L10L
sg7
L205L
sa(dp13
g6
L10L
sg7
L289L
sasVhhints
p14
(lp15
(dp16
g6
L10L
sg7
L-89L
sa(dp17
g6
L10L
sg7
L-41L
sa(dp18
g6
L10L
sg7
L830L
sa(dp19
g6
L10L
sg7
L879L
sass."
EndChar

StartChar: bar
Encoding: 95 124 96
GlifName: bar
Width: 360
VWidth: 0
Flags: MW
LayerCount: 2
Fore
SplineSet
140 -120 m 1
 140 900 l 1
 220 900 l 1
 220 -120 l 1
 140 -120 l 1
EndSplineSet
PickledDataWithLists: "(dp0
Vcom.fontlab.hintData
p1
(dp2
Vvhints
p3
(lp4
(dp5
Vwidth
p6
L10L
sVposition
p7
L131L
sa(dp8
g6
L10L
sg7
L209L
sa(dp9
g6
L10L
sg7
L216L
sasVhhints
p10
(lp11
(dp12
g6
L10L
sg7
L-92L
sa(dp13
g6
L10L
sg7
L882L
sass."
EndChar

StartChar: asciitilde
Encoding: 97 126 98
GlifName: asciitilde
Width: 600
VWidth: 0
Flags: MW
LayerCount: 2
Fore
SplineSet
52 329 m 1
 76 395 113 481 200 481 c 0
 258 481 296 442 324 414 c 0
 354 384 377 365 402 365 c 0
 444 365 474 420 488 469 c 1
 547 451 l 1
 525 385 485 299 399 299 c 0
 341 299 302 338 274 366 c 0
 244 396 223 415 198 415 c 0
 156 415 126 361 111 311 c 1
 52 329 l 1
EndSplineSet
PickledDataWithLists: "(dp0
Vcom.fontlab.hintData
p1
(dp2
Vvhints
p3
(lp4
(dp5
Vwidth
p6
L10L
sVposition
p7
L51L
sa(dp8
g6
L10L
sg7
L539L
sasVhhints
p9
(lp10
(dp11
g6
L10L
sg7
L249L
sa(dp12
g6
L10L
sg7
L260L
sa(dp13
g6
L10L
sg7
L311L
sa(dp14
g6
L10L
sg7
L359L
sa(dp15
g6
L10L
sg7
L411L
sa(dp16
g6
L10L
sg7
L421L
sass."
EndChar

StartChar: copyright
Encoding: 107 169 100
GlifName: copyright
Width: 1020
VWidth: 0
Flags: MW
LayerCount: 2
Fore
SplineSet
341 412 m 2
 341 504 381 608 517 608 c 0
 617 608 661 543 669 503 c 1
 607 497 l 1
 601 525 572 562 517 562 c 0
 441 562 404 504 404 412 c 2
 404 396 l 2
 404 304 441 244 517 244 c 0
 572 244 601 282 607 310 c 1
 669 304 l 1
 661 264 617 199 517 199 c 0
 381 199 341 304 341 396 c 2
 341 412 l 2
510 -4 m 0
 256 -4 93 171 93 405 c 0
 93 639 256 814 510 814 c 0
 764 814 927 639 927 405 c 0
 927 171 764 -4 510 -4 c 0
510 44 m 0
 730 44 873 191 873 405 c 0
 873 619 730 766 510 766 c 0
 290 766 147 619 147 405 c 0
 147 191 290 44 510 44 c 0
EndSplineSet
PickledDataWithLists: "(dp0
Vcom.fontlab.hintData
p1
(dp2
Vvhints
p3
(lp4
(dp5
Vwidth
p6
L10L
sVposition
p7
L83L
sa(dp8
g6
L10L
sg7
L147L
sa(dp9
g6
L10L
sg7
L315L
sa(dp10
g6
L10L
sg7
L395L
sa(dp11
g6
L10L
sg7
L565L
sa(dp12
g6
L10L
sg7
L645L
sa(dp13
g6
L10L
sg7
L661L
sa(dp14
g6
L10L
sg7
L798L
sa(dp15
g6
L10L
sg7
L863L
sa(dp16
g6
L10L
sg7
L927L
sasVhhints
p17
(lp18
(dp19
g6
L10L
sg7
L-27L
sa(dp20
g6
L10L
sg7
L17L
sa(dp21
g6
L10L
sg7
L170L
sa(dp22
g6
L10L
sg7
L224L
sa(dp23
g6
L10L
sg7
L283L
sa(dp24
g6
L10L
sg7
L472L
sa(dp25
g6
L10L
sg7
L549L
sa(dp26
g6
L10L
sg7
L603L
sa(dp27
g6
L10L
sg7
L773L
sa(dp28
g6
L10L
sg7
L817L
sass."
EndChar

StartChar: registered
Encoding: 112 174 101
GlifName: registered
Width: 870
VWidth: 0
Flags: MW
LayerCount: 2
Fore
SplineSet
435 270 m 0
 229 270 97 412 97 600 c 0
 97 788 229 930 435 930 c 0
 641 930 773 788 773 600 c 0
 773 412 641 270 435 270 c 0
435 308 m 0
 611 308 728 426 728 600 c 0
 728 774 611 892 435 892 c 0
 259 892 142 774 142 600 c 0
 142 426 259 308 435 308 c 0
412 560 m 1
 395 560 379 560 365 561 c 1
 365 400 l 1
 305 400 l 1
 305 564 l 1
 305 790 l 1
 314 790 375 794 435 794 c 0
 529 794 595 751 595 677 c 0
 595 614 548 574 477 563 c 1
 610 403 l 1
 610 400 l 1
 542 400 l 1
 412 560 l 1
365 605 m 1
 381 604 404 603 428 603 c 0
 488 603 535 621 535 677 c 0
 535 733 488 752 428 752 c 0
 404 752 381 751 365 750 c 1
 365 605 l 1
EndSplineSet
PickledDataWithLists: "(dp0
Vcom.fontlab.hintData
p1
(dp2
Vvhints
p3
(lp4
(dp5
Vwidth
p6
L10L
sVposition
p7
L90L
sa(dp8
g6
L10L
sg7
L140L
sa(dp9
g6
L10L
sg7
L263L
sa(dp10
g6
L10L
sg7
L301L
sa(dp11
g6
L10L
sg7
L303L
sa(dp12
g6
L10L
sg7
L363L
sa(dp13
g6
L10L
sg7
L480L
sa(dp14
g6
L10L
sg7
L544L
sa(dp15
g6
L10L
sg7
L557L
sa(dp16
g6
L10L
sg7
L628L
sa(dp17
g6
L10L
sg7
L677L
sa(dp18
g6
L10L
sg7
L727L
sasVhhints
p19
(lp20
(dp21
g6
L10L
sg7
L319L
sa(dp22
g6
L10L
sg7
L351L
sa(dp23
g6
L10L
sg7
L469L
sa(dp24
g6
L20L
sg7
L596L
sa(dp25
g6
L10L
sg7
L644L
sa(dp26
g6
L10L
sg7
L654L
sa(dp27
g6
L11L
sg7
L725L
sa(dp28
g6
L10L
sg7
L757L
sa(dp29
g6
L10L
sg7
L799L
sa(dp30
g6
L10L
sg7
L919L
sa(dp31
g6
L10L
sg7
L951L
sass."
EndChar

StartChar: guillemotleft
Encoding: 109 171 102
GlifName: guillemotleft
Width: 780
VWidth: 0
Flags: HMW
LayerCount: 2
Fore
SplineSet
82 342 m 1
 82 378 l 1
 380 638 l 1
 412 592 l 1
 178 360 l 1
 412 128 l 1
 380 82 l 1
 82 342 l 1
367 342 m 1
 367 378 l 1
 664 638 l 1
 697 592 l 1
 463 360 l 1
 697 128 l 1
 664 82 l 1
 367 342 l 1
EndSplineSet
PickledDataWithLists: "(dp0
Vcom.fontlab.hintData
p1
(dp2
Vvhints
p3
(lp4
(dp5
Vwidth
p6
L10L
sVposition
p7
L66L
sa(dp8
g6
L10L
sg7
L336L
sa(dp9
g6
L10L
sg7
L356L
sa(dp10
g6
L10L
sg7
L368L
sa(dp11
g6
L10L
sg7
L626L
sa(dp12
g6
L10L
sg7
L638L
sasVhhints
p13
(lp14
(dp15
g6
L10L
sg7
L65L
sa(dp16
g6
L10L
sg7
L605L
sass."
EndChar

StartChar: figuredash
Encoding: 706 8210 113
GlifName: figuredash
Width: 660
VWidth: 0
Flags: MW
LayerCount: 2
Fore
SplineSet
97 395 m 1
 563 395 l 1
 563 325 l 1
 97 325 l 1
 97 395 l 1
EndSplineSet
PickledDataWithLists: "(dp0
Vcom.fontlab.hintData
p1
(dp2
Vvhints
p3
(lp4
(dp5
Vwidth
p6
L10L
sVposition
p7
L105L
sa(dp8
g6
L10L
sg7
L604L
sasVhhints
p9
(lp10
(dp11
g6
L10L
sg7
L301L
sa(dp12
g6
L10L
sg7
L364L
sa(dp13
g6
L10L
sg7
L371L
sass."
EndChar

StartChar: emdash
Encoding: 708 8212 116
GlifName: emdash
Width: 1200
VWidth: 0
Flags: MW
LayerCount: 2
Fore
SplineSet
97 395 m 1
 1103 395 l 1
 1103 325 l 1
 97 325 l 1
 97 395 l 1
EndSplineSet
PickledDataWithLists: "(dp0
Vcom.fontlab.hintData
p1
(dp2
Vvhints
p3
(lp4
(dp5
Vwidth
p6
L10L
sVposition
p7
L90L
sa(dp8
g6
L10L
sg7
L1099L
sasVhhints
p9
(lp10
(dp11
g6
L10L
sg7
L299L
sa(dp12
g6
L10L
sg7
L304L
sa(dp13
g6
L10L
sg7
L309L
sa(dp14
g6
L10L
sg7
L361L
sa(dp15
g6
L10L
sg7
L366L
sa(dp16
g6
L10L
sg7
L371L
sass."
EndChar

StartChar: bullet
Encoding: 718 8226 121
GlifName: bullet
Width: 660
VWidth: 0
Flags: MW
LayerCount: 2
Fore
SplineSet
206 360 m 0
 206 430 260 475 330 475 c 0
 400 475 454 430 454 360 c 0
 454 290 400 245 330 245 c 0
 260 245 206 290 206 360 c 0
EndSplineSet
PickledDataWithLists: "(dp0
Vcom.fontlab.hintData
p1
(dp2
Vvhints
p3
(lp4
(dp5
Vwidth
p6
L10L
sVposition
p7
L231L
sa(dp8
g6
L10L
sg7
L479L
sasVhhints
p9
(lp10
(dp11
g6
L10L
sg7
L234L
sa(dp12
g6
L10L
sg7
L456L
sass."
EndChar

StartChar: Euro
Encoding: 756 8364 124
GlifName: E_uro
Width: 660
VWidth: 0
Flags: MW
LayerCount: 2
Fore
SplineSet
22 438 m 1
 22 492 l 1
 96 492 l 1
 113 649 182 798 368 798 c 0
 531 798 596 667 607 593 c 1
 518 584 l 1
 508 651 456 729 368 729 c 0
 265 729 204 638 187 492 c 1
 472 492 l 1
 472 438 l 1
 183 438 l 1
 183 428 182 418 182 407 c 2
 182 373 l 2
 182 362 183 352 183 342 c 1
 472 342 l 1
 472 288 l 1
 187 288 l 1
 204 142 265 51 368 51 c 0
 456 51 508 129 518 196 c 1
 607 187 l 1
 596 113 531 -18 368 -18 c 0
 182 -18 113 131 96 288 c 1
 22 288 l 1
 22 342 l 1
 93 342 l 1
 93 352 92 363 92 373 c 2
 92 407 l 2
 92 417 93 428 93 438 c 1
 22 438 l 1
EndSplineSet
PickledDataWithLists: "(dp0
Vcom.fontlab.hintData
p1
(dp2
Vvhints
p3
(lp4
(dp5
Vwidth
p6
L10L
sVposition
p7
L21L
sa(dp8
g6
L10L
sg7
L115L
sa(dp9
g6
L10L
sg7
L203L
sa(dp10
g6
L10L
sg7
L484L
sa(dp11
g6
L10L
sg7
L659L
sasVhhints
p12
(lp13
(dp14
g6
L10L
sg7
L-15L
sa(dp15
g6
L9L
sg7
L48L
sa(dp16
g6
L10L
sg7
L165L
sa(dp17
g6
L10L
sg7
L268L
sa(dp18
g6
L10L
sg7
L323L
sa(dp19
g6
L10L
sg7
L448L
sa(dp20
g6
L10L
sg7
L453L
sa(dp21
g6
L10L
sg7
L503L
sa(dp22
g6
L10L
sg7
L590L
sa(dp23
g6
L10L
sg7
L745L
sa(dp24
g6
L10L
sg7
L806L
sass."
EndChar

StartChar: trademark
Encoding: 767 8482 125
GlifName: trademark
Width: 765
VWidth: 0
Flags: MW
LayerCount: 2
Fore
SplineSet
18 856 m 1
 18 900 l 1
 298 900 l 1
 298 856 l 1
 188 856 l 1
 188 510 l 1
 128 510 l 1
 128 856 l 1
 18 856 l 1
715 510 m 1
 656 510 l 1
 656 787 l 1
 554 608 l 1
 526 608 l 1
 424 787 l 1
 424 510 l 1
 365 510 l 1
 365 894 l 1
 415 900 l 1
 540 669 l 1
 665 900 l 1
 715 894 l 1
 715 510 l 1
EndSplineSet
PickledDataWithLists: "(dp0
Vcom.fontlab.hintData
p1
(dp2
Vvhints
p3
(lp4
(dp5
Vwidth
p6
L10L
sVposition
p7
L39L
sa(dp8
g6
L10L
sg7
L180L
sa(dp9
g6
L10L
sg7
L251L
sa(dp10
g6
L10L
sg7
L383L
sa(dp11
g6
L10L
sg7
L421L
sa(dp12
g6
L10L
sg7
L440L
sa(dp13
g6
L10L
sg7
L504L
sa(dp14
g6
L10L
sg7
L735L
sa(dp15
g6
L10L
sg7
L800L
sa(dp16
g6
L10L
sg7
L819L
sasVhhints
p17
(lp18
(dp19
g6
L10L
sg7
L381L
sa(dp20
g6
L10L
sg7
L390L
sa(dp21
g6
L10L
sg7
L395L
sa(dp22
g6
L10L
sg7
L473L
sa(dp23
g6
L10L
sg7
L745L
sa(dp24
g6
L10L
sg7
L751L
sa(dp25
g6
L10L
sg7
L803L
sass."
EndChar

StartChar: uni25CC
Encoding: 806 9676 126
GlifName: uni25C_C_
Width: 720
VWidth: 0
GlyphClass: 2
Flags: MW
AnchorPoint: "LatinCedilla.mark" 380 0 basechar 0
AnchorPoint: "LatinBelow.mark" 360 0 basechar 0
AnchorPoint: "LatinAbove.mark" 360 0 basechar 0
LayerCount: 2
Fore
SplineSet
390 15 m 0
 390 -2 377 -15 360 -15 c 0
 343 -15 330 -2 330 15 c 0
 330 32 343 45 360 45 c 0
 377 45 390 32 390 15 c 0
390 585 m 0
 390 568 377 555 360 555 c 0
 343 555 330 568 330 585 c 0
 330 602 343 615 360 615 c 0
 377 615 390 602 390 585 c 0
645 330 m 0
 662 330 675 317 675 300 c 0
 675 283 662 270 645 270 c 0
 628 270 615 283 615 300 c 0
 615 317 628 330 645 330 c 0
75 330 m 0
 92 330 105 317 105 300 c 0
 105 283 92 270 75 270 c 0
 58 270 45 283 45 300 c 0
 45 317 58 330 75 330 c 0
97 439 m 0
 114 439 127 426 127 409 c 0
 127 392 114 379 97 379 c 0
 80 379 67 392 67 409 c 0
 67 426 80 439 97 439 c 0
97 221 m 0
 114 221 127 208 127 191 c 0
 127 174 114 161 97 161 c 0
 80 161 67 174 67 191 c 0
 67 208 80 221 97 221 c 0
623 439 m 0
 640 439 653 426 653 409 c 0
 653 392 640 379 623 379 c 0
 606 379 593 392 593 409 c 0
 593 426 606 439 623 439 c 0
623 221 m 0
 640 221 653 208 653 191 c 0
 653 174 640 161 623 161 c 0
 606 161 593 174 593 191 c 0
 593 208 606 221 623 221 c 0
158 531 m 0
 175 531 188 518 188 501 c 0
 188 484 175 471 158 471 c 0
 141 471 128 484 128 501 c 0
 128 518 141 531 158 531 c 0
561 531 m 0
 578 531 591 518 591 501 c 0
 591 484 578 471 561 471 c 0
 544 471 531 484 531 501 c 0
 531 518 544 531 561 531 c 0
158 128 m 0
 175 128 188 115 188 98 c 0
 188 81 175 68 158 68 c 0
 141 68 128 81 128 98 c 0
 128 115 141 128 158 128 c 0
561 128 m 0
 578 128 591 115 591 98 c 0
 591 81 578 68 561 68 c 0
 544 68 531 81 531 98 c 0
 531 115 544 128 561 128 c 0
469 67 m 0
 486 67 499 54 499 37 c 0
 499 20 486 7 469 7 c 0
 452 7 439 20 439 37 c 0
 439 54 452 67 469 67 c 0
251 67 m 0
 268 67 281 54 281 37 c 0
 281 20 268 7 251 7 c 0
 234 7 221 20 221 37 c 0
 221 54 234 67 251 67 c 0
469 593 m 0
 486 593 499 580 499 563 c 0
 499 546 486 533 469 533 c 0
 452 533 439 546 439 563 c 0
 439 580 452 593 469 593 c 0
251 593 m 0
 268 593 281 580 281 563 c 0
 281 546 268 533 251 533 c 0
 234 533 221 546 221 563 c 0
 221 580 234 593 251 593 c 0
EndSplineSet
PickledDataWithLists: "(dp0
Vcom.fontlab.hintData
p1
(dp2
Vvhints
p3
(lp4
(dp5
Vwidth
p6
L10L
sVposition
p7
L40L
sa(dp8
g6
L10L
sg7
L76L
sa(dp9
g6
L10L
sg7
L90L
sa(dp10
g6
L10L
sg7
L132L
sa(dp11
g6
L10L
sg7
L180L
sa(dp12
g6
L10L
sg7
L238L
sa(dp13
g6
L10L
sg7
L325L
sa(dp14
g6
L10L
sg7
L385L
sa(dp15
g6
L10L
sg7
L472L
sa(dp16
g6
L10L
sg7
L528L
sa(dp17
g6
L10L
sg7
L581L
sa(dp18
g6
L10L
sg7
L620L
sa(dp19
g6
L10L
sg7
L631L
sa(dp20
g6
L10L
sg7
L670L
sasVhhints
p21
(lp22
(dp23
g6
L10L
sg7
L-20L
sa(dp24
g6
L10L
sg7
L16L
sa(dp25
g6
L10L
sg7
L30L
sa(dp26
g6
L10L
sg7
L69L
sa(dp27
g6
L10L
sg7
L122L
sa(dp28
g6
L10L
sg7
L178L
sa(dp29
g6
L10L
sg7
L265L
sa(dp30
g6
L10L
sg7
L325L
sa(dp31
g6
L10L
sg7
L410L
sa(dp32
g6
L10L
sg7
L468L
sa(dp33
g6
L10L
sg7
L518L
sa(dp34
g6
L10L
sg7
L560L
sa(dp35
g6
L10L
sg7
L574L
sa(dp36
g6
L10L
sg7
L610L
sass."
Colour: ff00
EndChar

StartChar: uni0E01
Encoding: 401 3585 127
GlifName: uni0E_01
Width: 655
VWidth: 0
GlyphClass: 2
Flags: MW
LayerCount: 2
Fore
SplineSet
108 0 m 25
 108 297 l 2
 108 350 134 382 178 396 c 1
 57 419 l 1
 71 523 157 618 315 618 c 0
 471 618 572 529 572 403 c 2
 572 0 l 1
 487 0 l 1
 487 403 l 2
 487 503 418 554 315 554 c 0
 226 554 168 510 148 441 c 1
 299 411 l 1
 290 374 l 2
 287 374 268 377 258 377 c 0
 215 377 193 353 193 305 c 2
 193 0 l 25
 108 0 l 25
EndSplineSet
PickledDataWithLists: "(dp0
Vcom.fontlab.hintData
p1
(dp2
Vvhints
p3
(lp4
(dp5
Vwidth
p6
L10L
sVposition
p7
L91L
sa(dp8
g6
L10L
sg7
L105L
sa(dp9
g6
L10L
sg7
L179L
sa(dp10
g6
L10L
sg7
L193L
sa(dp11
g6
L10L
sg7
L467L
sa(dp12
g6
L10L
sg7
L476L
sa(dp13
g6
L10L
sg7
L559L
sa(dp14
g6
L10L
sg7
L564L
sasVhhints
p15
(lp16
(dp17
g6
L10L
sg7
L-16L
sa(dp18
g6
L10L
sg7
L4L
sa(dp19
g6
L10L
sg7
L544L
sa(dp20
g6
L10L
sg7
L606L
sass."
EndChar

StartChar: uni0E02
Encoding: 402 3586 128
GlifName: uni0E_02
Width: 635
VWidth: 0
GlyphClass: 2
Flags: MW
LayerCount: 2
Fore
SplineSet
126 528 m 0
 95 528 74 506 74 476 c 0
 74 446 95 424 126 424 c 0
 157 424 178 446 178 476 c 0
 178 506 157 528 126 528 c 0
23 476 m 0
 23 548 85 612 195 612 c 0
 303 612 368 555 368 469 c 0
 368 323 208 293 208 155 c 0
 208 85 261 46 335 46 c 0
 408 46 463 87 463 174 c 2
 463 600 l 1
 548 600 l 1
 548 174 l 2
 548 66 467 -18 335 -18 c 0
 205 -18 123 53 123 149 c 0
 123 323 304 344 304 474 c 0
 304 534 260 567 187 567 c 0
 179 567 172 567 165 566 c 1
 204 553 229 520 229 476 c 0
 229 419 186 380 126 380 c 0
 66 380 23 419 23 476 c 0
EndSplineSet
PickledDataWithLists: "(dp0
Vcom.fontlab.hintData
p1
(dp2
Vvhints
p3
(lp4
(dp5
Vwidth
p6
L10L
sVposition
p7
L14L
sa(dp8
g6
L10L
sg7
L547L
sasVhhints
p9
(lp10
(dp11
g6
L10L
sg7
L-19L
sa(dp12
g6
L10L
sg7
L432L
sa(dp13
g6
L10L
sg7
L584L
sa(dp14
g6
L10L
sg7
L594L
sass."
EndChar

StartChar: uni0E03
Encoding: 403 3587 129
GlifName: uni0E_03
Width: 635
VWidth: 0
GlyphClass: 2
Flags: MW
LayerCount: 2
Fore
SplineSet
125 564 m 0
 94 564 73 542 73 512 c 0
 73 482 94 460 125 460 c 0
 156 460 177 482 177 512 c 0
 177 542 156 564 125 564 c 0
122 148 m 0
 122 322 306 350 306 490 c 0
 306 495 306 500 306 504 c 1
 280 448 232 405 147 405 c 0
 63 405 22 451 22 512 c 0
 22 569 65 608 125 608 c 0
 185 608 228 569 228 512 c 0
 228 490 222 471 211 456 c 1
 258 484 287 541 297 599 c 1
 330 603 l 1
 348 575 368 538 368 480 c 0
 368 334 207 292 207 154 c 0
 207 84 261 46 335 46 c 0
 408 46 462 86 462 173 c 2
 462 600 l 1
 547 600 l 1
 547 173 l 2
 547 65 467 -18 335 -18 c 0
 205 -18 122 52 122 148 c 0
EndSplineSet
PickledDataWithLists: "(dp0
Vcom.fontlab.hintData
p1
(dp2
Vvhints
p3
(lp4
(dp5
Vwidth
p6
L10L
sVposition
p7
L11L
sa(dp8
g6
L10L
sg7
L224L
sa(dp9
g6
L10L
sg7
L230L
sa(dp10
g6
L10L
sg7
L297L
sasVhhints
p11
(lp12
(dp13
g6
L10L
sg7
L-24L
sa(dp14
g6
L10L
sg7
L400L
sa(dp15
g6
L10L
sg7
L584L
sa(dp16
g6
L10L
sg7
L603L
sass."
EndChar

StartChar: uni0E04
Encoding: 404 3588 130
GlifName: uni0E_04
Width: 665
VWidth: 0
GlyphClass: 2
Flags: MW
LayerCount: 2
Fore
SplineSet
330 373 m 0
 299 373 278 351 278 321 c 0
 278 291 299 269 330 269 c 0
 361 269 382 291 382 321 c 0
 382 351 361 373 330 373 c 0
330 417 m 0
 390 417 434 378 434 321 c 0
 434 264 390 225 330 225 c 0
 288 225 255 244 239 275 c 1
 216 234 197 178 190 105 c 1
 186 0 l 1
 93 0 l 1
 93 0 103 73 103 120 c 0
 103 224 78 249 78 403 c 0
 78 529 177 618 330 618 c 0
 483 618 583 529 583 403 c 2
 583 0 l 1
 498 0 l 1
 498 105 l 2
 498 145 501 307 501 403 c 0
 501 503 432 554 330 554 c 0
 228 554 160 503 160 403 c 0
 160 307 166 255 171 214 c 1
 188 286 217 352 258 389 c 0
 276 406 300 417 330 417 c 0
EndSplineSet
PickledDataWithLists: "(dp0
Vcom.fontlab.hintData
p1
(dp2
Vvhints
p3
(lp4
(dp5
Vwidth
p6
L10L
sVposition
p7
L59L
sa(dp8
g6
L10L
sg7
L142L
sa(dp9
g6
L10L
sg7
L381L
sa(dp10
g6
L10L
sg7
L439L
sa(dp11
g6
L10L
sg7
L508L
sa(dp12
g6
L10L
sg7
L590L
sasVhhints
p13
(lp14
(dp15
g6
L10L
sg7
L-19L
sa(dp16
g6
L10L
sg7
L-4L
sa(dp17
g6
L10L
sg7
L363L
sa(dp18
g6
L10L
sg7
L551L
sa(dp19
g6
L10L
sg7
L608L
sass."
EndChar

StartChar: uni0E05
Encoding: 405 3589 131
GlifName: uni0E_05
Width: 665
VWidth: 0
GlyphClass: 2
Flags: MW
LayerCount: 2
Fore
SplineSet
330 373 m 0
 299 373 278 351 278 321 c 0
 278 291 299 269 330 269 c 0
 361 269 382 291 382 321 c 0
 382 351 361 373 330 373 c 0
330 417 m 0
 390 417 434 378 434 321 c 0
 434 264 390 225 330 225 c 0
 288 225 255 244 239 275 c 1
 216 234 197 178 190 105 c 1
 186 0 l 1
 93 0 l 1
 93 0 103 73 103 120 c 0
 103 224 78 249 78 403 c 0
 78 487 106 612 239 612 c 1
 330 530 l 1
 421 612 l 1
 554 612 583 487 583 403 c 2
 583 0 l 1
 498 0 l 1
 498 105 l 2
 498 145 501 307 501 403 c 0
 501 492 474 545 428 551 c 1
 340 477 l 1
 330 477 l 1
 320 477 l 1
 232 551 l 1
 185 545 157 492 157 403 c 0
 157 305 165 254 170 213 c 1
 187 285 217 352 258 389 c 0
 276 406 300 417 330 417 c 0
EndSplineSet
PickledDataWithLists: "(dp0
Vcom.fontlab.hintData
p1
(dp2
Vvhints
p3
(lp4
(dp5
Vwidth
p6
L10L
sVposition
p7
L60L
sa(dp8
g6
L10L
sg7
L142L
sa(dp9
g6
L10L
sg7
L444L
sa(dp10
g6
L10L
sg7
L508L
sa(dp11
g6
L10L
sg7
L590L
sasVhhints
p12
(lp13
(dp14
g6
L10L
sg7
L-18L
sa(dp15
g6
L10L
sg7
L-4L
sa(dp16
g6
L10L
sg7
L363L
sa(dp17
g6
L10L
sg7
L469L
sa(dp18
g6
L10L
sg7
L549L
sa(dp19
g6
L10L
sg7
L606L
sass."
EndChar

StartChar: uni0E06
Encoding: 406 3590 132
GlifName: uni0E_06
Width: 650
VWidth: 0
GlyphClass: 2
Flags: MW
LayerCount: 2
Fore
SplineSet
161 140 m 0
 130 140 109 118 109 88 c 0
 109 58 130 36 161 36 c 0
 192 36 213 58 213 88 c 0
 213 118 192 140 161 140 c 0
136 564 m 0
 105 564 84 542 84 512 c 0
 84 482 105 460 136 460 c 0
 167 460 188 482 188 512 c 0
 188 542 167 564 136 564 c 0
136 608 m 0
 196 608 239 569 239 512 c 0
 239 490 233 471 222 456 c 1
 269 484 298 541 308 599 c 1
 340 603 l 1
 358 575 378 538 378 480 c 0
 378 344 240 299 220 184 c 1
 336 176 419 127 476 76 c 1
 475 106 473 140 473 170 c 2
 473 600 l 1
 558 600 l 1
 558 0 l 1
 480 0 l 1
 433 57 355 115 255 130 c 1
 261 118 264 103 264 88 c 0
 264 31 221 -8 161 -8 c 0
 101 -8 58 31 58 88 c 0
 58 136 89 171 135 181 c 1
 157 324 317 359 317 490 c 0
 317 495 317 500 317 504 c 1
 291 448 243 405 158 405 c 0
 74 405 33 451 33 512 c 0
 33 569 76 608 136 608 c 0
EndSplineSet
PickledDataWithLists: "(dp0
Vcom.fontlab.hintData
p1
(dp2
Vvhints
p3
(lp4
(dp5
Vwidth
p6
L10L
sVposition
p7
L11L
sa(dp8
g6
L10L
sg7
L35L
sa(dp9
g6
L10L
sg7
L110L
sa(dp10
g6
L10L
sg7
L239L
sa(dp11
g6
L10L
sg7
L251L
sa(dp12
g6
L10L
sg7
L317L
sa(dp13
g6
L10L
sg7
L325L
sa(dp14
g6
L10L
sg7
L486L
sa(dp15
g6
L10L
sg7
L494L
sa(dp16
g6
L10L
sg7
L566L
sa(dp17
g6
L10L
sg7
L576L
sasVhhints
p18
(lp19
(dp20
g6
L10L
sg7
L-27L
sa(dp21
g6
L10L
sg7
L223L
sa(dp22
g6
L10L
sg7
L277L
sa(dp23
g6
L10L
sg7
L403L
sa(dp24
g6
L10L
sg7
L598L
sa(dp25
g6
L10L
sg7
L608L
sass."
EndChar

StartChar: uni0E07
Encoding: 407 3591 133
GlifName: uni0E_07
Width: 525
VWidth: 0
GlyphClass: 2
Flags: MW
AnchorPoint: "ThaiAbove.mark" 545 0 basechar 0
LayerCount: 2
Fore
SplineSet
306 564 m 0
 275 564 254 542 254 512 c 0
 254 482 275 460 306 460 c 0
 337 460 358 482 358 512 c 0
 358 542 337 564 306 564 c 0
18 333 m 1
 70 381 l 1
 366 68 l 1
 360 86 353 117 353 150 c 2
 353 308 l 2
 353 370 365 392 369 434 c 1
 352 422 331 416 306 416 c 0
 246 416 203 455 203 512 c 0
 203 569 246 608 306 608 c 0
 396 608 443 554 443 467 c 0
 443 410 436 371 436 300 c 2
 436 0 l 1
 345 0 l 1
 18 333 l 1
EndSplineSet
PickledDataWithLists: "(dp0
Vcom.fontlab.hintData
p1
(dp2
Vvhints
p3
(lp4
(dp5
Vwidth
p6
L10L
sVposition
p7
L41L
sa(dp8
g6
L10L
sg7
L151L
sa(dp9
g6
L10L
sg7
L381L
sa(dp10
g6
L10L
sg7
L469L
sasVhhints
p11
(lp12
(dp13
g6
L10L
sg7
L-26L
sa(dp14
g6
L10L
sg7
L355L
sa(dp15
g6
L10L
sg7
L504L
sa(dp16
g6
L10L
sg7
L549L
sa(dp17
g6
L10L
sg7
L611L
sass."
EndChar

StartChar: uni0E08
Encoding: 408 3592 134
GlifName: uni0E_08
Width: 590
VWidth: 0
GlyphClass: 2
Flags: MW
AnchorPoint: "ThaiBelow.mark" 560 0 basechar 0
LayerCount: 2
Fore
SplineSet
38 434 m 1
 50 530 129 618 275 618 c 0
 418 618 513 536 513 420 c 0
 513 268 453 198 453 90 c 2
 453 0 l 1
 361 0 l 1
 355 87 332 171 297 226 c 1
 282 191 246 168 201 168 c 0
 141 168 98 207 98 264 c 0
 98 321 141 360 201 360 c 0
 308 360 362 245 386 132 c 1
 389 236 428 289 428 420 c 0
 428 510 366 554 275 554 c 0
 187 554 133 506 123 428 c 1
 38 434 l 1
201 212 m 0
 232 212 253 234 253 264 c 0
 253 294 232 316 201 316 c 0
 170 316 149 294 149 264 c 0
 149 234 170 212 201 212 c 0
EndSplineSet
PickledDataWithLists: "(dp0
Vcom.fontlab.hintData
p1
(dp2
Vvhints
p3
(lp4
(dp5
Vwidth
p6
L10L
sVposition
p7
L31L
sa(dp8
g6
L10L
sg7
L101L
sa(dp9
g6
L10L
sg7
L444L
sa(dp10
g6
L10L
sg7
L529L
sasVhhints
p11
(lp12
(dp13
g6
L10L
sg7
L-11L
sa(dp14
g6
L10L
sg7
L229L
sa(dp15
g6
L10L
sg7
L307L
sa(dp16
g6
L10L
sg7
L429L
sa(dp17
g6
L9L
sg7
L552L
sa(dp18
g6
L10L
sg7
L614L
sass."
EndChar

StartChar: uni0E09
Encoding: 409 3593 135
GlifName: uni0E_09
Width: 645
VWidth: 0
GlyphClass: 2
Flags: MW
LayerCount: 2
Fore
SplineSet
148 0 m 1
 148 114 l 2
 148 136 154 154 162 168 c 1
 160 168 157 168 155 168 c 0
 95 168 52 207 52 264 c 0
 52 321 95 360 155 360 c 0
 215 360 258 321 258 264 c 0
 258 210 230 189 230 135 c 2
 230 74 l 1
 282 128 354 182 455 187 c 1
 462 196 467 205 467 218 c 2
 467 412 l 2
 467 507 403 554 305 554 c 0
 210 554 154 502 142 420 c 1
 57 426 l 1
 71 526 153 618 305 618 c 0
 454 618 552 534 552 412 c 2
 552 232 l 2
 552 209 539 192 522 180 c 1
 565 169 594 135 594 88 c 0
 594 31 551 -8 491 -8 c 0
 431 -8 388 31 388 88 c 0
 388 102 390 115 395 126 c 1
 324 104 267 52 226 0 c 1
 148 0 l 1
491 140 m 0
 460 140 439 118 439 88 c 0
 439 58 460 36 491 36 c 0
 522 36 543 58 543 88 c 0
 543 118 522 140 491 140 c 0
155 316 m 0
 124 316 103 294 103 264 c 0
 103 234 124 212 155 212 c 0
 186 212 207 234 207 264 c 0
 207 294 186 316 155 316 c 0
EndSplineSet
PickledDataWithLists: "(dp0
Vcom.fontlab.hintData
p1
(dp2
Vvhints
p3
(lp4
(dp5
Vwidth
p6
L10L
sVposition
p7
L33L
sa(dp8
g6
L10L
sg7
L87L
sa(dp9
g6
L10L
sg7
L156L
sa(dp10
g6
L10L
sg7
L410L
sa(dp11
g6
L10L
sg7
L426L
sa(dp12
g6
L10L
sg7
L480L
sa(dp13
g6
L10L
sg7
L498L
sa(dp14
g6
L10L
sg7
L570L
sa(dp15
g6
L10L
sg7
L640L
sasVhhints
p16
(lp17
(dp18
g6
L10L
sg7
L-19L
sa(dp19
g6
L10L
sg7
L29L
sa(dp20
g6
L10L
sg7
L231L
sa(dp21
g6
L10L
sg7
L279L
sa(dp22
g6
L10L
sg7
L318L
sa(dp23
g6
L10L
sg7
L431L
sa(dp24
g6
L10L
sg7
L557L
sa(dp25
g6
L10L
sg7
L616L
sass."
EndChar

StartChar: uni0E0A
Encoding: 410 3594 136
GlifName: uni0E_0A_
Width: 640
VWidth: 0
GlyphClass: 2
Flags: MW
LayerCount: 2
Fore
SplineSet
126 528 m 0
 95 528 74 506 74 476 c 0
 74 446 95 424 126 424 c 0
 157 424 178 446 178 476 c 0
 178 506 157 528 126 528 c 0
368 479 m 1
 455 489 510 541 514 622 c 1
 598 615 l 1
 594 539 534 479 451 456 c 1
 507 442 548 412 548 360 c 2
 548 174 l 2
 548 66 467 -18 335 -18 c 0
 205 -18 123 53 123 149 c 0
 123 323 304 344 304 474 c 0
 304 534 260 567 187 567 c 0
 179 567 172 567 165 566 c 1
 204 553 229 520 229 476 c 0
 229 419 186 380 126 380 c 0
 66 380 23 419 23 476 c 0
 23 548 85 612 195 612 c 0
 299 612 363 559 368 479 c 1
364 432 m 1
 340 317 208 280 208 155 c 0
 208 85 261 46 335 46 c 0
 408 46 463 87 463 174 c 2
 463 360 l 2
 463 400 436 427 364 432 c 1
EndSplineSet
PickledDataWithLists: "(dp0
Vcom.fontlab.hintData
p1
(dp2
Vvhints
p3
(lp4
(dp5
Vwidth
p6
L10L
sVposition
p7
L44L
sa(dp8
g6
L10L
sg7
L186L
sa(dp9
g6
L10L
sg7
L197L
sa(dp10
g6
L10L
sg7
L268L
sa(dp11
g6
L10L
sg7
L279L
sa(dp12
g6
L10L
sg7
L473L
sa(dp13
g6
L10L
sg7
L555L
sa(dp14
g6
L10L
sg7
L586L
sasVhhints
p15
(lp16
(dp17
g6
L10L
sg7
L-29L
sa(dp18
g6
L10L
sg7
L29L
sa(dp19
g6
L10L
sg7
L437L
sa(dp20
g6
L10L
sg7
L599L
sa(dp21
g6
L10L
sg7
L644L
sass."
EndChar

StartChar: uni0E0B
Encoding: 411 3595 137
GlifName: uni0E_0B_
Width: 640
VWidth: 0
GlyphClass: 2
Flags: MW
LayerCount: 2
Fore
SplineSet
122 148 m 0
 122 322 306 350 306 490 c 0
 306 495 306 500 306 504 c 1
 280 448 232 405 147 405 c 0
 63 405 22 451 22 512 c 0
 22 569 65 608 125 608 c 0
 185 608 228 569 228 512 c 0
 228 490 222 471 211 456 c 1
 258 484 287 541 297 599 c 1
 330 603 l 1
 348 575 368 538 368 480 c 0
 368 479 l 1
 455 490 509 541 513 622 c 1
 597 615 l 1
 593 539 533 479 450 456 c 1
 506 442 547 412 547 360 c 2
 547 173 l 2
 547 65 467 -18 335 -18 c 0
 205 -18 122 52 122 148 c 0
125 564 m 0
 94 564 73 542 73 512 c 0
 73 482 94 460 125 460 c 0
 156 460 177 482 177 512 c 0
 177 542 156 564 125 564 c 0
462 360 m 2
 462 400 435 427 362 432 c 1
 332 323 207 276 207 154 c 0
 207 84 261 46 335 46 c 0
 408 46 462 86 462 173 c 2
 462 360 l 2
EndSplineSet
PickledDataWithLists: "(dp0
Vcom.fontlab.hintData
p1
(dp2
Vvhints
p3
(lp4
(dp5
Vwidth
p6
L10L
sVposition
p7
L11L
sa(dp8
g6
L10L
sg7
L199L
sa(dp9
g6
L10L
sg7
L226L
sa(dp10
g6
L10L
sg7
L278L
sa(dp11
g6
L10L
sg7
L296L
sa(dp12
g6
L10L
sg7
L474L
sa(dp13
g6
L10L
sg7
L556L
sa(dp14
g6
L10L
sg7
L586L
sasVhhints
p15
(lp16
(dp17
g6
L10L
sg7
L-24L
sa(dp18
g6
L10L
sg7
L34L
sa(dp19
g6
L10L
sg7
L398L
sa(dp20
g6
L10L
sg7
L603L
sa(dp21
g6
L10L
sg7
L608L
sa(dp22
g6
L10L
sg7
L644L
sass."
EndChar

StartChar: uni0E0C
Encoding: 412 3596 138
GlifName: uni0E_0C_
Width: 950
VWidth: 0
GlyphClass: 2
Flags: MW
LayerCount: 2
Fore
SplineSet
198 140 m 0
 167 140 146 118 146 88 c 0
 146 58 167 36 198 36 c 0
 229 36 250 58 250 88 c 0
 250 118 229 140 198 140 c 0
198 184 m 0
 258 184 301 145 301 88 c 0
 301 31 258 -8 198 -8 c 0
 138 -8 95 31 95 88 c 0
 95 134 108 166 108 210 c 2
 108 297 l 2
 108 350 134 382 178 396 c 1
 57 419 l 1
 71 523 157 618 315 618 c 0
 471 618 572 529 572 403 c 2
 572 218 l 2
 572 203 574 190 576 179 c 1
 666 169 730 123 775 75 c 1
 774 105 772 140 772 170 c 2
 772 600 l 1
 857 600 l 1
 857 0 l 1
 779 0 l 1
 735 58 674 113 590 127 c 1
 592 116 594 103 594 88 c 0
 594 31 551 -8 491 -8 c 0
 431 -8 388 31 388 88 c 0
 388 145 431 184 491 184 c 0
 494 184 498 184 501 184 c 1
 493 199 487 217 487 240 c 2
 487 403 l 2
 487 503 418 554 315 554 c 0
 226 554 168 510 148 441 c 1
 299 411 l 1
 290 374 l 2
 287 374 268 377 258 377 c 0
 215 377 193 353 193 305 c 2
 193 240 l 2
 193 217 189 198 182 183 c 1
 187 184 192 184 198 184 c 0
491 140 m 0
 460 140 439 118 439 88 c 0
 439 58 460 36 491 36 c 0
 522 36 543 58 543 88 c 0
 543 118 522 140 491 140 c 0
EndSplineSet
PickledDataWithLists: "(dp0
Vcom.fontlab.hintData
p1
(dp2
Vvhints
p3
(lp4
(dp5
Vwidth
p6
L10L
sVposition
p7
L84L
sa(dp8
g6
L10L
sg7
L93L
sa(dp9
g6
L10L
sg7
L114L
sa(dp10
g6
L10L
sg7
L166L
sa(dp11
g6
L10L
sg7
L196L
sa(dp12
g6
L10L
sg7
L343L
sa(dp13
g6
L10L
sg7
L414L
sa(dp14
g6
L10L
sg7
L502L
sa(dp15
g6
L10L
sg7
L507L
sa(dp16
g6
L10L
sg7
L576L
sa(dp17
g6
L10L
sg7
L780L
sa(dp18
g6
L10L
sg7
L789L
sa(dp19
g6
L10L
sg7
L861L
sa(dp20
g6
L10L
sg7
L871L
sasVhhints
p21
(lp22
(dp23
g6
L10L
sg7
L-26L
sa(dp24
g6
L10L
sg7
L-17L
sa(dp25
g6
L10L
sg7
L41L
sa(dp26
g6
L10L
sg7
L234L
sa(dp27
g6
L10L
sg7
L286L
sa(dp28
g6
L10L
sg7
L546L
sa(dp29
g6
L10L
sg7
L593L
sa(dp30
g6
L10L
sg7
L604L
sass."
EndChar

StartChar: uni0E0D
Encoding: 413 3597 139
GlifName: uni0E_0D_
Width: 950
VWidth: 0
GlyphClass: 2
Flags: HMW
LayerCount: 2
Fore
SplineSet
577 -109 m 0
 553 -109 536 -126 536 -150 c 0
 536 -174 553 -191 577 -191 c 0
 601 -191 618 -174 618 -150 c 0
 618 -126 601 -109 577 -109 c 0
577 -71 m 0
 627 -71 662 -102 662 -150 c 0
 662 -176 652 -197 634 -211 c 1
 640 -211 646 -211 652 -211 c 2
 677 -211 l 2
 741 -211 792 -178 792 -84 c 1
 857 -91 l 1
 857 -193 787 -254 687 -254 c 2
 632 -254 l 2
 546 -254 492 -216 492 -150 c 0
 492 -102 527 -71 577 -71 c 0
EndSplineSet
Refer: 140 63642 S 1 0 0 1 0 0 2
PickledDataWithLists: "(dp0
Vcom.fontlab.hintData
p1
(dp2
Vvhints
p3
(lp4
(dp5
Vwidth
p6
L10L
sVposition
p7
L81L
sa(dp8
g6
L10L
sg7
L101L
sa(dp9
g6
L10L
sg7
L169L
sa(dp10
g6
L10L
sg7
L189L
sa(dp11
g6
L10L
sg7
L315L
sa(dp12
g6
L10L
sg7
L471L
sa(dp13
g6
L10L
sg7
L476L
sa(dp14
g6
L10L
sg7
L513L
sa(dp15
g6
L10L
sg7
L559L
sa(dp16
g6
L10L
sg7
L564L
sa(dp17
g6
L10L
sg7
L591L
sa(dp18
g6
L10L
sg7
L771L
sa(dp19
g6
L10L
sg7
L781L
sa(dp20
g6
L10L
sg7
L859L
sa(dp21
g6
L10L
sg7
L869L
sa(dp22
g6
L10L
sg7
L879L
sasVhhints
p23
(lp24
(dp25
g6
L10L
sg7
L-252L
sa(dp26
g6
L10L
sg7
L-197L
sa(dp27
g6
L10L
sg7
L-98L
sa(dp28
g6
L10L
sg7
L-19L
sa(dp29
g6
L10L
sg7
L43L
sa(dp30
g6
L10L
sg7
L56L
sa(dp31
g6
L10L
sg7
L544L
sa(dp32
g6
L10L
sg7
L595L
sa(dp33
g6
L10L
sg7
L606L
sass."
Substitution2: "ThaiRC.rd subtable" uni0E0D.rd
Colour: ff00ff
EndChar

StartChar: uni0E0D.rd
Encoding: 832 63642 140
GlifName: uni0E_0D_.rd
Width: 950
VWidth: 0
GlyphClass: 2
Flags: MW
LayerCount: 2
Fore
SplineSet
198 140 m 0
 167 140 146 118 146 88 c 0
 146 58 167 36 198 36 c 0
 229 36 250 58 250 88 c 0
 250 118 229 140 198 140 c 0
198 184 m 0
 258 184 301 145 301 88 c 0
 301 31 258 -8 198 -8 c 0
 138 -8 95 31 95 88 c 0
 95 134 108 166 108 210 c 2
 108 297 l 2
 108 350 134 382 178 396 c 1
 57 419 l 1
 71 523 157 618 315 618 c 0
 471 618 572 529 572 403 c 2
 572 150 l 2
 572 78 616 46 674 46 c 0
 732 46 777 78 777 150 c 2
 777 600 l 1
 862 600 l 1
 862 150 l 2
 862 56 790 -18 674 -18 c 0
 558 -18 487 56 487 150 c 2
 487 403 l 2
 487 503 418 554 315 554 c 0
 226 554 168 510 148 441 c 1
 299 411 l 1
 290 374 l 2
 287 374 268 377 258 377 c 0
 215 377 193 353 193 305 c 2
 193 240 l 2
 193 217 189 198 182 183 c 1
 187 184 192 184 198 184 c 0
EndSplineSet
PickledDataWithLists: "(dp0
Vcom.fontlab.hintData
p1
(dp2
Vvhints
p3
(lp4
(dp5
Vwidth
p6
L10L
sVposition
p7
L81L
sa(dp8
g6
L10L
sg7
L101L
sa(dp9
g6
L10L
sg7
L169L
sa(dp10
g6
L10L
sg7
L189L
sa(dp11
g6
L10L
sg7
L315L
sa(dp12
g6
L10L
sg7
L471L
sa(dp13
g6
L10L
sg7
L476L
sa(dp14
g6
L10L
sg7
L559L
sa(dp15
g6
L10L
sg7
L564L
sa(dp16
g6
L10L
sg7
L771L
sa(dp17
g6
L10L
sg7
L781L
sa(dp18
g6
L10L
sg7
L859L
sa(dp19
g6
L10L
sg7
L869L
sasVhhints
p20
(lp21
(dp22
g6
L10L
sg7
L-19L
sa(dp23
g6
L10L
sg7
L43L
sa(dp24
g6
L10L
sg7
L56L
sa(dp25
g6
L10L
sg7
L544L
sa(dp26
g6
L10L
sg7
L595L
sa(dp27
g6
L10L
sg7
L606L
sass."
EndChar

StartChar: uni0E0E
Encoding: 414 3598 141
GlifName: uni0E_0E_
Width: 665
VWidth: 0
GlyphClass: 2
Flags: MW
LayerCount: 2
Fore
SplineSet
254 -111 m 1
 243 -109 233 -108 224 -108 c 0
 198 -108 172 -123 172 -157 c 0
 172 -189 196 -206 221 -206 c 0
 251 -206 273 -185 273 -157 c 0
 273 -136 265 -121 254 -111 c 1
325 618 m 0
 481 618 582 529 582 403 c 2
 582 -80 l 1
 582 -235 l 1
 505 -235 l 1
 449 -197 375 -153 310 -128 c 1
 314 -136 316 -146 316 -157 c 0
 316 -201 280 -246 218 -246 c 0
 160 -246 121 -209 121 -157 c 0
 121 -103 162 -68 221 -68 c 0
 303 -68 413 -125 500 -179 c 1
 498 -154 497 -121 497 -80 c 2
 497 403 l 2
 497 503 428 554 325 554 c 0
 236 554 180 511 159 442 c 1
 334 411 l 1
 325 374 l 2
 322 374 303 377 293 377 c 0
 250 377 228 353 228 305 c 2
 228 210 l 2
 228 166 247 134 247 88 c 0
 247 31 204 -8 144 -8 c 0
 84 -8 41 31 41 88 c 0
 41 145 84 184 144 184 c 0
 148 184 151 184 155 184 c 1
 148 199 143 218 143 240 c 2
 143 297 l 2
 143 349 169 381 212 395 c 1
 67 419 l 1
 81 523 167 618 325 618 c 0
144 140 m 0
 113 140 92 118 92 88 c 0
 92 58 113 36 144 36 c 0
 175 36 196 58 196 88 c 0
 196 118 175 140 144 140 c 0
EndSplineSet
PickledDataWithLists: "(dp0
Vcom.fontlab.hintData
p1
(dp2
Vvhints
p3
(lp4
(dp5
Vwidth
p6
L10L
sVposition
p7
L26L
sa(dp8
g6
L10L
sg7
L81L
sa(dp9
g6
L10L
sg7
L126L
sa(dp10
g6
L10L
sg7
L219L
sa(dp11
g6
L10L
sg7
L470L
sa(dp12
g6
L10L
sg7
L476L
sa(dp13
g6
L10L
sg7
L556L
sa(dp14
g6
L10L
sg7
L564L
sasVhhints
p15
(lp16
(dp17
g6
L10L
sg7
L-242L
sa(dp18
g6
L10L
sg7
L-235L
sa(dp19
g6
L10L
sg7
L-137L
sa(dp20
g6
L10L
sg7
L-87L
sa(dp21
g6
L10L
sg7
L-16L
sa(dp22
g6
L10L
sg7
L66L
sa(dp23
g6
L10L
sg7
L544L
sa(dp24
g6
L10L
sg7
L606L
sass."
EndChar

StartChar: uni0E0F
Encoding: 415 3599 142
GlifName: uni0E_0F_
Width: 665
VWidth: 0
GlyphClass: 2
Flags: MW
LayerCount: 2
Fore
SplineSet
144 140 m 0
 113 140 92 118 92 88 c 0
 92 58 113 36 144 36 c 0
 175 36 196 58 196 88 c 0
 196 118 175 140 144 140 c 0
325 618 m 0
 481 618 582 529 582 403 c 2
 582 -80 l 1
 582 -235 l 1
 505 -235 l 1
 376 -134 l 1
 365 -154 348 -178 324 -199 c 0
 294 -225 253 -246 207 -246 c 0
 148 -246 107 -211 107 -157 c 0
 107 -105 146 -68 204 -68 c 0
 266 -68 302 -113 302 -157 c 0
 302 -160 302 -163 302 -165 c 1
 329 -137 346 -97 352 -80 c 1
 379 -80 l 1
 500 -178 l 1
 498 -153 497 -120 497 -80 c 2
 497 403 l 2
 497 503 428 554 325 554 c 0
 236 554 180 511 159 442 c 1
 334 411 l 1
 325 374 l 2
 322 374 303 377 293 377 c 0
 250 377 228 353 228 305 c 2
 228 210 l 2
 228 166 247 134 247 88 c 0
 247 31 204 -8 144 -8 c 0
 84 -8 41 31 41 88 c 0
 41 145 84 184 144 184 c 0
 148 184 151 184 155 184 c 1
 148 199 143 218 143 240 c 2
 143 297 l 2
 143 349 169 381 212 395 c 1
 67 419 l 1
 81 523 167 618 325 618 c 0
158 -157 m 0
 158 -191 183 -206 209 -206 c 0
 220 -206 231 -205 241 -202 c 1
 251 -192 259 -177 259 -157 c 0
 259 -129 237 -108 207 -108 c 0
 182 -108 158 -125 158 -157 c 0
EndSplineSet
PickledDataWithLists: "(dp0
Vcom.fontlab.hintData
p1
(dp2
Vvhints
p3
(lp4
(dp5
Vwidth
p6
L10L
sVposition
p7
L26L
sa(dp8
g6
L10L
sg7
L81L
sa(dp9
g6
L10L
sg7
L97L
sa(dp10
g6
L10L
sg7
L131L
sa(dp11
g6
L10L
sg7
L166L
sa(dp12
g6
L10L
sg7
L179L
sa(dp13
g6
L10L
sg7
L221L
sa(dp14
g6
L10L
sg7
L470L
sa(dp15
g6
L10L
sg7
L476L
sa(dp16
g6
L10L
sg7
L553L
sa(dp17
g6
L10L
sg7
L564L
sasVhhints
p18
(lp19
(dp20
g6
L10L
sg7
L-240L
sa(dp21
g6
L10L
sg7
L-234L
sa(dp22
g6
L10L
sg7
L-191L
sa(dp23
g6
L10L
sg7
L-88L
sa(dp24
g6
L10L
sg7
L-83L
sa(dp25
g6
L10L
sg7
L-16L
sa(dp26
g6
L10L
sg7
L66L
sa(dp27
g6
L10L
sg7
L544L
sa(dp28
g6
L10L
sg7
L606L
sass."
EndChar

StartChar: uni0E10
Encoding: 416 3600 143
GlifName: uni0E_10
Width: 555
VWidth: 0
GlyphClass: 2
Flags: HMW
AnchorPoint: "ThaiTone.mark" 535 0 basechar 0
AnchorPoint: "ThaiAbove.mark" 575 0 basechar 0
LayerCount: 2
Fore
SplineSet
123 -157 m 0
 123 -191 148 -206 174 -206 c 0
 185 -206 196 -205 206 -202 c 1
 216 -192 224 -177 224 -157 c 0
 224 -129 202 -108 172 -108 c 0
 147 -108 123 -125 123 -157 c 0
267 -165 m 1
 294 -137 311 -97 317 -80 c 1
 344 -80 l 1
 434 -171 l 1
 433 -147 432 -117 432 -80 c 1
 497 -80 l 1
 497 -235 l 1
 440 -235 l 1
 339 -136 l 1
 328 -156 312 -179 289 -199 c 0
 259 -225 218 -246 172 -246 c 0
 113 -246 72 -211 72 -157 c 0
 72 -105 111 -68 169 -68 c 0
 231 -68 267 -113 267 -157 c 0
 267 -160 267 -163 267 -165 c 1
EndSplineSet
Refer: 144 63646 N 1 0 0 1 0 0 2
PickledDataWithLists: "(dp0
Vcom.fontlab.hintData
p1
(dp2
Vvhints
p3
(lp4
(dp5
Vwidth
p6
L10L
sVposition
p7
L30L
sa(dp8
g6
L10L
sg7
L80L
sa(dp9
g6
L10L
sg7
L89L
sa(dp10
g6
L10L
sg7
L110L
sa(dp11
g6
L10L
sg7
L149L
sa(dp12
g6
L10L
sg7
L160L
sa(dp13
g6
L10L
sg7
L434L
sa(dp14
g6
L10L
sg7
L504L
sa(dp15
g6
L10L
sg7
L510L
sa(dp16
g6
L10L
sg7
L516L
sa(dp17
g6
L10L
sg7
L569L
sasVhhints
p18
(lp19
(dp20
g6
L10L
sg7
L-237L
sa(dp21
g6
L10L
sg7
L-229L
sa(dp22
g6
L10L
sg7
L-189L
sa(dp23
g6
L10L
sg7
L-92L
sa(dp24
g6
L10L
sg7
L-87L
sa(dp25
g6
L10L
sg7
L-72L
sa(dp26
g6
L10L
sg7
L-9L
sa(dp27
g6
L10L
sg7
L197L
sa(dp28
g6
L10L
sg7
L215L
sa(dp29
g6
L10L
sg7
L272L
sa(dp30
g6
L10L
sg7
L366L
sa(dp31
g6
L10L
sg7
L420L
sa(dp32
g6
L10L
sg7
L558L
sa(dp33
g6
L10L
sg7
L612L
sa(dp34
g6
L10L
sg7
L652L
sass."
Substitution2: "ThaiRC.rd subtable" uni0E10.rd
Colour: ff00ff
EndChar

StartChar: uni0E10.rd
Encoding: 836 63646 144
GlifName: uni0E_10.rd
Width: 555
VWidth: 0
GlyphClass: 2
Flags: MW
AnchorPoint: "ThaiBelow.mark" 510 0 basechar 0
AnchorPoint: "ThaiTone.mark" 535 0 basechar 0
AnchorPoint: "ThaiAbove.mark" 575 0 basechar 0
LayerCount: 2
Fore
SplineSet
160 286 m 0
 129 286 108 264 108 234 c 0
 108 204 129 182 160 182 c 0
 191 182 212 204 212 234 c 0
 212 264 191 286 160 286 c 0
160 330 m 0
 271 330 325 211 348 104 c 1
 352 167 380 234 380 300 c 0
 380 376 285 408 57 408 c 1
 57 428 l 2
 57 543 142 618 262 618 c 0
 344 618 396 583 425 553 c 1
 427 558 429 563 431 566 c 2
 459 612 l 1
 523 600 l 1
 523 596 l 1
 443 492 l 1
 416 492 l 1
 400 515 357 560 275 560 c 0
 207 560 147 527 138 449 c 1
 344 443 462 409 462 310 c 0
 462 227 412 140 412 60 c 2
 412 0 l 1
 321 0 l 1
 316 75 294 153 259 206 c 1
 247 165 209 138 160 138 c 0
 100 138 57 177 57 234 c 0
 57 291 100 330 160 330 c 0
EndSplineSet
PickledDataWithLists: "(dp0
Vcom.fontlab.hintData
p1
(dp2
Vvhints
p3
(lp4
(dp5
Vwidth
p6
L10L
sVposition
p7
L30L
sa(dp8
g6
L10L
sg7
L89L
sa(dp9
g6
L10L
sg7
L110L
sa(dp10
g6
L10L
sg7
L430L
sa(dp11
g6
L10L
sg7
L510L
sa(dp12
g6
L10L
sg7
L569L
sasVhhints
p13
(lp14
(dp15
g6
L10L
sg7
L-9L
sa(dp16
g6
L10L
sg7
L197L
sa(dp17
g6
L10L
sg7
L215L
sa(dp18
g6
L10L
sg7
L272L
sa(dp19
g6
L10L
sg7
L366L
sa(dp20
g6
L10L
sg7
L420L
sa(dp21
g6
L10L
sg7
L558L
sa(dp22
g6
L10L
sg7
L612L
sa(dp23
g6
L10L
sg7
L652L
sass."
EndChar

StartChar: uni0E11
Encoding: 417 3601 145
GlifName: uni0E_11
Width: 665
VWidth: 0
GlyphClass: 2
Flags: MW
LayerCount: 2
Fore
SplineSet
126 564 m 0
 95 564 74 542 74 512 c 0
 74 482 95 460 126 460 c 0
 157 460 178 482 178 512 c 0
 178 542 157 564 126 564 c 0
126 608 m 0
 186 608 229 569 229 512 c 0
 229 490 223 471 212 456 c 1
 259 484 288 541 298 599 c 1
 330 603 l 1
 345 580 361 550 366 507 c 1
 401 560 446 608 493 608 c 0
 567 608 578 538 578 490 c 2
 578 0 l 1
 493 0 l 1
 493 476 l 2
 493 510 486 535 463 537 c 1
 432 530 387 469 360 424 c 1
 330 321 223 273 223 155 c 2
 223 0 l 1
 138 0 l 1
 138 149 l 2
 138 323 307 350 307 490 c 0
 307 495 307 500 307 504 c 1
 281 448 233 405 148 405 c 0
 64 405 23 451 23 512 c 0
 23 569 66 608 126 608 c 0
EndSplineSet
PickledDataWithLists: "(dp0
Vcom.fontlab.hintData
p1
(dp2
Vvhints
p3
(lp4
(dp5
Vwidth
p6
L10L
sVposition
p7
L11L
sa(dp8
g6
L10L
sg7
L161L
sa(dp9
g6
L10L
sg7
L235L
sa(dp10
g6
L10L
sg7
L283L
sa(dp11
g6
L10L
sg7
L524L
sa(dp12
g6
L10L
sg7
L529L
sa(dp13
g6
L10L
sg7
L606L
sa(dp14
g6
L10L
sg7
L608L
sasVhhints
p15
(lp16
(dp17
g6
L10L
sg7
L-15L
sa(dp18
g6
L10L
sg7
L-8L
sa(dp19
g6
L10L
sg7
L398L
sa(dp20
g6
L10L
sg7
L602L
sa(dp21
g6
L10L
sg7
L611L
sass."
EndChar

StartChar: uni0E12
Encoding: 418 3602 146
GlifName: uni0E_12
Width: 960
VWidth: 0
GlyphClass: 2
Flags: MW
LayerCount: 2
Fore
SplineSet
330 373 m 0
 299 373 278 351 278 321 c 0
 278 291 299 269 330 269 c 0
 361 269 382 291 382 321 c 0
 382 351 361 373 330 373 c 0
502 140 m 0
 471 140 450 118 450 88 c 0
 450 58 471 36 502 36 c 0
 533 36 554 58 554 88 c 0
 554 118 533 140 502 140 c 0
239 612 m 1
 330 530 l 1
 421 612 l 1
 554 612 583 487 583 403 c 2
 583 218 l 2
 583 203 585 190 587 179 c 1
 677 169 741 123 786 75 c 1
 785 105 783 140 783 170 c 2
 783 600 l 1
 868 600 l 1
 868 0 l 1
 790 0 l 1
 746 58 685 113 601 127 c 1
 603 116 605 103 605 88 c 0
 605 31 562 -8 502 -8 c 0
 442 -8 399 31 399 88 c 0
 399 145 442 184 502 184 c 0
 506 184 510 183 514 183 c 1
 506 198 501 217 501 240 c 2
 501 403 l 2
 501 492 474 545 428 551 c 1
 340 477 l 1
 330 477 l 1
 320 477 l 1
 232 551 l 1
 185 545 157 492 157 403 c 0
 157 257 178 224 178 155 c 2
 178 84 l 1
 227 144 303 178 350 227 c 1
 343 226 337 225 330 225 c 0
 270 225 227 264 227 321 c 0
 227 378 270 417 330 417 c 0
 390 417 433 378 433 321 c 0
 433 163 225 124 190 0 c 1
 93 0 l 1
 93 0 103 73 103 120 c 0
 103 224 78 249 78 403 c 0
 78 487 106 612 239 612 c 1
EndSplineSet
PickledDataWithLists: "(dp0
Vcom.fontlab.hintData
p1
(dp2
Vvhints
p3
(lp4
(dp5
Vwidth
p6
L10L
sVposition
p7
L64L
sa(dp8
g6
L10L
sg7
L146L
sa(dp9
g6
L10L
sg7
L322L
sa(dp10
g6
L10L
sg7
L328L
sa(dp11
g6
L10L
sg7
L375L
sa(dp12
g6
L10L
sg7
L445L
sa(dp13
g6
L10L
sg7
L535L
sa(dp14
g6
L10L
sg7
L605L
sa(dp15
g6
L10L
sg7
L781L
sa(dp16
g6
L10L
sg7
L789L
sa(dp17
g6
L10L
sg7
L861L
sa(dp18
g6
L10L
sg7
L871L
sasVhhints
p19
(lp20
(dp21
g6
L10L
sg7
L-19L
sa(dp22
g6
L10L
sg7
L-15L
sa(dp23
g6
L10L
sg7
L37L
sa(dp24
g6
L10L
sg7
L241L
sa(dp25
g6
L10L
sg7
L289L
sa(dp26
g6
L10L
sg7
L412L
sa(dp27
g6
L10L
sg7
L546L
sa(dp28
g6
L10L
sg7
L587L
sa(dp29
g6
L10L
sg7
L593L
sa(dp30
g6
L10L
sg7
L603L
sass."
EndChar

StartChar: uni0E13
Encoding: 419 3603 147
GlifName: uni0E_13
Width: 960
VWidth: 0
GlyphClass: 2
Flags: MW
LayerCount: 2
Fore
SplineSet
198 140 m 0
 167 140 146 118 146 88 c 0
 146 58 167 36 198 36 c 0
 229 36 250 58 250 88 c 0
 250 118 229 140 198 140 c 0
198 184 m 0
 258 184 301 145 301 88 c 0
 301 31 258 -8 198 -8 c 0
 138 -8 95 31 95 88 c 0
 95 134 108 166 108 210 c 2
 108 297 l 2
 108 350 134 382 178 396 c 1
 57 419 l 1
 71 523 157 618 315 618 c 0
 471 618 572 529 572 403 c 2
 572 170 l 2
 572 143 571 112 570 84 c 1
 615 136 677 182 765 187 c 1
 772 196 777 205 777 218 c 2
 777 600 l 1
 862 600 l 1
 862 232 l 2
 862 209 849 192 832 180 c 1
 875 169 904 135 904 88 c 0
 904 31 861 -8 801 -8 c 0
 741 -8 698 31 698 88 c 0
 698 101 700 113 704 124 c 1
 645 102 598 54 565 0 c 1
 487 0 l 1
 487 403 l 2
 487 503 418 554 315 554 c 0
 226 554 168 510 148 441 c 1
 299 411 l 1
 290 374 l 2
 287 374 268 377 258 377 c 0
 215 377 193 353 193 305 c 2
 193 240 l 2
 193 217 189 198 182 183 c 1
 187 184 192 184 198 184 c 0
801 140 m 0
 770 140 749 118 749 88 c 0
 749 58 770 36 801 36 c 0
 832 36 853 58 853 88 c 0
 853 118 832 140 801 140 c 0
EndSplineSet
PickledDataWithLists: "(dp0
Vcom.fontlab.hintData
p1
(dp2
Vvhints
p3
(lp4
(dp5
Vwidth
p6
L10L
sVposition
p7
L84L
sa(dp8
g6
L10L
sg7
L104L
sa(dp9
g6
L10L
sg7
L166L
sa(dp10
g6
L10L
sg7
L186L
sa(dp11
g6
L10L
sg7
L311L
sa(dp12
g6
L10L
sg7
L454L
sa(dp13
g6
L10L
sg7
L469L
sa(dp14
g6
L10L
sg7
L540L
sa(dp15
g6
L10L
sg7
L551L
sa(dp16
g6
L10L
sg7
L709L
sa(dp17
g6
L10L
sg7
L780L
sa(dp18
g6
L10L
sg7
L816L
sa(dp19
g6
L10L
sg7
L865L
sa(dp20
g6
L10L
sg7
L935L
sasVhhints
p21
(lp22
(dp23
g6
L10L
sg7
L-17L
sa(dp24
g6
L10L
sg7
L29L
sa(dp25
g6
L10L
sg7
L41L
sa(dp26
g6
L10L
sg7
L54L
sa(dp27
g6
L10L
sg7
L241L
sa(dp28
g6
L10L
sg7
L289L
sa(dp29
g6
L10L
sg7
L546L
sa(dp30
g6
L10L
sg7
L594L
sa(dp31
g6
L10L
sg7
L604L
sass."
EndChar

StartChar: uni0E14
Encoding: 420 3604 148
GlifName: uni0E_14
Width: 665
VWidth: 0
GlyphClass: 2
Flags: MW
LayerCount: 2
Fore
SplineSet
498 0 m 1
 498 105 l 2
 498 145 501 307 501 403 c 0
 501 503 432 554 330 554 c 0
 228 554 157 503 157 403 c 0
 157 257 178 224 178 155 c 2
 178 84 l 1
 227 144 303 178 350 227 c 1
 343 226 337 225 330 225 c 0
 270 225 227 264 227 321 c 0
 227 378 270 417 330 417 c 0
 390 417 433 378 433 321 c 0
 433 163 225 124 190 0 c 1
 93 0 l 1
 93 0 103 73 103 120 c 0
 103 224 78 249 78 403 c 0
 78 529 177 618 330 618 c 0
 483 618 583 529 583 403 c 2
 583 0 l 1
 498 0 l 1
330 373 m 0
 299 373 278 351 278 321 c 0
 278 291 299 269 330 269 c 0
 361 269 382 291 382 321 c 0
 382 351 361 373 330 373 c 0
EndSplineSet
PickledDataWithLists: "(dp0
Vcom.fontlab.hintData
p1
(dp2
Vvhints
p3
(lp4
(dp5
Vwidth
p6
L10L
sVposition
p7
L60L
sa(dp8
g6
L10L
sg7
L149L
sa(dp9
g6
L10L
sg7
L306L
sa(dp10
g6
L10L
sg7
L394L
sa(dp11
g6
L10L
sg7
L495L
sa(dp12
g6
L10L
sg7
L501L
sa(dp13
g6
L10L
sg7
L584L
sa(dp14
g6
L10L
sg7
L589L
sasVhhints
p15
(lp16
(dp17
g6
L10L
sg7
L-23L
sa(dp18
g6
L10L
sg7
L-15L
sa(dp19
g6
L10L
sg7
L40L
sa(dp20
g6
L10L
sg7
L140L
sa(dp21
g6
L10L
sg7
L547L
sa(dp22
g6
L10L
sg7
L609L
sass."
EndChar

StartChar: uni0E15
Encoding: 421 3605 149
GlifName: uni0E_15
Width: 665
VWidth: 0
GlyphClass: 2
Flags: MW
LayerCount: 2
Fore
SplineSet
498 0 m 1
 498 105 l 2
 498 145 501 307 501 403 c 0
 501 492 474 545 428 551 c 1
 340 477 l 1
 330 477 l 1
 320 477 l 1
 232 551 l 1
 185 545 157 492 157 403 c 0
 157 257 178 224 178 155 c 2
 178 84 l 1
 227 144 303 178 350 227 c 1
 343 226 337 225 330 225 c 0
 270 225 227 264 227 321 c 0
 227 378 270 417 330 417 c 0
 390 417 433 378 433 321 c 0
 433 163 225 124 190 0 c 1
 93 0 l 1
 93 0 103 73 103 120 c 0
 103 224 78 249 78 403 c 0
 78 487 106 612 239 612 c 1
 330 530 l 1
 421 612 l 1
 554 612 583 487 583 403 c 2
 583 0 l 1
 498 0 l 1
330 373 m 0
 299 373 278 351 278 321 c 0
 278 291 299 269 330 269 c 0
 361 269 382 291 382 321 c 0
 382 351 361 373 330 373 c 0
EndSplineSet
PickledDataWithLists: "(dp0
Vcom.fontlab.hintData
p1
(dp2
Vvhints
p3
(lp4
(dp5
Vwidth
p6
L10L
sVposition
p7
L64L
sa(dp8
g6
L10L
sg7
L146L
sa(dp9
g6
L10L
sg7
L309L
sa(dp10
g6
L10L
sg7
L332L
sa(dp11
g6
L10L
sg7
L337L
sa(dp12
g6
L10L
sg7
L391L
sa(dp13
g6
L10L
sg7
L405L
sa(dp14
g6
L10L
sg7
L513L
sa(dp15
g6
L10L
sg7
L597L
sa(dp16
g6
L10L
sg7
L602L
sasVhhints
p17
(lp18
(dp19
g6
L10L
sg7
L-21L
sa(dp20
g6
L10L
sg7
L-13L
sa(dp21
g6
L10L
sg7
L36L
sa(dp22
g6
L10L
sg7
L133L
sa(dp23
g6
L10L
sg7
L412L
sa(dp24
g6
L10L
sg7
L546L
sa(dp25
g6
L10L
sg7
L590L
sa(dp26
g6
L10L
sg7
L603L
sass."
EndChar

StartChar: uni0E16
Encoding: 422 3606 150
GlifName: uni0E_16
Width: 655
VWidth: 0
GlyphClass: 2
Flags: MW
LayerCount: 2
Fore
SplineSet
315 618 m 0
 471 618 572 529 572 403 c 2
 572 0 l 1
 487 0 l 1
 487 403 l 2
 487 503 418 554 315 554 c 0
 226 554 168 510 148 441 c 1
 299 411 l 1
 290 374 l 2
 287 374 268 377 258 377 c 0
 215 377 193 353 193 305 c 2
 193 240 l 2
 193 217 189 198 182 183 c 1
 187 184 192 184 198 184 c 0
 258 184 301 145 301 88 c 0
 301 31 258 -8 198 -8 c 0
 138 -8 95 31 95 88 c 0
 95 134 108 166 108 210 c 2
 108 297 l 2
 108 350 134 382 178 396 c 1
 57 419 l 1
 71 523 157 618 315 618 c 0
198 140 m 0
 167 140 146 118 146 88 c 0
 146 58 167 36 198 36 c 0
 229 36 250 58 250 88 c 0
 250 118 229 140 198 140 c 0
EndSplineSet
PickledDataWithLists: "(dp0
Vcom.fontlab.hintData
p1
(dp2
Vvhints
p3
(lp4
(dp5
Vwidth
p6
L10L
sVposition
p7
L81L
sa(dp8
g6
L10L
sg7
L86L
sa(dp9
g6
L10L
sg7
L111L
sa(dp10
g6
L10L
sg7
L169L
sa(dp11
g6
L10L
sg7
L199L
sa(dp12
g6
L10L
sg7
L315L
sa(dp13
g6
L10L
sg7
L465L
sa(dp14
g6
L10L
sg7
L476L
sa(dp15
g6
L10L
sg7
L556L
sa(dp16
g6
L10L
sg7
L564L
sasVhhints
p17
(lp18
(dp19
g6
L10L
sg7
L-19L
sa(dp20
g6
L10L
sg7
L43L
sa(dp21
g6
L10L
sg7
L56L
sa(dp22
g6
L10L
sg7
L544L
sa(dp23
g6
L10L
sg7
L606L
sass."
EndChar

StartChar: uni0E17
Encoding: 423 3607 151
GlifName: uni0E_17
Width: 660
VWidth: 0
GlyphClass: 2
Flags: MW
LayerCount: 2
Fore
SplineSet
132 460 m 0
 163 460 184 482 184 512 c 0
 184 542 163 564 132 564 c 0
 101 564 80 542 80 512 c 0
 80 482 101 460 132 460 c 0
132 416 m 0
 72 416 29 455 29 512 c 0
 29 569 72 608 132 608 c 0
 192 608 235 569 235 512 c 0
 235 466 213 434 213 390 c 2
 213 253 l 1
 259 401 342 608 463 608 c 0
 548 608 573 536 573 488 c 2
 573 0 l 1
 487 0 l 1
 487 474 l 2
 487 505 475 534 447 536 c 1
 350 512 243 231 213 115 c 1
 213 0 l 1
 128 0 l 1
 128 360 l 2
 128 382 133 401 141 416 c 1
 138 416 135 416 132 416 c 0
EndSplineSet
PickledDataWithLists: "(dp0
Vcom.fontlab.hintData
p1
(dp2
Vvhints
p3
(lp4
(dp5
Vwidth
p6
L10L
sVposition
p7
L58L
sa(dp8
g6
L10L
sg7
L104L
sa(dp9
g6
L10L
sg7
L479L
sa(dp10
g6
L10L
sg7
L484L
sa(dp11
g6
L10L
sg7
L561L
sa(dp12
g6
L10L
sg7
L566L
sasVhhints
p13
(lp14
(dp15
g6
L10L
sg7
L-13L
sa(dp16
g6
L10L
sg7
L-8L
sa(dp17
g6
L10L
sg7
L546L
sa(dp18
g6
L10L
sg7
L604L
sass."
EndChar

StartChar: uni0E18
Encoding: 424 3608 152
GlifName: uni0E_18
Width: 585
VWidth: 0
GlyphClass: 2
Flags: MW
AnchorPoint: "ThaiTone.mark" 565 0 basechar 0
LayerCount: 2
Fore
SplineSet
82 174 m 2
 82 300 l 1
 167 300 l 1
 167 174 l 2
 167 87 223 46 295 46 c 0
 367 46 422 87 422 174 c 2
 422 288 l 2
 422 366 310 403 72 403 c 1
 72 428 l 2
 72 543 157 618 277 618 c 0
 359 618 411 583 440 553 c 1
 442 558 444 563 446 566 c 2
 474 612 l 1
 538 600 l 1
 538 596 l 1
 458 492 l 1
 431 492 l 1
 415 515 372 560 290 560 c 0
 221 560 161 526 153 447 c 1
 371 440 507 400 507 298 c 2
 507 174 l 2
 507 66 427 -18 295 -18 c 0
 163 -18 82 66 82 174 c 2
EndSplineSet
PickledDataWithLists: "(dp0
Vcom.fontlab.hintData
p1
(dp2
Vvhints
p3
(lp4
(dp5
Vwidth
p6
L10L
sVposition
p7
L64L
sa(dp8
g6
L10L
sg7
L109L
sa(dp9
g6
L10L
sg7
L146L
sa(dp10
g6
L10L
sg7
L195L
sa(dp11
g6
L10L
sg7
L430L
sa(dp12
g6
L10L
sg7
L513L
sasVhhints
p13
(lp14
(dp15
g6
L10L
sg7
L-14L
sa(dp16
g6
L10L
sg7
L44L
sa(dp17
g6
L10L
sg7
L294L
sa(dp18
g6
L10L
sg7
L496L
sa(dp19
g6
L10L
sg7
L555L
sa(dp20
g6
L10L
sg7
L612L
sass."
EndChar

StartChar: uni0E19
Encoding: 425 3609 153
GlifName: uni0E_19
Width: 650
VWidth: 0
GlyphClass: 2
Flags: MW
LayerCount: 2
Fore
SplineSet
128 0 m 1
 128 360 l 2
 128 383 134 401 142 416 c 1
 139 416 135 416 132 416 c 0
 72 416 29 455 29 512 c 0
 29 569 72 608 132 608 c 0
 192 608 235 569 235 512 c 0
 235 458 213 436 213 382 c 2
 213 170 l 2
 213 141 211 107 210 77 c 1
 266 130 348 182 457 187 c 1
 464 196 468 205 468 218 c 2
 468 600 l 1
 553 600 l 1
 553 232 l 2
 553 209 540 192 523 180 c 1
 566 169 595 135 595 88 c 0
 595 31 552 -8 492 -8 c 0
 432 -8 389 31 389 88 c 0
 389 103 392 116 397 128 c 1
 315 107 250 53 206 0 c 1
 128 0 l 1
492 140 m 0
 461 140 440 118 440 88 c 0
 440 58 461 36 492 36 c 0
 523 36 544 58 544 88 c 0
 544 118 523 140 492 140 c 0
132 460 m 0
 163 460 184 482 184 512 c 0
 184 542 163 564 132 564 c 0
 101 564 80 542 80 512 c 0
 80 482 101 460 132 460 c 0
EndSplineSet
PickledDataWithLists: "(dp0
Vcom.fontlab.hintData
p1
(dp2
Vvhints
p3
(lp4
(dp5
Vwidth
p6
L10L
sVposition
p7
L64L
sa(dp8
g6
L10L
sg7
L84L
sa(dp9
g6
L10L
sg7
L168L
sa(dp10
g6
L10L
sg7
L387L
sa(dp11
g6
L10L
sg7
L457L
sa(dp12
g6
L10L
sg7
L491L
sa(dp13
g6
L10L
sg7
L550L
sa(dp14
g6
L10L
sg7
L625L
sasVhhints
p15
(lp16
(dp17
g6
L10L
sg7
L-27L
sa(dp18
g6
L10L
sg7
L-20L
sa(dp19
g6
L10L
sg7
L22L
sa(dp20
g6
L10L
sg7
L248L
sa(dp21
g6
L10L
sg7
L307L
sa(dp22
g6
L10L
sg7
L589L
sa(dp23
g6
L10L
sg7
L598L
sass."
EndChar

StartChar: uni0E1A
Encoding: 426 3610 154
GlifName: uni0E_1A_
Width: 700
VWidth: 0
GlyphClass: 2
Flags: MW
LayerCount: 2
Fore
SplineSet
127 460 m 0
 158 460 179 482 179 512 c 0
 179 542 158 564 127 564 c 0
 96 564 75 542 75 512 c 0
 75 482 96 460 127 460 c 0
127 416 m 0
 67 416 24 455 24 512 c 0
 24 569 67 608 127 608 c 0
 187 608 230 569 230 512 c 0
 230 466 208 434 208 390 c 2
 208 184 l 2
 208 92 271 46 365 46 c 0
 459 46 523 92 523 184 c 2
 523 600 l 1
 608 600 l 1
 608 184 l 2
 608 66 511 -18 365 -18 c 0
 219 -18 123 66 123 184 c 2
 123 360 l 2
 123 382 128 401 136 416 c 1
 133 416 130 416 127 416 c 0
EndSplineSet
PickledDataWithLists: "(dp0
Vcom.fontlab.hintData
p1
(dp2
Vvhints
p3
(lp4
(dp5
Vwidth
p6
L10L
sVposition
p7
L81L
sa(dp8
g6
L10L
sg7
L106L
sa(dp9
g6
L10L
sg7
L194L
sa(dp10
g6
L10L
sg7
L511L
sa(dp11
g6
L10L
sg7
L516L
sa(dp12
g6
L10L
sg7
L599L
sa(dp13
g6
L10L
sg7
L604L
sasVhhints
p14
(lp15
(dp16
g6
L10L
sg7
L-26L
sa(dp17
g6
L10L
sg7
L36L
sa(dp18
g6
L10L
sg7
L596L
sass."
EndChar

StartChar: uni0E1B
Encoding: 427 3611 155
GlifName: uni0E_1B_
Width: 700
VWidth: 0
GlyphClass: 2
Flags: MW
LayerCount: 2
Fore
SplineSet
127 460 m 0
 158 460 179 482 179 512 c 0
 179 542 158 564 127 564 c 0
 96 564 75 542 75 512 c 0
 75 482 96 460 127 460 c 0
127 416 m 0
 67 416 24 455 24 512 c 0
 24 569 67 608 127 608 c 0
 187 608 230 569 230 512 c 0
 230 466 208 434 208 390 c 2
 208 184 l 2
 208 92 271 46 365 46 c 0
 459 46 523 92 523 184 c 2
 523 810 l 1
 608 810 l 1
 608 184 l 2
 608 66 511 -18 365 -18 c 0
 219 -18 123 66 123 184 c 2
 123 360 l 2
 123 382 128 401 136 416 c 1
 133 416 130 416 127 416 c 0
EndSplineSet
PickledDataWithLists: "(dp0
Vcom.fontlab.hintData
p1
(dp2
Vvhints
p3
(lp4
(dp5
Vwidth
p6
L10L
sVposition
p7
L81L
sa(dp8
g6
L10L
sg7
L106L
sa(dp9
g6
L10L
sg7
L194L
sa(dp10
g6
L10L
sg7
L521L
sa(dp11
g6
L10L
sg7
L526L
sa(dp12
g6
L10L
sg7
L609L
sa(dp13
g6
L10L
sg7
L614L
sasVhhints
p14
(lp15
(dp16
g6
L10L
sg7
L-26L
sa(dp17
g6
L10L
sg7
L36L
sa(dp18
g6
L10L
sg7
L600L
sa(dp19
g6
L10L
sg7
L836L
sass."
EndChar

StartChar: uni0E1C
Encoding: 428 3612 156
GlifName: uni0E_1C_
Width: 715
VWidth: 0
GlyphClass: 2
Flags: MW
LayerCount: 2
Fore
SplineSet
540 162 m 2
 540 600 l 1
 623 600 l 1
 623 0 l 1
 544 0 l 1
 358 298 l 1
 172 0 l 1
 92 0 l 1
 92 300 l 2
 92 373 78 410 78 467 c 0
 78 554 128 608 218 608 c 0
 278 608 321 569 321 512 c 0
 321 455 278 416 218 416 c 0
 192 416 169 424 151 437 c 1
 157 394 174 371 174 308 c 2
 174 162 l 2
 174 139 172 116 169 97 c 1
 332 360 l 1
 358 360 l 1
 382 360 l 1
 546 97 l 1
 543 116 540 139 540 162 c 2
218 460 m 0
 249 460 270 482 270 512 c 0
 270 542 249 564 218 564 c 0
 187 564 166 542 166 512 c 0
 166 482 187 460 218 460 c 0
EndSplineSet
PickledDataWithLists: "(dp0
Vcom.fontlab.hintData
p1
(dp2
Vvhints
p3
(lp4
(dp5
Vwidth
p6
L10L
sVposition
p7
L64L
sa(dp8
g6
L10L
sg7
L148L
sa(dp9
g6
L10L
sg7
L372L
sa(dp10
g6
L10L
sg7
L559L
sa(dp11
g6
L10L
sg7
L643L
sa(dp12
g6
L10L
sg7
L653L
sasVhhints
p13
(lp14
(dp15
g6
L10L
sg7
L-14L
sa(dp16
g6
L10L
sg7
L-8L
sa(dp17
g6
L10L
sg7
L318L
sa(dp18
g6
L10L
sg7
L514L
sa(dp19
g6
L10L
sg7
L544L
sa(dp20
g6
L10L
sg7
L599L
sa(dp21
g6
L10L
sg7
L604L
sass."
EndChar

StartChar: uni0E1D
Encoding: 429 3613 157
GlifName: uni0E_1D_
Width: 715
VWidth: 0
GlyphClass: 2
Flags: MW
LayerCount: 2
Fore
SplineSet
540 162 m 2
 540 810 l 1
 623 810 l 1
 623 0 l 1
 544 0 l 1
 358 298 l 1
 172 0 l 1
 92 0 l 1
 92 300 l 2
 92 373 78 410 78 467 c 0
 78 554 128 608 218 608 c 0
 278 608 321 569 321 512 c 0
 321 455 278 416 218 416 c 0
 192 416 169 424 151 437 c 1
 157 394 174 371 174 308 c 2
 174 162 l 2
 174 139 172 116 169 97 c 1
 332 360 l 1
 358 360 l 1
 382 360 l 1
 546 97 l 1
 543 116 540 139 540 162 c 2
218 460 m 0
 249 460 270 482 270 512 c 0
 270 542 249 564 218 564 c 0
 187 564 166 542 166 512 c 0
 166 482 187 460 218 460 c 0
EndSplineSet
PickledDataWithLists: "(dp0
Vcom.fontlab.hintData
p1
(dp2
Vvhints
p3
(lp4
(dp5
Vwidth
p6
L10L
sVposition
p7
L64L
sa(dp8
g6
L10L
sg7
L148L
sa(dp9
g6
L10L
sg7
L372L
sa(dp10
g6
L10L
sg7
L559L
sa(dp11
g6
L10L
sg7
L643L
sa(dp12
g6
L10L
sg7
L653L
sasVhhints
p13
(lp14
(dp15
g6
L10L
sg7
L-14L
sa(dp16
g6
L10L
sg7
L-8L
sa(dp17
g6
L10L
sg7
L318L
sa(dp18
g6
L10L
sg7
L514L
sa(dp19
g6
L10L
sg7
L544L
sa(dp20
g6
L10L
sg7
L604L
sa(dp21
g6
L10L
sg7
L834L
sass."
EndChar

StartChar: uni0E1E
Encoding: 430 3614 158
GlifName: uni0E_1E_
Width: 735
VWidth: 0
GlyphClass: 2
Flags: MW
LayerCount: 2
Fore
SplineSet
643 600 m 1
 643 0 l 1
 569 0 l 1
 384 410 l 1
 199 0 l 1
 127 0 l 1
 127 360 l 2
 127 383 133 401 141 416 c 1
 137 416 134 416 130 416 c 0
 70 416 27 455 27 512 c 0
 27 569 70 608 130 608 c 0
 190 608 233 569 233 512 c 0
 233 463 209 433 209 385 c 2
 209 192 l 2
 209 175 207 155 205 138 c 1
 363 495 l 1
 384 495 l 1
 405 495 l 1
 565 135 l 1
 563 152 561 174 561 192 c 2
 561 600 l 1
 643 600 l 1
130 460 m 0
 161 460 182 482 182 512 c 0
 182 542 161 564 130 564 c 0
 99 564 78 542 78 512 c 0
 78 482 99 460 130 460 c 0
EndSplineSet
PickledDataWithLists: "(dp0
Vcom.fontlab.hintData
p1
(dp2
Vvhints
p3
(lp4
(dp5
Vwidth
p6
L10L
sVposition
p7
L58L
sa(dp8
g6
L10L
sg7
L104L
sa(dp9
g6
L10L
sg7
L182L
sa(dp10
g6
L10L
sg7
L556L
sa(dp11
g6
L10L
sg7
L656L
sasVhhints
p12
(lp13
(dp14
g6
L10L
sg7
L-12L
sa(dp15
g6
L10L
sg7
L540L
sa(dp16
g6
L10L
sg7
L604L
sass."
EndChar

StartChar: uni0E1F
Encoding: 431 3615 159
GlifName: uni0E_1F_
Width: 735
VWidth: 0
GlyphClass: 2
Flags: MW
LayerCount: 2
Fore
SplineSet
643 810 m 1
 643 0 l 1
 569 0 l 1
 384 410 l 1
 199 0 l 1
 127 0 l 1
 127 360 l 2
 127 383 133 401 141 416 c 1
 137 416 134 416 130 416 c 0
 70 416 27 455 27 512 c 0
 27 569 70 608 130 608 c 0
 190 608 233 569 233 512 c 0
 233 463 209 433 209 385 c 2
 209 192 l 2
 209 175 207 155 205 138 c 1
 363 495 l 1
 384 495 l 1
 405 495 l 1
 565 135 l 1
 563 152 561 174 561 192 c 2
 561 810 l 1
 643 810 l 1
130 460 m 0
 161 460 182 482 182 512 c 0
 182 542 161 564 130 564 c 0
 99 564 78 542 78 512 c 0
 78 482 99 460 130 460 c 0
EndSplineSet
PickledDataWithLists: "(dp0
Vcom.fontlab.hintData
p1
(dp2
Vvhints
p3
(lp4
(dp5
Vwidth
p6
L10L
sVposition
p7
L58L
sa(dp8
g6
L10L
sg7
L104L
sa(dp9
g6
L10L
sg7
L182L
sa(dp10
g6
L10L
sg7
L565L
sa(dp11
g6
L9L
sg7
L641L
sa(dp12
g6
L11L
sg7
L686L
sasVhhints
p13
(lp14
(dp15
g6
L10L
sg7
L-12L
sa(dp16
g6
L10L
sg7
L540L
sa(dp17
g6
L10L
sg7
L604L
sa(dp18
g6
L10L
sg7
L834L
sass."
EndChar

StartChar: uni0E20
Encoding: 432 3616 160
GlifName: uni0E_20
Width: 665
VWidth: 0
GlyphClass: 2
Flags: MW
LayerCount: 2
Fore
SplineSet
144 140 m 0
 113 140 92 118 92 88 c 0
 92 58 113 36 144 36 c 0
 175 36 196 58 196 88 c 0
 196 118 175 140 144 140 c 0
325 618 m 0
 481 618 582 529 582 403 c 2
 582 0 l 1
 497 0 l 1
 497 403 l 2
 497 503 428 554 325 554 c 0
 236 554 180 511 159 442 c 1
 334 411 l 1
 325 374 l 2
 322 374 303 377 293 377 c 0
 250 377 228 353 228 305 c 2
 228 210 l 2
 228 166 247 134 247 88 c 0
 247 31 204 -8 144 -8 c 0
 84 -8 41 31 41 88 c 0
 41 145 84 184 144 184 c 0
 148 184 151 184 155 184 c 1
 148 199 143 218 143 240 c 2
 143 297 l 2
 143 349 169 381 212 395 c 1
 67 419 l 1
 81 523 167 618 325 618 c 0
EndSplineSet
PickledDataWithLists: "(dp0
Vcom.fontlab.hintData
p1
(dp2
Vvhints
p3
(lp4
(dp5
Vwidth
p6
L10L
sVposition
p7
L26L
sa(dp8
g6
L10L
sg7
L81L
sa(dp9
g6
L10L
sg7
L131L
sa(dp10
g6
L10L
sg7
L219L
sa(dp11
g6
L10L
sg7
L465L
sa(dp12
g6
L10L
sg7
L476L
sa(dp13
g6
L10L
sg7
L556L
sa(dp14
g6
L10L
sg7
L564L
sasVhhints
p15
(lp16
(dp17
g6
L10L
sg7
L-16L
sa(dp18
g6
L10L
sg7
L66L
sa(dp19
g6
L10L
sg7
L544L
sa(dp20
g6
L10L
sg7
L606L
sass."
EndChar

StartChar: uni0E21
Encoding: 433 3617 161
GlifName: uni0E_21
Width: 645
VWidth: 0
GlyphClass: 2
Flags: MW
LayerCount: 2
Fore
SplineSet
152 140 m 0
 121 140 100 118 100 88 c 0
 100 58 121 36 152 36 c 0
 183 36 204 58 204 88 c 0
 204 118 183 140 152 140 c 0
142 460 m 0
 173 460 194 482 194 512 c 0
 194 542 173 564 142 564 c 0
 111 564 90 542 90 512 c 0
 90 482 111 460 142 460 c 0
142 416 m 0
 82 416 39 455 39 512 c 0
 39 569 82 608 142 608 c 0
 202 608 245 569 245 512 c 0
 245 458 223 436 223 382 c 2
 223 218 l 2
 223 204 225 193 228 182 c 1
 336 172 416 124 471 75 c 1
 470 105 468 140 468 170 c 2
 468 600 l 1
 553 600 l 1
 553 0 l 1
 475 0 l 1
 428 57 351 114 248 130 c 1
 252 118 255 104 255 88 c 0
 255 31 212 -8 152 -8 c 0
 92 -8 49 31 49 88 c 0
 49 145 92 184 152 184 c 0
 153 184 153 184 154 184 c 1
 145 199 138 217 138 240 c 2
 138 360 l 2
 138 383 144 401 152 416 c 1
 149 416 145 416 142 416 c 0
EndSplineSet
PickledDataWithLists: "(dp0
Vcom.fontlab.hintData
p1
(dp2
Vvhints
p3
(lp4
(dp5
Vwidth
p6
L10L
sVposition
p7
L25L
sa(dp8
g6
L10L
sg7
L56L
sa(dp9
g6
L10L
sg7
L100L
sa(dp10
g6
L10L
sg7
L200L
sa(dp11
g6
L10L
sg7
L280L
sa(dp12
g6
L10L
sg7
L476L
sa(dp13
g6
L10L
sg7
L484L
sa(dp14
g6
L10L
sg7
L556L
sa(dp15
g6
L10L
sg7
L566L
sasVhhints
p16
(lp17
(dp18
g6
L10L
sg7
L-27L
sa(dp19
g6
L10L
sg7
L243L
sa(dp20
g6
L10L
sg7
L297L
sa(dp21
g6
L10L
sg7
L528L
sa(dp22
g6
L10L
sg7
L548L
sa(dp23
g6
L10L
sg7
L588L
sa(dp24
g6
L10L
sg7
L602L
sass."
EndChar

StartChar: uni0E22
Encoding: 434 3618 162
GlifName: uni0E_22
Width: 645
VWidth: 0
GlyphClass: 2
Flags: MW
LayerCount: 2
Fore
SplineSet
229 460 m 0
 260 460 281 482 281 512 c 0
 281 542 260 564 229 564 c 0
 198 564 177 542 177 512 c 0
 177 482 198 460 229 460 c 0
473 600 m 1
 558 600 l 1
 558 184 l 2
 558 66 461 -18 315 -18 c 0
 169 -18 73 60 73 174 c 0
 73 253 124 295 186 313 c 1
 123 337 73 389 73 467 c 0
 73 551 133 608 229 608 c 0
 289 608 332 569 332 512 c 0
 332 455 289 416 229 416 c 0
 182 416 146 440 132 477 c 1
 132 475 132 472 132 470 c 0
 132 376 214 340 325 340 c 1
 325 290 l 1
 231 290 158 260 158 178 c 0
 158 90 221 46 315 46 c 0
 409 46 473 92 473 184 c 2
 473 600 l 1
EndSplineSet
PickledDataWithLists: "(dp0
Vcom.fontlab.hintData
p1
(dp2
Vvhints
p3
(lp4
(dp5
Vwidth
p6
L10L
sVposition
p7
L44L
sa(dp8
g6
L10L
sg7
L114L
sa(dp9
g6
L10L
sg7
L126L
sa(dp10
g6
L10L
sg7
L196L
sa(dp11
g6
L10L
sg7
L335L
sa(dp12
g6
L10L
sg7
L352L
sa(dp13
g6
L10L
sg7
L474L
sa(dp14
g6
L10L
sg7
L562L
sasVhhints
p15
(lp16
(dp17
g6
L10L
sg7
L-26L
sa(dp18
g6
L10L
sg7
L36L
sa(dp19
g6
L10L
sg7
L517L
sa(dp20
g6
L10L
sg7
L546L
sa(dp21
g6
L10L
sg7
L596L
sa(dp22
g6
L10L
sg7
L604L
sass."
EndChar

StartChar: uni0E23
Encoding: 435 3619 163
GlifName: uni0E_23
Width: 530
VWidth: 0
GlyphClass: 2
Flags: MW
AnchorPoint: "ThaiBelow.mark" 500 0 basechar 0
AnchorPoint: "ThaiTone.mark" 510 0 basechar 0
AnchorPoint: "ThaiAbove.mark" 560 0 basechar 0
LayerCount: 2
Fore
SplineSet
390 554 m 1
 392 559 394 563 396 566 c 2
 424 612 l 1
 488 600 l 1
 488 596 l 1
 409 493 l 1
 382 493 l 1
 366 516 326 560 246 560 c 0
 179 560 122 526 114 447 c 1
 293 441 408 409 408 311 c 2
 408 180 l 1
 408 111 l 2
 408 41 364 -8 286 -8 c 0
 226 -8 183 31 183 88 c 0
 183 145 226 184 286 184 c 0
 301 184 315 182 327 177 c 1
 324 190 323 203 323 215 c 2
 323 301 l 2
 323 377 231 403 33 403 c 1
 33 428 l 2
 33 543 115 618 233 618 c 0
 313 618 362 584 390 554 c 1
286 140 m 0
 255 140 234 118 234 88 c 0
 234 58 255 36 286 36 c 0
 317 36 338 58 338 88 c 0
 338 118 317 140 286 140 c 0
EndSplineSet
PickledDataWithLists: "(dp0
Vcom.fontlab.hintData
p1
(dp2
Vvhints
p3
(lp4
(dp5
Vwidth
p6
L10L
sVposition
p7
L31L
sa(dp8
g6
L10L
sg7
L111L
sa(dp9
g6
L10L
sg7
L116L
sa(dp10
g6
L10L
sg7
L362L
sa(dp11
g6
L10L
sg7
L446L
sa(dp12
g6
L10L
sg7
L479L
sasVhhints
p13
(lp14
(dp15
g6
L10L
sg7
L-16L
sa(dp16
g6
L10L
sg7
L46L
sa(dp17
g6
L10L
sg7
L91L
sa(dp18
g6
L10L
sg7
L494L
sa(dp19
g6
L10L
sg7
L548L
sa(dp20
g6
L10L
sg7
L610L
sass."
EndChar

StartChar: uni0E24
Encoding: 436 3620 164
GlifName: uni0E_24
Width: 655
VWidth: 0
GlyphClass: 2
Flags: MW
LayerCount: 2
Fore
SplineSet
315 618 m 0
 471 618 572 529 572 403 c 2
 572 -210 l 1
 487 -210 l 1
 487 403 l 2
 487 503 418 554 315 554 c 0
 226 554 168 510 148 441 c 1
 299 411 l 1
 290 374 l 2
 287 374 268 377 258 377 c 0
 215 377 193 353 193 305 c 2
 193 240 l 2
 193 217 189 198 182 183 c 1
 187 184 192 184 198 184 c 0
 258 184 301 145 301 88 c 0
 301 31 258 -8 198 -8 c 0
 138 -8 95 31 95 88 c 0
 95 134 108 166 108 210 c 2
 108 297 l 2
 108 350 134 382 178 396 c 1
 57 419 l 1
 71 523 157 618 315 618 c 0
198 140 m 0
 167 140 146 118 146 88 c 0
 146 58 167 36 198 36 c 0
 229 36 250 58 250 88 c 0
 250 118 229 140 198 140 c 0
EndSplineSet
PickledDataWithLists: "(dp0
Vcom.fontlab.hintData
p1
(dp2
Vvhints
p3
(lp4
(dp5
Vwidth
p6
L10L
sVposition
p7
L81L
sa(dp8
g6
L10L
sg7
L86L
sa(dp9
g6
L10L
sg7
L111L
sa(dp10
g6
L10L
sg7
L169L
sa(dp11
g6
L10L
sg7
L199L
sa(dp12
g6
L10L
sg7
L315L
sa(dp13
g6
L10L
sg7
L465L
sa(dp14
g6
L10L
sg7
L476L
sa(dp15
g6
L10L
sg7
L556L
sa(dp16
g6
L10L
sg7
L564L
sasVhhints
p17
(lp18
(dp19
g6
L10L
sg7
L-246L
sa(dp20
g6
L10L
sg7
L-19L
sa(dp21
g6
L10L
sg7
L43L
sa(dp22
g6
L10L
sg7
L56L
sa(dp23
g6
L10L
sg7
L544L
sa(dp24
g6
L10L
sg7
L606L
sass."
EndChar

StartChar: uni0E240E45.liga
Encoding: 808 63617 165
GlifName: uni0E_240E_45.liga
Width: 950
VWidth: 0
GlyphClass: 3
Flags: MW
LayerCount: 2
Fore
SplineSet
198 140 m 0
 167 140 146 118 146 88 c 0
 146 58 167 36 198 36 c 0
 229 36 250 58 250 88 c 0
 250 118 229 140 198 140 c 0
198 184 m 0
 258 184 301 145 301 88 c 0
 301 31 258 -8 198 -8 c 0
 138 -8 95 31 95 88 c 0
 95 134 108 166 108 210 c 2
 108 297 l 2
 108 350 134 382 178 396 c 1
 57 419 l 1
 71 523 157 618 315 618 c 0
 409 618 483 585 527 532 c 1
 554 577 603 612 679 612 c 0
 795 612 862 536 862 440 c 2
 862 -210 l 1
 777 -210 l 1
 777 440 l 2
 777 516 733 548 677 548 c 0
 614 548 579 501 567 448 c 1
 570 434 572 419 572 403 c 2
 572 -210 l 1
 487 -210 l 1
 487 403 l 2
 487 503 418 554 315 554 c 0
 226 554 168 510 148 441 c 1
 299 411 l 1
 290 374 l 2
 287 374 268 377 258 377 c 0
 215 377 193 353 193 305 c 2
 193 240 l 2
 193 217 189 198 182 183 c 1
 187 184 192 184 198 184 c 0
EndSplineSet
PickledDataWithLists: "(dp0
Vcom.fontlab.hintData
p1
(dp2
Vvhints
p3
(lp4
(dp5
Vwidth
p6
L10L
sVposition
p7
L81L
sa(dp8
g6
L10L
sg7
L86L
sa(dp9
g6
L10L
sg7
L111L
sa(dp10
g6
L10L
sg7
L169L
sa(dp11
g6
L10L
sg7
L199L
sa(dp12
g6
L10L
sg7
L315L
sa(dp13
g6
L10L
sg7
L465L
sa(dp14
g6
L10L
sg7
L476L
sa(dp15
g6
L10L
sg7
L556L
sa(dp16
g6
L10L
sg7
L563L
sa(dp17
g6
L10L
sg7
L756L
sa(dp18
g6
L10L
sg7
L782L
sa(dp19
g6
L10L
sg7
L844L
sa(dp20
g6
L10L
sg7
L870L
sasVhhints
p21
(lp22
(dp23
g6
L10L
sg7
L-245L
sa(dp24
g6
L10L
sg7
L-19L
sa(dp25
g6
L10L
sg7
L43L
sa(dp26
g6
L10L
sg7
L56L
sa(dp27
g6
L10L
sg7
L544L
sa(dp28
g6
L10L
sg7
L606L
sass."
Ligature2: "Thai.liga subtable" uni0E24 uni200D uni0E45
Ligature2: "Thai.liga subtable" uni0E24 uni0E45
Colour: ff00ff
EndChar

StartChar: uni0E25
Encoding: 437 3621 166
GlifName: uni0E_25
Width: 635
VWidth: 0
GlyphClass: 2
Flags: MW
LayerCount: 2
Fore
SplineSet
77 106 m 2
 77 206 l 2
 77 277 112 354 228 354 c 0
 339 354 419 280 467 209 c 1
 467 412 l 2
 467 507 403 554 305 554 c 0
 210 554 154 502 142 420 c 1
 57 426 l 1
 71 526 153 618 305 618 c 0
 454 618 552 534 552 412 c 2
 552 0 l 1
 467 0 l 1
 467 113 l 1
 440 180 352 296 233 296 c 0
 182 296 157 262 157 218 c 0
 157 198 155 184 153 176 c 1
 165 181 179 183 194 183 c 0
 254 183 297 144 297 87 c 0
 297 30 254 -9 194 -9 c 0
 178 -9 163 -6 150 -1 c 0
 104 15 77 55 77 106 c 2
194 139 m 0
 163 139 142 117 142 87 c 0
 142 57 163 35 194 35 c 0
 225 35 246 57 246 87 c 0
 246 117 225 139 194 139 c 0
EndSplineSet
PickledDataWithLists: "(dp0
Vcom.fontlab.hintData
p1
(dp2
Vvhints
p3
(lp4
(dp5
Vwidth
p6
L10L
sVposition
p7
L41L
sa(dp8
g6
L10L
sg7
L91L
sa(dp9
g6
L10L
sg7
L179L
sa(dp10
g6
L10L
sg7
L504L
sa(dp11
g6
L10L
sg7
L589L
sasVhhints
p12
(lp13
(dp14
g6
L10L
sg7
L-16L
sa(dp15
g6
L10L
sg7
L-6L
sa(dp16
g6
L10L
sg7
L296L
sa(dp17
g6
L10L
sg7
L414L
sa(dp18
g6
L10L
sg7
L549L
sa(dp19
g6
L10L
sg7
L610L
sass."
EndChar

StartChar: uni0E26
Encoding: 438 3622 167
GlifName: uni0E_26
Width: 670
VWidth: 0
GlyphClass: 2
Flags: MW
LayerCount: 2
Fore
SplineSet
144 140 m 0
 113 140 92 118 92 88 c 0
 92 58 113 36 144 36 c 0
 175 36 196 58 196 88 c 0
 196 118 175 140 144 140 c 0
325 618 m 0
 481 618 582 529 582 403 c 2
 582 -210 l 1
 497 -210 l 1
 497 403 l 2
 497 503 428 554 325 554 c 0
 236 554 180 511 159 442 c 1
 334 411 l 1
 325 374 l 2
 322 374 303 377 293 377 c 0
 250 377 228 353 228 305 c 2
 228 210 l 2
 228 166 247 134 247 88 c 0
 247 31 204 -8 144 -8 c 0
 84 -8 41 31 41 88 c 0
 41 145 84 184 144 184 c 0
 148 184 151 184 155 184 c 1
 148 199 143 218 143 240 c 2
 143 297 l 2
 143 349 169 381 212 395 c 1
 67 419 l 1
 81 523 167 618 325 618 c 0
EndSplineSet
PickledDataWithLists: "(dp0
Vcom.fontlab.hintData
p1
(dp2
Vvhints
p3
(lp4
(dp5
Vwidth
p6
L10L
sVposition
p7
L26L
sa(dp8
g6
L10L
sg7
L81L
sa(dp9
g6
L10L
sg7
L131L
sa(dp10
g6
L10L
sg7
L219L
sa(dp11
g6
L10L
sg7
L465L
sa(dp12
g6
L10L
sg7
L476L
sa(dp13
g6
L10L
sg7
L556L
sa(dp14
g6
L10L
sg7
L564L
sasVhhints
p15
(lp16
(dp17
g6
L10L
sg7
L-246L
sa(dp18
g6
L10L
sg7
L-16L
sa(dp19
g6
L10L
sg7
L66L
sa(dp20
g6
L10L
sg7
L544L
sa(dp21
g6
L10L
sg7
L606L
sass."
EndChar

StartChar: uni0E260E45.liga
Encoding: 809 63618 168
GlifName: uni0E_260E_45.liga
Width: 960
VWidth: 0
GlyphClass: 3
Flags: MW
LayerCount: 2
Fore
SplineSet
144 140 m 0
 113 140 92 118 92 88 c 0
 92 58 113 36 144 36 c 0
 175 36 196 58 196 88 c 0
 196 118 175 140 144 140 c 0
67 419 m 1
 81 523 167 618 325 618 c 0
 419 618 493 585 537 532 c 1
 564 577 613 612 689 612 c 0
 805 612 872 536 872 440 c 2
 872 -210 l 1
 787 -210 l 1
 787 440 l 2
 787 516 743 548 687 548 c 0
 624 548 589 501 577 448 c 1
 580 434 582 419 582 403 c 2
 582 -210 l 1
 497 -210 l 1
 497 403 l 2
 497 503 428 554 325 554 c 0
 236 554 180 511 159 442 c 1
 334 411 l 1
 325 374 l 2
 322 374 303 377 293 377 c 0
 250 377 228 353 228 305 c 2
 228 210 l 2
 228 166 247 134 247 88 c 0
 247 31 204 -8 144 -8 c 0
 84 -8 41 31 41 88 c 0
 41 145 84 184 144 184 c 0
 148 184 151 184 155 184 c 1
 148 199 143 218 143 240 c 2
 143 297 l 2
 143 349 169 381 212 395 c 1
 67 419 l 1
EndSplineSet
PickledDataWithLists: "(dp0
Vcom.fontlab.hintData
p1
(dp2
Vvhints
p3
(lp4
(dp5
Vwidth
p6
L10L
sVposition
p7
L26L
sa(dp8
g6
L10L
sg7
L81L
sa(dp9
g6
L10L
sg7
L131L
sa(dp10
g6
L10L
sg7
L219L
sa(dp11
g6
L10L
sg7
L465L
sa(dp12
g6
L10L
sg7
L476L
sa(dp13
g6
L10L
sg7
L556L
sa(dp14
g6
L10L
sg7
L563L
sa(dp15
g6
L10L
sg7
L756L
sa(dp16
g6
L10L
sg7
L782L
sa(dp17
g6
L10L
sg7
L844L
sa(dp18
g6
L10L
sg7
L870L
sasVhhints
p19
(lp20
(dp21
g6
L10L
sg7
L-245L
sa(dp22
g6
L10L
sg7
L-16L
sa(dp23
g6
L10L
sg7
L66L
sa(dp24
g6
L10L
sg7
L544L
sa(dp25
g6
L10L
sg7
L606L
sass."
Ligature2: "Thai.liga subtable" uni0E26 uni200D uni0E45
Ligature2: "Thai.liga subtable" uni0E26 uni0E45
Colour: ff00ff
EndChar

StartChar: uni0E27
Encoding: 439 3623 169
GlifName: uni0E_27
Width: 535
VWidth: 0
GlyphClass: 2
Flags: MW
AnchorPoint: "ThaiAbove.mark" 545 0 basechar 0
LayerCount: 2
Fore
SplineSet
23 454 m 1
 35 536 104 618 235 618 c 0
 367 618 448 534 448 426 c 2
 448 180 l 1
 448 111 l 2
 448 41 404 -8 326 -8 c 0
 266 -8 223 31 223 88 c 0
 223 145 266 184 326 184 c 0
 341 184 355 182 367 177 c 1
 364 190 363 203 363 215 c 2
 363 426 l 2
 363 513 307 554 235 554 c 0
 162 554 117 513 107 448 c 1
 23 454 l 1
326 140 m 0
 295 140 274 118 274 88 c 0
 274 58 295 36 326 36 c 0
 357 36 378 58 378 88 c 0
 378 118 357 140 326 140 c 0
EndSplineSet
PickledDataWithLists: "(dp0
Vcom.fontlab.hintData
p1
(dp2
Vvhints
p3
(lp4
(dp5
Vwidth
p6
L10L
sVposition
p7
L21L
sa(dp8
g6
L10L
sg7
L168L
sa(dp9
g6
L10L
sg7
L255L
sa(dp10
g6
L10L
sg7
L411L
sa(dp11
g6
L10L
sg7
L499L
sasVhhints
p12
(lp13
(dp14
g6
L10L
sg7
L-15L
sa(dp15
g6
L10L
sg7
L46L
sa(dp16
g6
L10L
sg7
L136L
sa(dp17
g6
L10L
sg7
L394L
sa(dp18
g6
L9L
sg7
L552L
sa(dp19
g6
L10L
sg7
L614L
sass."
EndChar

StartChar: uni0E28
Encoding: 440 3624 170
GlifName: uni0E_28
Width: 680
VWidth: 0
GlyphClass: 2
Flags: MW
LayerCount: 2
Fore
SplineSet
330 373 m 0
 299 373 278 351 278 321 c 0
 278 291 299 269 330 269 c 0
 361 269 382 291 382 321 c 0
 382 351 361 373 330 373 c 0
324 417 m 1
 361 452 403 490 444 523 c 1
 415 543 376 554 330 554 c 0
 228 554 160 503 160 403 c 0
 160 307 166 255 171 214 c 1
 188 286 217 352 258 389 c 0
 275 405 297 416 324 417 c 1
476 491 m 1
 442 465 407 437 375 409 c 1
 411 395 434 362 434 321 c 0
 434 264 390 225 330 225 c 0
 288 225 255 244 239 275 c 1
 216 234 197 178 190 105 c 1
 186 0 l 1
 93 0 l 1
 93 0 103 73 103 120 c 0
 103 224 78 249 78 403 c 0
 78 529 177 618 330 618 c 0
 397 618 453 601 496 571 c 1
 530 603 572 636 628 642 c 1
 643 568 l 1
 604 566 570 554 538 533 c 1
 567 498 583 453 583 403 c 2
 583 0 l 1
 498 0 l 1
 498 105 l 2
 498 145 501 307 501 403 c 0
 501 439 492 468 476 491 c 1
EndSplineSet
PickledDataWithLists: "(dp0
Vcom.fontlab.hintData
p1
(dp2
Vvhints
p3
(lp4
(dp5
Vwidth
p6
L10L
sVposition
p7
L59L
sa(dp8
g6
L10L
sg7
L142L
sa(dp9
g6
L10L
sg7
L439L
sa(dp10
g6
L10L
sg7
L508L
sa(dp11
g6
L10L
sg7
L590L
sa(dp12
g6
L10L
sg7
L637L
sasVhhints
p13
(lp14
(dp15
g6
L10L
sg7
L-18L
sa(dp16
g6
L10L
sg7
L-4L
sa(dp17
g6
L10L
sg7
L551L
sa(dp18
g6
L10L
sg7
L608L
sa(dp19
g6
L10L
sg7
L654L
sass."
EndChar

StartChar: uni0E29
Encoding: 441 3625 171
GlifName: uni0E_29
Width: 710
VWidth: 0
GlyphClass: 2
Flags: MW
LayerCount: 2
Fore
SplineSet
127 460 m 0
 158 460 179 482 179 512 c 0
 179 542 158 564 127 564 c 0
 96 564 75 542 75 512 c 0
 75 482 96 460 127 460 c 0
127 416 m 0
 67 416 24 455 24 512 c 0
 24 569 67 608 127 608 c 0
 187 608 230 569 230 512 c 0
 230 466 208 434 208 390 c 2
 208 184 l 2
 208 92 271 46 365 46 c 0
 459 46 523 92 523 184 c 2
 523 257 l 1
 494 253 463 251 430 251 c 0
 353 251 300 283 300 345 c 0
 300 389 334 420 380 420 c 0
 426 420 460 389 460 345 c 0
 460 323 451 304 437 291 c 1
 442 292 448 292 452 292 c 0
 476 292 500 294 523 298 c 1
 523 600 l 1
 608 600 l 1
 608 321 l 1
 637 331 663 342 685 354 c 1
 700 308 l 1
 673 296 643 283 608 274 c 1
 608 184 l 2
 608 66 511 -18 365 -18 c 0
 219 -18 123 66 123 184 c 2
 123 360 l 2
 123 382 128 401 136 416 c 1
 133 416 130 416 127 416 c 0
380 385 m 0
 356 385 341 368 341 345 c 0
 341 322 356 305 380 305 c 0
 404 305 419 322 419 345 c 0
 419 368 404 385 380 385 c 0
EndSplineSet
PickledDataWithLists: "(dp0
Vcom.fontlab.hintData
p1
(dp2
Vvhints
p3
(lp4
(dp5
Vwidth
p6
L10L
sVposition
p7
L84L
sa(dp8
g6
L10L
sg7
L109L
sa(dp9
g6
L10L
sg7
L191L
sa(dp10
g6
L10L
sg7
L312L
sa(dp11
g6
L10L
sg7
L375L
sa(dp12
g6
L10L
sg7
L524L
sa(dp13
g6
L10L
sg7
L529L
sa(dp14
g6
L10L
sg7
L606L
sa(dp15
g6
L10L
sg7
L708L
sasVhhints
p16
(lp17
(dp18
g6
L10L
sg7
L-24L
sa(dp19
g6
L10L
sg7
L34L
sa(dp20
g6
L10L
sg7
L391L
sa(dp21
g6
L10L
sg7
L439L
sa(dp22
g6
L10L
sg7
L561L
sa(dp23
g6
L10L
sg7
L599L
sa(dp24
g6
L10L
sg7
L609L
sa(dp25
g6
L10L
sg7
L629L
sass."
EndChar

StartChar: uni0E2A
Encoding: 442 3626 172
GlifName: uni0E_2A_
Width: 650
VWidth: 0
GlyphClass: 2
Flags: MW
LayerCount: 2
Fore
SplineSet
77 106 m 2
 77 206 l 2
 77 277 112 354 228 354 c 0
 229 354 l 0
 274 402 347 470 415 525 c 1
 387 545 350 554 305 554 c 0
 210 554 154 502 142 420 c 1
 57 426 l 1
 71 526 153 618 305 618 c 0
 370 618 426 601 468 573 c 1
 502 604 542 637 597 642 c 1
 612 568 l 1
 574 566 541 555 510 535 c 1
 537 502 552 460 552 412 c 2
 552 0 l 1
 467 0 l 1
 467 113 l 1
 440 180 352 296 233 296 c 0
 182 296 157 262 157 218 c 0
 157 198 155 184 153 176 c 1
 165 181 179 183 194 183 c 0
 254 183 297 144 297 87 c 0
 297 30 254 -9 194 -9 c 0
 178 -9 163 -6 150 -1 c 0
 104 15 77 55 77 106 c 2
194 139 m 0
 163 139 142 117 142 87 c 0
 142 57 163 35 194 35 c 0
 225 35 246 57 246 87 c 0
 246 117 225 139 194 139 c 0
280 348 m 1
 364 330 427 269 467 209 c 1
 467 412 l 2
 467 444 460 471 446 492 c 1
 385 446 323 391 280 348 c 1
EndSplineSet
PickledDataWithLists: "(dp0
Vcom.fontlab.hintData
p1
(dp2
Vvhints
p3
(lp4
(dp5
Vwidth
p6
L10L
sVposition
p7
L54L
sa(dp8
g6
L10L
sg7
L94L
sa(dp9
g6
L10L
sg7
L136L
sa(dp10
g6
L10L
sg7
L176L
sa(dp11
g6
L10L
sg7
L504L
sa(dp12
g6
L10L
sg7
L586L
sa(dp13
g6
L10L
sg7
L616L
sasVhhints
p14
(lp15
(dp16
g6
L10L
sg7
L-14L
sa(dp17
g6
L10L
sg7
L-4L
sa(dp18
g6
L10L
sg7
L294L
sa(dp19
g6
L10L
sg7
L370L
sa(dp20
g6
L10L
sg7
L429L
sa(dp21
g6
L10L
sg7
L548L
sa(dp22
g6
L10L
sg7
L606L
sa(dp23
g6
L10L
sg7
L654L
sass."
EndChar

StartChar: uni0E2B
Encoding: 443 3627 173
GlifName: uni0E_2B_
Width: 660
VWidth: 0
GlyphClass: 2
Flags: MW
LayerCount: 2
Fore
SplineSet
492 460 m 0
 523 460 544 482 544 512 c 0
 544 542 523 564 492 564 c 0
 461 564 440 542 440 512 c 0
 440 482 461 460 492 460 c 0
132 460 m 0
 163 460 184 482 184 512 c 0
 184 542 163 564 132 564 c 0
 101 564 80 542 80 512 c 0
 80 482 101 460 132 460 c 0
132 416 m 0
 72 416 29 455 29 512 c 0
 29 569 72 608 132 608 c 0
 192 608 235 569 235 512 c 0
 235 466 213 434 213 390 c 2
 213 230 l 1
 261 316 337 399 428 435 c 1
 404 452 389 479 389 512 c 0
 389 569 432 608 492 608 c 0
 552 608 595 569 595 512 c 0
 595 467 568 433 528 421 c 1
 552 406 573 388 573 360 c 2
 573 0 l 1
 488 0 l 1
 488 375 l 2
 488 382 486 389 483 395 c 1
 362 367 243 225 213 94 c 1
 213 0 l 1
 128 0 l 1
 128 360 l 2
 128 382 133 401 141 416 c 1
 138 416 135 416 132 416 c 0
EndSplineSet
PickledDataWithLists: "(dp0
Vcom.fontlab.hintData
p1
(dp2
Vvhints
p3
(lp4
(dp5
Vwidth
p6
L10L
sVposition
p7
L84L
sa(dp8
g6
L10L
sg7
L166L
sa(dp9
g6
L11L
sg7
L191L
sa(dp10
g6
L10L
sg7
L320L
sa(dp11
g6
L10L
sg7
L395L
sa(dp12
g6
L10L
sg7
L493L
sa(dp13
g6
L10L
sg7
L525L
sa(dp14
g6
L10L
sg7
L600L
sa(dp15
g6
L10L
sg7
L638L
sasVhhints
p16
(lp17
(dp18
g6
L10L
sg7
L-24L
sa(dp19
g6
L10L
sg7
L-12L
sa(dp20
g6
L10L
sg7
L553L
sa(dp21
g6
L10L
sg7
L589L
sa(dp22
g6
L10L
sg7
L602L
sass."
EndChar

StartChar: uni0E2C
Encoding: 444 3628 174
GlifName: uni0E_2C_
Width: 760
VWidth: 0
GlyphClass: 2
Flags: MW
AnchorPoint: "ThaiBelow.mark" 720 0 basechar 0
AnchorPoint: "ThaiTone.mark" 720 0 basechar 0
AnchorPoint: "ThaiAbove.mark" 720 0 basechar 0
LayerCount: 2
Fore
SplineSet
560 192 m 2
 560 420 l 2
 560 430 562 440 565 448 c 1
 558 447 551 446 544 446 c 0
 484 446 441 485 441 542 c 0
 441 599 484 638 544 638 c 0
 604 638 647 599 647 542 c 0
 647 540 647 537 647 535 c 1
 663 556 671 584 675 628 c 1
 727 622 l 1
 718 549 686 510 644 484 c 1
 643 470 642 456 642 435 c 2
 642 0 l 1
 569 0 l 1
 568 0 l 1
 568 2 l 1
 384 380 l 1
 199 0 l 1
 127 0 l 1
 127 360 l 2
 127 383 133 401 141 416 c 1
 137 416 134 416 130 416 c 0
 70 416 27 455 27 512 c 0
 27 569 70 608 130 608 c 0
 190 608 233 569 233 512 c 0
 233 463 209 433 209 385 c 2
 209 192 l 2
 209 171 206 147 203 129 c 1
 363 465 l 1
 384 465 l 1
 405 465 l 1
 564 129 l 1
 562 147 560 172 560 192 c 2
544 490 m 0
 575 490 596 512 596 542 c 0
 596 572 575 594 544 594 c 0
 513 594 492 572 492 542 c 0
 492 512 513 490 544 490 c 0
130 460 m 0
 161 460 182 482 182 512 c 0
 182 542 161 564 130 564 c 0
 99 564 78 542 78 512 c 0
 78 482 99 460 130 460 c 0
EndSplineSet
PickledDataWithLists: "(dp0
Vcom.fontlab.hintData
p1
(dp2
Vvhints
p3
(lp4
(dp5
Vwidth
p6
L10L
sVposition
p7
L58L
sa(dp8
g6
L10L
sg7
L104L
sa(dp9
g6
L10L
sg7
L185L
sa(dp10
g6
L10L
sg7
L367L
sa(dp11
g6
L10L
sg7
L430L
sa(dp12
g6
L10L
sg7
L587L
sa(dp13
g6
L10L
sg7
L661L
sa(dp14
g6
L10L
sg7
L760L
sasVhhints
p15
(lp16
(dp17
g6
L10L
sg7
L-18L
sa(dp18
g6
L10L
sg7
L-13L
sa(dp19
g6
L10L
sg7
L329L
sa(dp20
g6
L10L
sg7
L391L
sa(dp21
g6
L10L
sg7
L439L
sa(dp22
g6
L10L
sg7
L561L
sa(dp23
g6
L10L
sg7
L604L
sa(dp24
g6
L10L
sg7
L609L
sa(dp25
g6
L10L
sg7
L629L
sass."
EndChar

StartChar: uni0E2D
Encoding: 445 3629 175
GlifName: uni0E_2D_
Width: 635
VWidth: 0
GlyphClass: 2
Flags: MW
LayerCount: 2
Fore
SplineSet
57 426 m 1
 71 526 153 618 305 618 c 0
 454 618 552 534 552 412 c 2
 552 180 l 2
 552 65 461 -18 319 -18 c 0
 177 -18 87 65 87 180 c 2
 87 264 l 2
 87 321 130 360 190 360 c 0
 250 360 293 321 293 264 c 0
 293 207 250 168 190 168 c 0
 182 168 174 169 167 170 c 1
 172 87 236 46 319 46 c 0
 405 46 467 90 467 180 c 2
 467 412 l 2
 467 507 403 554 305 554 c 0
 210 554 154 502 142 420 c 1
 57 426 l 1
190 316 m 0
 159 316 138 294 138 264 c 0
 138 234 159 212 190 212 c 0
 221 212 242 234 242 264 c 0
 242 294 221 316 190 316 c 0
EndSplineSet
PickledDataWithLists: "(dp0
Vcom.fontlab.hintData
p1
(dp2
Vvhints
p3
(lp4
(dp5
Vwidth
p6
L10L
sVposition
p7
L50L
sa(dp8
g6
L10L
sg7
L61L
sa(dp9
g6
L10L
sg7
L149L
sa(dp10
g6
L10L
sg7
L289L
sa(dp11
g6
L10L
sg7
L481L
sa(dp12
g6
L10L
sg7
L569L
sasVhhints
p13
(lp14
(dp15
g6
L10L
sg7
L-19L
sa(dp16
g6
L10L
sg7
L43L
sa(dp17
g6
L10L
sg7
L215L
sa(dp18
g6
L10L
sg7
L230L
sa(dp19
g6
L10L
sg7
L292L
sa(dp20
g6
L10L
sg7
L414L
sa(dp21
g6
L9L
sg7
L549L
sa(dp22
g6
L10L
sg7
L611L
sass."
EndChar

StartChar: uni0E2E
Encoding: 446 3630 176
GlifName: uni0E_2E_
Width: 640
VWidth: 0
GlyphClass: 2
Flags: MW
LayerCount: 2
Fore
SplineSet
186 316 m 0
 155 316 134 294 134 264 c 0
 134 234 155 212 186 212 c 0
 217 212 238 234 238 264 c 0
 238 294 217 316 186 316 c 0
186 360 m 0
 246 360 289 321 289 264 c 0
 289 207 246 168 186 168 c 0
 178 168 170 169 163 170 c 1
 168 87 232 46 315 46 c 0
 401 46 463 90 463 180 c 2
 463 300 l 2
 463 364 469 385 469 420 c 0
 469 426 469 431 468 437 c 1
 431 414 376 395 289 395 c 0
 153 395 64 438 63 492 c 1
 63 493 l 0
 64 548 136 618 287 618 c 0
 396 618 463 574 495 535 c 1
 512 564 522 602 523 637 c 1
 598 630 l 1
 596 580 571 525 531 492 c 1
 541 473 548 446 548 420 c 2
 548 180 l 2
 548 65 457 -18 315 -18 c 0
 173 -18 83 65 83 180 c 2
 83 264 l 2
 83 321 126 360 186 360 c 0
143 493 m 0
 143 471 178 447 289 447 c 0
 371 447 422 464 453 487 c 1
 427 536 370 563 289 563 c 0
 192 563 144 529 143 493 c 0
EndSplineSet
PickledDataWithLists: "(dp0
Vcom.fontlab.hintData
p1
(dp2
Vvhints
p3
(lp4
(dp5
Vwidth
p6
L10L
sVposition
p7
L54L
sa(dp8
g6
L10L
sg7
L64L
sa(dp9
g6
L10L
sg7
L136L
sa(dp10
g6
L10L
sg7
L146L
sa(dp11
g6
L10L
sg7
L286L
sa(dp12
g6
L10L
sg7
L484L
sa(dp13
g6
L10L
sg7
L566L
sa(dp14
g6
L10L
sg7
L616L
sasVhhints
p15
(lp16
(dp17
g6
L10L
sg7
L-18L
sa(dp18
g6
L10L
sg7
L40L
sa(dp19
g6
L10L
sg7
L216L
sa(dp20
g6
L10L
sg7
L233L
sa(dp21
g6
L10L
sg7
L289L
sa(dp22
g6
L10L
sg7
L363L
sa(dp23
g6
L10L
sg7
L420L
sa(dp24
g6
L10L
sg7
L552L
sa(dp25
g6
L10L
sg7
L610L
sa(dp26
g6
L10L
sg7
L654L
sass."
EndChar

StartChar: uni0E2F
Encoding: 447 3631 177
GlifName: uni0E_2F_
Width: 495
VWidth: 0
GlyphClass: 2
Flags: MW
LayerCount: 2
Fore
SplineSet
150 564 m 0
 119 564 98 542 98 512 c 0
 98 482 119 460 150 460 c 0
 181 460 202 482 202 512 c 0
 202 542 181 564 150 564 c 0
150 608 m 0
 210 608 253 569 253 512 c 0
 253 488 246 468 233 452 c 1
 303 473 338 532 349 596 c 1
 389 600 l 1
 409 576 412 538 412 480 c 2
 412 145 l 2
 412 29 284 -4 162 -18 c 1
 149 44 l 1
 265 58 327 76 327 145 c 2
 327 410 l 2
 327 437 335 453 340 471 c 1
 305 432 251 405 177 405 c 0
 90 405 47 451 47 512 c 0
 47 569 90 608 150 608 c 0
EndSplineSet
PickledDataWithLists: "(dp0
Vcom.fontlab.hintData
p1
(dp2
Vvhints
p3
(lp4
(dp5
Vwidth
p6
L10L
sVposition
p7
L31L
sa(dp8
g6
L10L
sg7
L119L
sa(dp9
g6
L10L
sg7
L153L
sa(dp10
g6
L10L
sg7
L356L
sa(dp11
g6
L10L
sg7
L356L
sa(dp12
g6
L10L
sg7
L434L
sa(dp13
g6
L10L
sg7
L439L
sasVhhints
p14
(lp15
(dp16
g6
L10L
sg7
L-16L
sa(dp17
g6
L10L
sg7
L394L
sa(dp18
g6
L10L
sg7
L456L
sa(dp19
g6
L10L
sg7
L589L
sa(dp20
g6
L10L
sg7
L596L
sass."
EndChar

StartChar: uni0E30
Encoding: 448 3632 178
GlifName: uni0E_30
Width: 540
VWidth: 0
GlyphClass: 2
Flags: MW
LayerCount: 2
Fore
SplineSet
170 512 m 0
 139 512 118 490 118 460 c 0
 118 430 139 408 170 408 c 0
 201 408 222 430 222 460 c 0
 222 490 201 512 170 512 c 0
170 556 m 0
 230 556 273 517 273 460 c 0
 273 433 263 411 247 394 c 1
 287 394 l 2
 359 394 396 450 400 536 c 1
 472 527 l 1
 468 427 410 347 290 347 c 2
 214 347 l 2
 116 347 67 398 67 460 c 0
 67 517 110 556 170 556 c 0
170 212 m 0
 139 212 118 190 118 160 c 0
 118 130 139 108 170 108 c 0
 201 108 222 130 222 160 c 0
 222 190 201 212 170 212 c 0
170 256 m 0
 230 256 273 217 273 160 c 0
 273 133 263 111 247 94 c 1
 287 94 l 2
 359 94 396 150 400 236 c 1
 472 227 l 1
 468 127 410 47 290 47 c 2
 214 47 l 2
 116 47 67 98 67 160 c 0
 67 217 110 256 170 256 c 0
EndSplineSet
PickledDataWithLists: "(dp0
Vcom.fontlab.hintData
p1
(dp2
Vvhints
p3
(lp4
(dp5
Vwidth
p6
L10L
sVposition
p7
L51L
sa(dp8
g6
L10L
sg7
L60L
sa(dp9
g6
L10L
sg7
L139L
sa(dp10
g6
L10L
sg7
L144L
sa(dp11
g6
L10L
sg7
L154L
sa(dp12
g6
L10L
sg7
L450L
sasVhhints
p13
(lp14
(dp15
g6
L10L
sg7
L60L
sa(dp16
g6
L10L
sg7
L122L
sa(dp17
g6
L10L
sg7
L228L
sa(dp18
g6
L10L
sg7
L360L
sa(dp19
g6
L10L
sg7
L421L
sa(dp20
g6
L10L
sg7
L536L
sass."
EndChar

StartChar: uni0E31
Encoding: 449 3633 179
GlifName: uni0E_31
Width: 0
VWidth: 0
GlyphClass: 4
Flags: MW
AnchorPoint: "ThaiExtendedAbove.mkmk" 0 0 basemark 0
AnchorPoint: "ThaiAbove.mark" 0 0 mark 0
LayerCount: 2
Fore
SplineSet
-270 851 m 0
 -294 851 -311 834 -311 810 c 0
 -311 786 -294 769 -270 769 c 0
 -246 769 -229 786 -229 810 c 0
 -229 834 -246 851 -270 851 c 0
-270 889 m 0
 -220 889 -185 858 -185 810 c 0
 -185 784 -195 763 -213 749 c 1
 -207 749 -201 749 -195 749 c 2
 -170 749 l 2
 -106 749 -55 782 -55 876 c 1
 10 869 l 1
 10 767 -60 706 -160 706 c 2
 -215 706 l 2
 -301 706 -355 744 -355 810 c 0
 -355 858 -320 889 -270 889 c 0
EndSplineSet
PickledDataWithLists: "(dp0
Vcom.fontlab.hintData
p1
(dp2
Vvhints
p3
(lp4
(dp5
Vwidth
p6
L10L
sVposition
p7
L-391L
sa(dp8
g6
L10L
sg7
L-313L
sa(dp9
g6
L10L
sg7
L-306L
sa(dp10
g6
L10L
sg7
L55L
sasVhhints
p11
(lp12
(dp13
g6
L10L
sg7
L717L
sa(dp14
g6
L10L
sg7
L772L
sa(dp15
g6
L10L
sg7
L882L
sa(dp16
g6
L10L
sg7
L952L
sass."
Substitution2: "Thai.sl subtable" uni0E31.sl
EndChar

StartChar: uni0E32
Encoding: 450 3634 180
GlifName: uni0E_32
Width: 485
VWidth: 0
GlyphClass: 2
Flags: MW
LayerCount: 2
Fore
SplineSet
22 472 m 1
 32 544 93 618 210 618 c 0
 328 618 397 542 397 446 c 2
 397 0 l 1
 312 0 l 1
 312 446 l 2
 312 522 267 554 210 554 c 0
 152 554 115 520 107 464 c 1
 22 472 l 1
EndSplineSet
PickledDataWithLists: "(dp0
Vcom.fontlab.hintData
p1
(dp2
Vvhints
p3
(lp4
(dp5
Vwidth
p6
L10L
sVposition
p7
L15L
sa(dp8
g6
L10L
sg7
L291L
sa(dp9
g6
L10L
sg7
L312L
sa(dp10
g6
L10L
sg7
L379L
sa(dp11
g6
L10L
sg7
L400L
sasVhhints
p12
(lp13
(dp14
g6
L10L
sg7
L-25L
sa(dp15
g6
L10L
sg7
L399L
sa(dp16
g6
L10L
sg7
L545L
sa(dp17
g6
L10L
sg7
L606L
sass."
EndChar

StartChar: uni0E34
Encoding: 452 3636 182
GlifName: uni0E_34
Width: 0
VWidth: 0
GlyphClass: 4
Flags: MW
AnchorPoint: "ThaiExtendedAbove.mkmk" 0 0 basemark 0
AnchorPoint: "ThaiAbove.mark" 0 0 mark 0
LayerCount: 2
Fore
SplineSet
-445 767 m 1
 -176 723 l 1
 -202 769 -256 838 -353 838 c 0
 -399 838 -435 814 -445 767 c 1
-112 695 m 1
 -120 680 l 1
 -517 740 l 1
 -517 814 -465 885 -355 885 c 0
 -189 885 -128 731 -112 695 c 1
EndSplineSet
PickledDataWithLists: "(dp0
Vcom.fontlab.hintData
p1
(dp2
Vvhints
p3
(lp4
(dp5
Vwidth
p6
L10L
sVposition
p7
L-534L
sa(dp8
g6
L10L
sg7
L-456L
sasVhhints
p9
(lp10
(dp11
g6
L10L
sg7
L682L
sa(dp12
g6
L9L
sg7
L871L
sa(dp13
g6
L10L
sg7
L919L
sass."
Substitution2: "Thai.sl subtable" uni0E34.sl
EndChar

StartChar: uni0E35
Encoding: 453 3637 183
GlifName: uni0E_35
Width: 0
VWidth: 0
GlyphClass: 4
Flags: MW
AnchorPoint: "ThaiExtendedAbove.mkmk" 0 0 basemark 0
AnchorPoint: "ThaiAbove.mark" 0 0 mark 0
LayerCount: 2
Fore
SplineSet
-166 810 m 2
 -166 890 l 1
 -102 878 l 1
 -102 687 l 1
 -112 675 l 1
 -517 735 l 1
 -517 809 -465 880 -360 880 c 0
 -254 880 -190 807 -155 750 c 1
 -161 770 -166 792 -166 810 c 2
-445 763 m 1
 -162 717 l 1
 -190 763 -250 833 -353 833 c 0
 -399 833 -435 810 -445 763 c 1
EndSplineSet
PickledDataWithLists: "(dp0
Vcom.fontlab.hintData
p1
(dp2
Vvhints
p3
(lp4
(dp5
Vwidth
p6
L10L
sVposition
p7
L-530L
sa(dp8
g6
L10L
sg7
L-460L
sa(dp9
g6
L10L
sg7
L-189L
sa(dp10
g6
L10L
sg7
L-175L
sa(dp11
g6
L10L
sg7
L-116L
sasVhhints
p12
(lp13
(dp14
g6
L10L
sg7
L691L
sa(dp15
g6
L10L
sg7
L861L
sa(dp16
g6
L10L
sg7
L909L
sa(dp17
g6
L10L
sg7
L929L
sass."
Substitution2: "Thai.sl subtable" uni0E35.sl
EndChar

StartChar: uni0E36
Encoding: 454 3638 184
GlifName: uni0E_36
Width: 0
VWidth: 0
GlyphClass: 4
Flags: MW
AnchorPoint: "ThaiExtendedAbove.mkmk" 0 0 basemark 0
AnchorPoint: "ThaiAbove.mark" 0 0 mark 0
LayerCount: 2
Fore
SplineSet
-185 837 m 0
 -216 837 -237 815 -237 785 c 0
 -237 755 -216 733 -185 733 c 0
 -154 733 -133 755 -133 785 c 0
 -133 815 -154 837 -185 837 c 0
-185 881 m 0
 -125 881 -82 842 -82 785 c 0
 -82 728 -125 689 -185 689 c 0
 -204 689 -221 693 -236 700 c 1
 -517 735 l 1
 -517 809 -465 880 -360 880 c 0
 -320 880 -290 866 -266 847 c 1
 -248 868 -219 881 -185 881 c 0
-284 813 m 1
 -302 825 -324 833 -353 833 c 0
 -399 833 -435 810 -445 763 c 1
 -277 739 l 1
 -284 752 -288 768 -288 785 c 0
 -288 795 -287 804 -284 813 c 1
EndSplineSet
PickledDataWithLists: "(dp0
Vcom.fontlab.hintData
p1
(dp2
Vvhints
p3
(lp4
(dp5
Vwidth
p6
L10L
sVposition
p7
L-544L
sa(dp8
g6
L10L
sg7
L-466L
sa(dp9
g6
L10L
sg7
L-208L
sa(dp10
g6
L10L
sg7
L-134L
sa(dp11
g6
L10L
sg7
L-84L
sasVhhints
p12
(lp13
(dp14
g6
L10L
sg7
L689L
sa(dp15
g6
L10L
sg7
L723L
sa(dp16
g6
L21L
sg7
L824L
sa(dp17
g6
L10L
sg7
L861L
sa(dp18
g6
L10L
sg7
L892L
sa(dp19
g6
L10L
sg7
L909L
sass."
Substitution2: "Thai.sl subtable" uni0E36.sl
EndChar

StartChar: uni0E37
Encoding: 455 3639 185
GlifName: uni0E_37
Width: 0
VWidth: 0
GlyphClass: 4
Flags: MW
AnchorPoint: "ThaiExtendedAbove.mkmk" 0 0 basemark 0
AnchorPoint: "ThaiAbove.mark" 0 0 mark 0
LayerCount: 2
Fore
SplineSet
-267 860 m 2
 -267 915 l 1
 -213 903 l 1
 -213 725 l 1
 -147 714 l 1
 -152 726 -156 741 -156 760 c 2
 -156 890 l 1
 -102 878 l 1
 -102 687 l 1
 -112 675 l 1
 -517 735 l 1
 -517 809 -470 880 -370 880 c 0
 -319 880 -286 859 -263 833 c 1
 -266 842 -267 852 -267 860 c 2
-234 728 m 1
 -252 777 -288 833 -363 833 c 0
 -405 833 -437 810 -446 763 c 1
 -234 728 l 1
EndSplineSet
PickledDataWithLists: "(dp0
Vcom.fontlab.hintData
p1
(dp2
Vvhints
p3
(lp4
(dp5
Vwidth
p6
L10L
sVposition
p7
L-554L
sa(dp8
g6
L10L
sg7
L-476L
sa(dp9
g6
L10L
sg7
L-280L
sa(dp10
g6
L10L
sg7
L-218L
sa(dp11
g6
L10L
sg7
L-159L
sa(dp12
g6
L10L
sg7
L-148L
sa(dp13
g6
L10L
sg7
L-100L
sasVhhints
p14
(lp15
(dp16
g6
L10L
sg7
L698L
sa(dp17
g6
L10L
sg7
L861L
sa(dp18
g6
L10L
sg7
L909L
sa(dp19
g6
L10L
sg7
L922L
sa(dp20
g6
L10L
sg7
L932L
sass."
Substitution2: "Thai.sl subtable" uni0E37.sl
EndChar

StartChar: uni0E38
Encoding: 456 3640 186
GlifName: uni0E_38
Width: 0
VWidth: 0
GlyphClass: 4
Flags: MW
AnchorPoint: "ThaiExtendedBelow.mkmk" 0 0 mark 0
AnchorPoint: "ThaiExtendedBelow.mkmk" 0 -280 basemark 0
AnchorPoint: "ThaiBelow.mark" 0 0 mark 0
LayerCount: 2
Fore
SplineSet
-180 -109 m 0
 -204 -109 -221 -126 -221 -150 c 0
 -221 -174 -204 -191 -180 -191 c 0
 -156 -191 -139 -174 -139 -150 c 0
 -139 -126 -156 -109 -180 -109 c 0
-163 -305 m 1
 -163 -250 l 2
 -163 -241 -161 -234 -158 -227 c 1
 -165 -228 -172 -229 -180 -229 c 0
 -230 -229 -265 -198 -265 -150 c 0
 -265 -102 -230 -71 -180 -71 c 0
 -130 -71 -95 -102 -95 -150 c 0
 -95 -191 -103 -204 -103 -236 c 2
 -103 -305 l 1
 -163 -305 l 1
EndSplineSet
PickledDataWithLists: "(dp0
Vcom.fontlab.hintData
p1
(dp2
Vvhints
p3
(lp4
(dp5
Vwidth
p6
L10L
sVposition
p7
L-285L
sa(dp8
g6
L10L
sg7
L-185L
sa(dp9
g6
L10L
sg7
L-104L
sasVhhints
p10
(lp11
(dp12
g6
L10L
sg7
L-322L
sa(dp13
g6
L10L
sg7
L-172L
sa(dp14
g6
L10L
sg7
L-98L
sass."
Substitution2: "ThaiBV.sd subtable" uni0E38.sd
EndChar

StartChar: uni0E39
Encoding: 457 3641 187
GlifName: uni0E_39
Width: 0
VWidth: 0
GlyphClass: 4
Flags: MW
AnchorPoint: "ThaiExtendedBelow.mkmk" 0 0 mark 0
AnchorPoint: "ThaiExtendedBelow.mkmk" 0 -280 basemark 0
AnchorPoint: "ThaiBelow.mark" -30 0 mark 0
LayerCount: 2
Fore
SplineSet
-340 -109 m 0
 -364 -109 -381 -126 -381 -150 c 0
 -381 -174 -364 -191 -340 -191 c 0
 -316 -191 -299 -174 -299 -150 c 0
 -299 -126 -316 -109 -340 -109 c 0
-255 -150 m 0
 -255 -188 -265 -199 -265 -221 c 2
 -265 -240 l 2
 -265 -257 -251 -270 -212 -270 c 0
 -173 -270 -159 -257 -159 -240 c 2
 -159 -77 l 1
 -100 -77 l 1
 -100 -245 l 2
 -100 -289 -148 -310 -212 -310 c 0
 -276 -310 -322 -294 -322 -250 c 2
 -322 -228 l 1
 -328 -229 -334 -229 -340 -229 c 0
 -390 -229 -425 -198 -425 -150 c 0
 -425 -102 -390 -71 -340 -71 c 0
 -290 -71 -255 -102 -255 -150 c 0
EndSplineSet
PickledDataWithLists: "(dp0
Vcom.fontlab.hintData
p1
(dp2
Vvhints
p3
(lp4
(dp5
Vwidth
p6
L10L
sVposition
p7
L-401L
sa(dp8
g6
L10L
sg7
L-115L
sasVhhints
p9
(lp10
(dp11
g6
L10L
sg7
L-331L
sa(dp12
g6
L21L
sg7
L-267L
sa(dp13
g6
L10L
sg7
L-154L
sa(dp14
g6
L10L
sg7
L-106L
sass."
Substitution2: "ThaiBV.sd subtable" uni0E39.sd
EndChar

StartChar: uni0E3A
Encoding: 458 3642 188
GlifName: uni0E_3A_
Width: 0
VWidth: 0
GlyphClass: 4
Flags: MW
AnchorPoint: "ThaiExtendedBelow.mkmk" 0 0 mark 0
AnchorPoint: "ThaiExtendedBelow.mkmk" 0 -210 basemark 0
AnchorPoint: "ThaiBelow.mark" 0 0 mark 0
LayerCount: 2
Fore
SplineSet
-150 -82 m 0
 -109 -82 -78 -108 -78 -150 c 0
 -78 -192 -109 -218 -150 -218 c 0
 -191 -218 -222 -192 -222 -150 c 0
 -222 -108 -191 -82 -150 -82 c 0
EndSplineSet
PickledDataWithLists: "(dp0
Vcom.fontlab.hintData
p1
(dp2
Vvhints
p3
(lp4
(dp5
Vwidth
p6
L10L
sVposition
p7
L-229L
sa(dp8
g6
L10L
sg7
L-81L
sasVhhints
p9
(lp10
(dp11
g6
L10L
sg7
L-231L
sa(dp12
g6
L10L
sg7
L-110L
sass."
Substitution2: "ThaiBV.sd subtable" uni0E3A.sd
EndChar

StartChar: uni0E3F
Encoding: 459 3647 189
GlifName: uni0E_3F_
Width: 720
VWidth: 0
GlyphClass: 2
Flags: MW
LayerCount: 2
Fore
SplineSet
455 430 m 1
 568 402 643 332 643 221 c 0
 643 83 528 3 367 -8 c 1
 367 -120 l 1
 298 -120 l 1
 298 -9 l 1
 201 -8 123 -2 98 0 c 1
 98 780 l 1
 122 782 198 789 298 789 c 1
 298 900 l 1
 367 900 l 1
 367 784 l 1
 482 766 568 702 568 594 c 0
 568 512 520 459 455 430 c 1
188 717 m 1
 188 440 l 1
 218 442 256 443 298 444 c 1
 298 721 l 2
 295 721 291 721 288 721 c 0
 245 721 212 719 188 717 c 1
188 64 m 1
 215 62 253 60 298 60 c 1
 298 380 l 1
 253 380 215 378 188 376 c 1
 188 64 l 1
367 451 m 1
 426 468 476 512 476 587 c 0
 476 656 433 697 367 713 c 1
 367 451 l 1
367 62 m 1
 472 72 550 120 550 221 c 0
 550 322 472 368 367 378 c 1
 367 62 l 1
EndSplineSet
PickledDataWithLists: "(dp0
Vcom.fontlab.hintData
p1
(dp2
Vvhints
p3
(lp4
(dp5
Vwidth
p6
L10L
sVposition
p7
L26L
sa(dp8
g6
L10L
sg7
L116L
sa(dp9
g6
L10L
sg7
L121L
sa(dp10
g6
L10L
sg7
L223L
sa(dp11
g6
L10L
sg7
L343L
sa(dp12
g6
L10L
sg7
L350L
sa(dp13
g6
L10L
sg7
L407L
sa(dp14
g6
L10L
sg7
L412L
sa(dp15
g6
L10L
sg7
L537L
sa(dp16
g6
L10L
sg7
L636L
sa(dp17
g6
L10L
sg7
L735L
sasVhhints
p18
(lp19
(dp20
g6
L10L
sg7
L-127L
sa(dp21
g6
L10L
sg7
L-22L
sa(dp22
g6
L10L
sg7
L49L
sa(dp23
g6
L10L
sg7
L395L
sa(dp24
g6
L10L
sg7
L634L
sa(dp25
g6
L10L
sg7
L661L
sa(dp26
g6
L10L
sg7
L916L
sass."
EndChar

StartChar: uni0E40
Encoding: 460 3648 190
GlifName: uni0E_40
Width: 330
VWidth: 0
GlyphClass: 2
Flags: MW
LayerCount: 2
Fore
SplineSet
200 140 m 0
 169 140 148 118 148 88 c 0
 148 58 169 36 200 36 c 0
 231 36 252 58 252 88 c 0
 252 118 231 140 200 140 c 0
200 184 m 0
 260 184 303 145 303 88 c 0
 303 31 260 -8 200 -8 c 0
 140 -8 97 31 97 88 c 0
 97 134 110 166 110 210 c 2
 110 600 l 1
 195 600 l 1
 195 240 l 2
 195 217 191 198 184 183 c 1
 189 184 194 184 200 184 c 0
EndSplineSet
PickledDataWithLists: "(dp0
Vcom.fontlab.hintData
p1
(dp2
Vvhints
p3
(lp4
(dp5
Vwidth
p6
L10L
sVposition
p7
L116L
sa(dp8
g6
L10L
sg7
L121L
sa(dp9
g6
L10L
sg7
L204L
sa(dp10
g6
L10L
sg7
L209L
sa(dp11
g6
L10L
sg7
L244L
sasVhhints
p12
(lp13
(dp14
g6
L10L
sg7
L-30L
sa(dp15
g6
L10L
sg7
L586L
sass."
EndChar

StartChar: uni0E42
Encoding: 462 3650 192
GlifName: uni0E_42
Width: 380
VWidth: 0
GlyphClass: 2
Flags: MW
LayerCount: 2
Fore
SplineSet
242 140 m 0
 211 140 190 118 190 88 c 0
 190 58 211 36 242 36 c 0
 273 36 294 58 294 88 c 0
 294 118 273 140 242 140 c 0
242 184 m 0
 302 184 345 145 345 88 c 0
 345 31 302 -8 242 -8 c 0
 182 -8 139 31 139 88 c 0
 139 134 152 166 152 210 c 2
 152 630 l 2
 152 691 135 718 -1 718 c 1
 -1 740 l 2
 -1 840 66 912 176 912 c 0
 245 912 290 878 316 848 c 1
 318 853 320 858 322 861 c 2
 350 907 l 1
 414 895 l 1
 414 891 l 1
 334 787 l 1
 307 787 l 1
 291 810 258 855 186 855 c 0
 130 855 85 824 79 756 c 1
 197 746 237 707 237 630 c 2
 237 240 l 2
 237 217 233 198 226 183 c 1
 231 184 236 184 242 184 c 0
EndSplineSet
PickledDataWithLists: "(dp0
Vcom.fontlab.hintData
p1
(dp2
Vvhints
p3
(lp4
(dp5
Vwidth
p6
L10L
sVposition
p7
L37L
sa(dp8
g6
L10L
sg7
L165L
sa(dp9
g6
L10L
sg7
L175L
sa(dp10
g6
L10L
sg7
L248L
sa(dp11
g6
L10L
sg7
L257L
sa(dp12
g6
L10L
sg7
L268L
sa(dp13
g6
L10L
sg7
L517L
sasVhhints
p14
(lp15
(dp16
g6
L10L
sg7
L-29L
sa(dp17
g6
L10L
sg7
L924L
sa(dp18
g6
L10L
sg7
L984L
sass."
EndChar

StartChar: uni0E43
Encoding: 463 3651 193
GlifName: uni0E_43
Width: 380
VWidth: 0
GlyphClass: 2
Flags: MW
LayerCount: 2
Fore
SplineSet
242 184 m 0
 302 184 345 145 345 88 c 0
 345 31 302 -8 242 -8 c 0
 182 -8 139 31 139 88 c 0
 139 134 152 166 152 210 c 2
 152 510 l 2
 152 648 291 662 291 774 c 0
 291 834 248 866 175 866 c 0
 168 866 161 866 154 865 c 1
 192 851 216 819 216 776 c 0
 216 719 173 680 113 680 c 0
 53 680 10 719 10 776 c 0
 10 848 72 912 182 912 c 0
 290 912 355 854 355 768 c 0
 355 644 237 632 237 510 c 2
 237 240 l 2
 237 217 233 198 226 183 c 1
 231 184 236 184 242 184 c 0
242 140 m 0
 211 140 190 118 190 88 c 0
 190 58 211 36 242 36 c 0
 273 36 294 58 294 88 c 0
 294 118 273 140 242 140 c 0
113 828 m 0
 82 828 61 806 61 776 c 0
 61 746 82 724 113 724 c 0
 144 724 165 746 165 776 c 0
 165 806 144 828 113 828 c 0
EndSplineSet
PickledDataWithLists: "(dp0
Vcom.fontlab.hintData
p1
(dp2
Vvhints
p3
(lp4
(dp5
Vwidth
p6
L10L
sVposition
p7
L1L
sa(dp8
g6
L10L
sg7
L82L
sa(dp9
g6
L10L
sg7
L189L
sa(dp10
g6
L10L
sg7
L232L
sa(dp11
g6
L10L
sg7
L270L
sa(dp12
g6
L10L
sg7
L279L
sa(dp13
g6
L10L
sg7
L311L
sasVhhints
p14
(lp15
(dp16
g6
L10L
sg7
L-24L
sa(dp17
g6
L10L
sg7
L642L
sa(dp18
g6
L10L
sg7
L948L
sa(dp19
g6
L10L
sg7
L1002L
sass."
EndChar

StartChar: uni0E44
Encoding: 464 3652 194
GlifName: uni0E_44
Width: 380
VWidth: 0
GlyphClass: 2
Flags: MW
LayerCount: 2
Fore
SplineSet
242 140 m 0
 211 140 190 118 190 88 c 0
 190 58 211 36 242 36 c 0
 273 36 294 58 294 88 c 0
 294 118 273 140 242 140 c 0
242 184 m 0
 302 184 345 145 345 88 c 0
 345 31 302 -8 242 -8 c 0
 182 -8 139 31 139 88 c 0
 139 134 152 166 152 210 c 2
 152 525 l 2
 152 647 304 769 304 832 c 0
 304 846 294 863 272 863 c 1
 252 858 233 832 225 818 c 0
 211 794 149 705 149 705 c 1
 117 705 l 1
 -1 887 l 1
 -1 891 l 1
 56 908 l 1
 117 807 l 2
 124 793 131 778 136 765 c 1
 150 789 170 822 186 848 c 0
 199 870 222 908 280 908 c 0
 344 908 364 864 364 834 c 0
 364 744 237 663 237 525 c 2
 237 240 l 2
 237 217 233 198 226 183 c 1
 231 184 236 184 242 184 c 0
EndSplineSet
PickledDataWithLists: "(dp0
Vcom.fontlab.hintData
p1
(dp2
Vvhints
p3
(lp4
(dp5
Vwidth
p6
L10L
sVposition
p7
L-47L
sa(dp8
g6
L10L
sg7
L152L
sa(dp9
g6
L10L
sg7
L234L
sa(dp10
g6
L10L
sg7
L415L
sasVhhints
p11
(lp12
(dp13
g6
L10L
sg7
L-28L
sa(dp14
g6
L10L
sg7
L849L
sa(dp15
g6
L10L
sg7
L906L
sa(dp16
g6
L10L
sg7
L1003L
sass."
EndChar

StartChar: uni0E45
Encoding: 465 3653 195
GlifName: uni0E_45
Width: 485
VWidth: 0
GlyphClass: 2
Flags: MW
LayerCount: 2
Fore
SplineSet
22 472 m 1
 32 544 93 618 210 618 c 0
 328 618 397 542 397 446 c 2
 397 -210 l 1
 312 -210 l 1
 312 446 l 2
 312 522 267 554 210 554 c 0
 152 554 115 520 107 464 c 1
 22 472 l 1
EndSplineSet
PickledDataWithLists: "(dp0
Vcom.fontlab.hintData
p1
(dp2
Vvhints
p3
(lp4
(dp5
Vwidth
p6
L10L
sVposition
p7
L15L
sa(dp8
g6
L10L
sg7
L291L
sa(dp9
g6
L10L
sg7
L312L
sa(dp10
g6
L10L
sg7
L379L
sa(dp11
g6
L10L
sg7
L400L
sasVhhints
p12
(lp13
(dp14
g6
L10L
sg7
L-245L
sa(dp15
g6
L10L
sg7
L399L
sa(dp16
g6
L10L
sg7
L545L
sa(dp17
g6
L10L
sg7
L606L
sass."
EndChar

StartChar: uni0E46
Encoding: 466 3654 196
GlifName: uni0E_46
Width: 590
VWidth: 0
Flags: MW
LayerCount: 2
Fore
SplineSet
208 384 m 0
 177 384 156 362 156 332 c 0
 156 302 177 280 208 280 c 0
 239 280 260 302 260 332 c 0
 260 362 239 384 208 384 c 0
208 428 m 0
 268 428 311 389 311 332 c 0
 311 275 268 236 208 236 c 0
 108 236 57 320 57 418 c 0
 57 538 129 604 189 612 c 1
 280 530 l 1
 371 612 l 1
 431 604 502 537 502 417 c 2
 502 -210 l 1
 417 -210 l 1
 417 417 l 2
 417 472 400 515 368 539 c 1
 287 470 l 1
 280 470 l 1
 273 470 l 1
 186 545 l 1
 149 522 127 478 127 418 c 0
 127 411 127 403 128 395 c 1
 146 416 175 428 208 428 c 0
EndSplineSet
PickledDataWithLists: "(dp0
Vcom.fontlab.hintData
p1
(dp2
Vvhints
p3
(lp4
(dp5
Vwidth
p6
L10L
sVposition
p7
L54L
sa(dp8
g6
L10L
sg7
L136L
sa(dp9
g6
L10L
sg7
L262L
sa(dp10
g6
L10L
sg7
L434L
sa(dp11
g6
L10L
sg7
L444L
sa(dp12
g6
L10L
sg7
L516L
sa(dp13
g6
L10L
sg7
L526L
sasVhhints
p14
(lp15
(dp16
g6
L10L
sg7
L-244L
sa(dp17
g6
L10L
sg7
L216L
sa(dp18
g6
L10L
sg7
L274L
sa(dp19
g6
L10L
sg7
L390L
sa(dp20
g6
L10L
sg7
L536L
sa(dp21
g6
L10L
sg7
L588L
sa(dp22
g6
L10L
sg7
L594L
sass."
EndChar

StartChar: uni0E47
Encoding: 467 3655 197
GlifName: uni0E_47
Width: 0
VWidth: 0
GlyphClass: 4
Flags: MW
AnchorPoint: "ThaiExtendedAbove.mkmk" -80 0 basemark 0
AnchorPoint: "ThaiAbove.mark" 0 0 mark 0
LayerCount: 2
Fore
SplineSet
-176 784 m 0
 -200 784 -215 767 -215 744 c 0
 -215 721 -200 704 -176 704 c 0
 -152 704 -137 721 -137 744 c 0
 -137 767 -152 784 -176 784 c 0
-176 819 m 0
 -130 819 -96 788 -96 744 c 0
 -96 700 -130 669 -176 669 c 0
 -222 669 -256 700 -256 744 c 0
 -302 674 l 1
 -303 675 l 1
 -303 674 l 1
 -379 674 -435 710 -435 785 c 0
 -435 860 -379 896 -303 896 c 2
 -186 896 l 2
 -148 896 -115 902 -97 918 c 1
 -75 878 l 1
 -103 856 -141 853 -183 853 c 2
 -303 853 l 2
 -351 853 -381 833 -381 785 c 0
 -381 743 -358 722 -320 718 c 1
 -268 795 l 1
 -262 795 l 1
 -246 783 l 1
 -233 806 -207 819 -176 819 c 0
EndSplineSet
PickledDataWithLists: "(dp0
Vcom.fontlab.hintData
p1
(dp2
Vvhints
p3
(lp4
(dp5
Vwidth
p6
L10L
sVposition
p7
L-460L
sa(dp8
g6
L10L
sg7
L-390L
sa(dp9
g6
L10L
sg7
L-265L
sa(dp10
g6
L10L
sg7
L-100L
sa(dp11
g6
L10L
sg7
L-71L
sasVhhints
p12
(lp13
(dp14
g6
L10L
sg7
L691L
sa(dp15
g6
L10L
sg7
L739L
sa(dp16
g6
L10L
sg7
L806L
sa(dp17
g6
L10L
sg7
L861L
sa(dp18
g6
L10L
sg7
L909L
sa(dp19
g6
L10L
sg7
L929L
sass."
Substitution2: "Thai.sul subtable" uni0E47.sul
Substitution2: "Thai.su subtable" uni0E47.su
Substitution2: "Thai.sl subtable" uni0E47.sl
EndChar

StartChar: uni0E48
Encoding: 468 3656 198
GlifName: uni0E_48
Width: 0
VWidth: 0
GlyphClass: 4
Flags: MW
AnchorPoint: "ThaiExtendedAbove.mkmk" 0 0 mark 0
AnchorPoint: "ThaiExtendedAbove.mkmk" 0 240 basemark 0
LayerCount: 2
Fore
SplineSet
-166 950 m 1
 -166 1125 l 1
 -102 1125 l 1
 -102 939 l 1
 -166 950 l 1
EndSplineSet
PickledDataWithLists: "(dp0
Vcom.fontlab.hintData
p1
(dp2
Vvhints
p3
(lp4
(dp5
Vwidth
p6
L10L
sVposition
p7
L-127L
sasVhhints
p8
(lp9
(dp10
g6
L10L
sg7
L985L
sa(dp11
g6
L10L
sg7
L1197L
sass."
Substitution2: "Thai.sl subtable" uni0E48.sl
Substitution2: "Thai.sdl subtable" uni0E48.sdl
Substitution2: "Thai.sd subtable" uni0E48.sd
Substitution2: "ThaiT.0E4D subtable" uni0E4D
EndChar

StartChar: uni0E49
Encoding: 469 3657 199
GlifName: uni0E_49
Width: 0
VWidth: 0
GlyphClass: 4
Flags: MW
AnchorPoint: "ThaiExtendedAbove.mkmk" 0 0 mark 0
AnchorPoint: "ThaiExtendedAbove.mkmk" 0 240 basemark 0
LayerCount: 2
Fore
SplineSet
-275 1091 m 0
 -291 1091 -303 1080 -303 1062 c 0
 -303 1044 -291 1033 -275 1033 c 0
 -259 1033 -247 1044 -247 1062 c 0
 -247 1080 -259 1091 -275 1091 c 0
-240 960 m 2
 -238 976 -237 992 -237 1007 c 0
 -237 1010 -237 1014 -237 1017 c 1
 -247 1010 -260 1006 -275 1006 c 0
 -309 1006 -335 1028 -335 1062 c 0
 -335 1096 -309 1118 -275 1118 c 0
 -228 1118 -202 1087 -198 1037 c 0
 -197 1025 -196 1014 -196 1004 c 0
 -196 997 -197 991 -197 985 c 1
 -143 994 -110 1033 -107 1116 c 1
 -45 1108 l 1
 -48 1012 -108 950 -219 950 c 2
 -240 950 l 1
 -240 960 l 2
EndSplineSet
PickledDataWithLists: "(dp0
Vcom.fontlab.hintData
p1
(dp2
Vvhints
p3
(lp4
(dp5
Vwidth
p6
L10L
sVposition
p7
L-309L
sa(dp8
g6
L10L
sg7
L-263L
sa(dp9
g6
L10L
sg7
L-247L
sa(dp10
g6
L10L
sg7
L-188L
sa(dp11
g6
L10L
sg7
L7L
sasVhhints
p12
(lp13
(dp14
g6
L10L
sg7
L990L
sa(dp15
g6
L10L
sg7
L1197L
sass."
Substitution2: "Thai.sl subtable" uni0E49.sl
Substitution2: "Thai.sdl subtable" uni0E49.sdl
Substitution2: "Thai.sd subtable" uni0E49.sd
Substitution2: "ThaiT.0E4D subtable" uni0E4D
EndChar

StartChar: uni0E4A
Encoding: 470 3658 200
GlifName: uni0E_4A_
Width: 0
VWidth: 0
GlyphClass: 4
Flags: MW
AnchorPoint: "ThaiExtendedAbove.mkmk" 0 0 mark 0
AnchorPoint: "ThaiExtendedAbove.mkmk" 0 240 basemark 0
LayerCount: 2
Fore
SplineSet
-226 1027 m 0
 -242 1027 -254 1016 -254 998 c 0
 -254 980 -242 969 -226 969 c 0
 -210 969 -198 980 -198 998 c 0
 -198 1016 -210 1027 -226 1027 c 0
-226 1054 m 0
 -192 1054 -166 1032 -166 998 c 0
 -166 964 -192 942 -226 942 c 0
 -282 942 -304 983 -304 1029 c 0
 -304 1093 -257 1120 -231 1122 c 1
 -182 1092 l 1
 -133 1122 l 1
 -107 1120 -65 1093 -65 1029 c 0
 -65 1015 -69 1002 -75 991 c 1
 -50 1014 -37 1053 -32 1100 c 1
 15 1091 l 1
 7 1013 -44 948 -138 945 c 1
 -145 971 l 1
 -121 981 -106 998 -106 1029 c 0
 -106 1061 -119 1078 -135 1086 c 1
 -179 1060 l 1
 -182 1060 l 1
 -185 1060 l 1
 -230 1086 l 1
 -244 1080 -255 1068 -259 1046 c 1
 -250 1051 -238 1054 -226 1054 c 0
EndSplineSet
PickledDataWithLists: "(dp0
Vcom.fontlab.hintData
p1
(dp2
Vvhints
p3
(lp4
(dp5
Vwidth
p6
L10L
sVposition
p7
L-365L
sa(dp8
g6
L10L
sg7
L-305L
sa(dp9
g6
L10L
sg7
L-243L
sa(dp10
g6
L10L
sg7
L-152L
sa(dp11
g6
L10L
sg7
L-130L
sa(dp12
g6
L10L
sg7
L-79L
sa(dp13
g6
L10L
sg7
L24L
sasVhhints
p14
(lp15
(dp16
g6
L10L
sg7
L980L
sa(dp17
g6
L10L
sg7
L1097L
sa(dp18
g6
L10L
sg7
L1185L
sa(dp19
g6
L10L
sg7
L1195L
sass."
Substitution2: "Thai.sl subtable" uni0E4A.sl
Substitution2: "Thai.sdl subtable" uni0E4A.sdl
Substitution2: "Thai.sd subtable" uni0E4A.sd
Substitution2: "ThaiT.0E4D subtable" uni0E4D
EndChar

StartChar: uni0E4B
Encoding: 471 3659 201
GlifName: uni0E_4B_
Width: 0
VWidth: 0
GlyphClass: 4
Flags: MW
AnchorPoint: "ThaiExtendedAbove.mkmk" 0 0 mark 0
AnchorPoint: "ThaiExtendedAbove.mkmk" 0 240 basemark 0
LayerCount: 2
Fore
SplineSet
-255 1015 m 1
 -255 1053 l 1
 -165 1053 l 1
 -165 1125 l 1
 -106 1125 l 1
 -106 1053 l 1
 -15 1053 l 1
 -15 1015 l 1
 -106 1015 l 1
 -106 939 l 1
 -165 950 l 1
 -165 1015 l 1
 -255 1015 l 1
EndSplineSet
PickledDataWithLists: "(dp0
Vcom.fontlab.hintData
p1
(dp2
Vvhints
p3
(lp4
(dp5
Vwidth
p6
L10L
sVposition
p7
L-193L
sa(dp8
g6
L10L
sg7
L-131L
sa(dp9
g6
L10L
sg7
L-23L
sasVhhints
p10
(lp11
(dp12
g6
L10L
sg7
L985L
sa(dp13
g6
L10L
sg7
L1073L
sa(dp14
g6
L10L
sg7
L1078L
sa(dp15
g6
L10L
sg7
L1117L
sa(dp16
g6
L10L
sg7
L1122L
sa(dp17
g6
L10L
sg7
L1207L
sass."
Substitution2: "Thai.sl subtable" uni0E4B.sl
Substitution2: "Thai.sdl subtable" uni0E4B.sdl
Substitution2: "Thai.sd subtable" uni0E4B.sd
Substitution2: "ThaiT.0E4D subtable" uni0E4D
EndChar

StartChar: uni0E4C
Encoding: 472 3660 202
GlifName: uni0E_4C_
Width: 0
VWidth: 0
GlyphClass: 4
Flags: MW
AnchorPoint: "ThaiExtendedAbove.mkmk" 0 0 mark 0
AnchorPoint: "ThaiExtendedAbove.mkmk" 0 240 basemark 0
LayerCount: 2
Fore
SplineSet
-180 1068 m 0
 -204 1068 -221 1051 -221 1027 c 0
 -221 1003 -204 986 -180 986 c 0
 -156 986 -139 1003 -139 1027 c 0
 -139 1051 -156 1068 -180 1068 c 0
-265 1027 m 0
 -265 1073 -237 1112 -177 1112 c 2
 -150 1112 l 2
 -96 1112 -72 1129 -72 1173 c 1
 -10 1166 l 1
 -10 1117 -43 1082 -111 1076 c 1
 -101 1063 -95 1046 -95 1027 c 0
 -95 979 -130 948 -180 948 c 0
 -230 948 -265 979 -265 1027 c 0
EndSplineSet
PickledDataWithLists: "(dp0
Vcom.fontlab.hintData
p1
(dp2
Vvhints
p3
(lp4
(dp5
Vwidth
p6
L10L
sVposition
p7
L-277L
sa(dp8
g6
L10L
sg7
L-200L
sa(dp9
g6
L10L
sg7
L-185L
sa(dp10
g6
L10L
sg7
L-10L
sasVhhints
p11
(lp12
(dp13
g6
L10L
sg7
L978L
sa(dp14
g6
L10L
sg7
L1212L
sass."
Substitution2: "Thai.sl subtable" uni0E4C.sl
Substitution2: "Thai.sdl subtable" uni0E4C.sdl
Substitution2: "Thai.sd subtable" uni0E4C.sd
Substitution2: "ThaiT.0E4D subtable" uni0E4D
EndChar

StartChar: uni0E4D
Encoding: 473 3661 203
GlifName: uni0E_4D_
Width: 0
VWidth: 0
GlyphClass: 4
Flags: MW
AnchorPoint: "ThaiExtendedAbove.mkmk" 0 0 basemark 0
AnchorPoint: "ThaiAbove.mark" 0 0 mark 0
LayerCount: 2
Fore
SplineSet
-180 876 m 0
 -120 876 -77 837 -77 780 c 0
 -77 723 -120 684 -180 684 c 0
 -240 684 -283 723 -283 780 c 0
 -283 837 -240 876 -180 876 c 0
-180 832 m 0
 -211 832 -232 810 -232 780 c 0
 -232 750 -211 728 -180 728 c 0
 -149 728 -128 750 -128 780 c 0
 -128 810 -149 832 -180 832 c 0
EndSplineSet
PickledDataWithLists: "(dp0
Vcom.fontlab.hintData
p1
(dp2
Vvhints
p3
(lp4
(dp5
Vwidth
p6
L10L
sVposition
p7
L-282L
sa(dp8
g6
L10L
sg7
L-218L
sa(dp9
g6
L10L
sg7
L-122L
sa(dp10
g6
L10L
sg7
L-58L
sasVhhints
p11
(lp12
(dp13
g6
L10L
sg7
L703L
sa(dp14
g6
L10L
sg7
L747L
sa(dp15
g6
L10L
sg7
L863L
sa(dp16
g6
L10L
sg7
L907L
sass."
Substitution2: "Thai.sul subtable" uni0E4D.sul
Substitution2: "Thai.su subtable" uni0E4D.su
Substitution2: "Thai.sl subtable" uni0E4D.sl
Substitution2: "Thai0E4D.0E4B subtable" uni0E4B
Substitution2: "Thai0E4D.0E4A subtable" uni0E4A
Substitution2: "Thai0E4D.0E49 subtable" uni0E49
Substitution2: "Thai0E4D.0E48 subtable" uni0E48
EndChar

StartChar: uni0E4E
Encoding: 474 3662 204
GlifName: uni0E_4E_
Width: 0
VWidth: 0
GlyphClass: 4
Flags: MW
AnchorPoint: "ThaiExtendedAbove.mkmk" 0 -240 mark 0
AnchorPoint: "ThaiAbove.mark" 0 0 mark 0
LayerCount: 2
Fore
SplineSet
-355 756 m 0
 -355 794 -324 832 -271 832 c 0
 -267 832 -264 832 -260 831 c 1
 -260 833 -260 836 -260 838 c 0
 -260 876 -234 915 -181 915 c 0
 -155 915 -132 904 -115 887 c 2
 -75 845 l 1
 -107 817 l 1
 -154 863 l 2
 -165 874 -175 877 -181 877 c 0
 -196 877 -217 864 -217 838 c 0
 -217 826 -213 815 -204 805 c 2
 -165 763 l 1
 -197 735 l 1
 -245 783 l 2
 -256 794 -265 796 -271 796 c 0
 -286 796 -306 782 -306 756 c 0
 -306 744 -301 732 -290 721 c 2
 -249 680 l 1
 -282 650 l 1
 -329 698 l 2
 -346 715 -355 736 -355 756 c 0
EndSplineSet
PickledDataWithLists: "(dp0
Vcom.fontlab.hintData
p1
(dp2
Vvhints
p3
(lp4
(dp5
Vwidth
p6
L10L
sVposition
p7
L-400L
sa(dp8
g6
L10L
sg7
L-363L
sa(dp9
g6
L10L
sg7
L-335L
sa(dp10
g6
L10L
sg7
L-298L
sa(dp11
g6
L10L
sg7
L-211L
sa(dp12
g6
L10L
sg7
L-192L
sa(dp13
g6
L10L
sg7
L-141L
sasVhhints
p14
(lp15
(dp16
g6
L10L
sg7
L661L
sa(dp17
g6
L10L
sg7
L709L
sa(dp18
g6
L10L
sg7
L805L
sa(dp19
g6
L10L
sg7
L853L
sa(dp20
g6
L10L
sg7
L930L
sa(dp21
g6
L10L
sg7
L943L
sa(dp22
g6
L10L
sg7
L989L
sass."
Substitution2: "Thai.sl subtable" uni0E4E.sl
EndChar

StartChar: uni0E4F
Encoding: 475 3663 205
GlifName: uni0E_4F_
Width: 660
VWidth: 0
GlyphClass: 2
Flags: MW
LayerCount: 2
Fore
SplineSet
330 352 m 0
 299 352 278 330 278 300 c 0
 278 270 299 248 330 248 c 0
 361 248 382 270 382 300 c 0
 382 330 361 352 330 352 c 0
330 396 m 0
 390 396 433 357 433 300 c 0
 433 243 390 204 330 204 c 0
 270 204 227 243 227 300 c 0
 227 357 270 396 330 396 c 0
330 58 m 0
 174 58 78 164 78 300 c 0
 78 436 174 542 330 542 c 0
 486 542 582 436 582 300 c 0
 582 164 486 58 330 58 c 0
330 106 m 0
 446 106 523 182 523 300 c 0
 523 418 446 494 330 494 c 0
 214 494 137 418 137 300 c 0
 137 182 214 106 330 106 c 0
EndSplineSet
PickledDataWithLists: "(dp0
Vcom.fontlab.hintData
p1
(dp2
Vvhints
p3
(lp4
(dp5
Vwidth
p6
L10L
sVposition
p7
L80L
sa(dp8
g6
L10L
sg7
L150L
sa(dp9
g6
L10L
sg7
L267L
sa(dp10
g6
L10L
sg7
L472L
sa(dp11
g6
L10L
sg7
L477L
sa(dp12
g6
L10L
sg7
L488L
sa(dp13
g6
L10L
sg7
L590L
sa(dp14
g6
L10L
sg7
L660L
sasVhhints
p15
(lp16
(dp17
g6
L10L
sg7
L1L
sa(dp18
g6
L10L
sg7
L49L
sa(dp19
g6
L10L
sg7
L199L
sa(dp20
g6
L10L
sg7
L391L
sa(dp21
g6
L10L
sg7
L523L
sa(dp22
g6
L10L
sg7
L531L
sa(dp23
g6
L10L
sg7
L543L
sa(dp24
g6
L10L
sg7
L579L
sass."
EndChar

StartChar: uni0E4F.extra
Encoding: 807 63616 206
GlifName: uni0E_4F_.extra
Width: 660
VWidth: 0
GlyphClass: 3
Flags: MW
LayerCount: 2
Fore
SplineSet
386 885 m 1
 456 885 l 1
 444 630 l 1
 397 630 l 1
 386 885 l 1
206 885 m 1
 276 885 l 1
 264 630 l 1
 217 630 l 1
 206 885 l 1
EndSplineSet
Refer: 205 3663 S 1 0 0 1 0 0 2
PickledDataWithLists: "(dp0
Vcom.fontlab.hintData
p1
(dp2
Vvhints
p3
(lp4
(dp5
Vwidth
p6
L10L
sVposition
p7
L80L
sa(dp8
g6
L10L
sg7
L150L
sa(dp9
g6
L10L
sg7
L227L
sa(dp10
g6
L10L
sg7
L267L
sa(dp11
g6
L10L
sg7
L316L
sa(dp12
g6
L10L
sg7
L424L
sa(dp13
g6
L10L
sg7
L433L
sa(dp14
g6
L10L
sg7
L472L
sa(dp15
g6
L10L
sg7
L477L
sa(dp16
g6
L10L
sg7
L488L
sa(dp17
g6
L10L
sg7
L513L
sa(dp18
g6
L10L
sg7
L590L
sa(dp19
g6
L10L
sg7
L660L
sasVhhints
p20
(lp21
(dp22
g6
L10L
sg7
L1L
sa(dp23
g6
L10L
sg7
L49L
sa(dp24
g6
L10L
sg7
L199L
sa(dp25
g6
L10L
sg7
L391L
sa(dp26
g6
L10L
sg7
L523L
sa(dp27
g6
L10L
sg7
L531L
sa(dp28
g6
L10L
sg7
L543L
sa(dp29
g6
L10L
sg7
L579L
sa(dp30
g6
L10L
sg7
L668L
sa(dp31
g6
L10L
sg7
L673L
sa(dp32
g6
L10L
sg7
L947L
sass."
Ligature2: "Thai.extra subtable" uni0E4F uni200D uni0E48 uni200D uni0E48
Ligature2: "Thai.extra subtable" uni0E4F uni0E48 uni0E48
Ligature2: "Thai.liga subtable" uni0E4F uni200D period uni200D period
Ligature2: "Thai.liga subtable" uni0E4F period period
Colour: ff00ff
EndChar

StartChar: uni0E50
Encoding: 476 3664 207
GlifName: uni0E_50
Width: 720
VWidth: 0
GlyphClass: 2
Flags: MW
LayerCount: 2
Fore
SplineSet
72 286 m 2
 72 314 l 2
 72 460 145 618 360 618 c 0
 575 618 648 460 648 314 c 2
 648 286 l 2
 648 140 575 -18 360 -18 c 0
 145 -18 72 140 72 286 c 2
360 46 m 0
 500 46 563 146 563 286 c 2
 563 314 l 2
 563 454 500 554 360 554 c 0
 220 554 157 454 157 314 c 2
 157 286 l 2
 157 146 220 46 360 46 c 0
EndSplineSet
PickledDataWithLists: "(dp0
Vcom.fontlab.hintData
p1
(dp2
Vvhints
p3
(lp4
(dp5
Vwidth
p6
L10L
sVposition
p7
L61L
sa(dp8
g6
L10L
sg7
L149L
sa(dp9
g6
L10L
sg7
L561L
sa(dp10
g6
L10L
sg7
L649L
sasVhhints
p11
(lp12
(dp13
g6
L10L
sg7
L-26L
sa(dp14
g6
L10L
sg7
L36L
sa(dp15
g6
L10L
sg7
L533L
sa(dp16
g6
L10L
sg7
L544L
sa(dp17
g6
L10L
sg7
L571L
sa(dp18
g6
L10L
sg7
L606L
sass."
EndChar

StartChar: uni0E51
Encoding: 477 3665 208
GlifName: uni0E_51
Width: 720
VWidth: 0
GlyphClass: 2
Flags: MW
LayerCount: 2
Fore
SplineSet
72 335 m 0
 72 468 154 618 360 618 c 0
 575 618 647 459 647 317 c 2
 647 295 l 2
 647 141 512 -22 306 -36 c 1
 298 27 l 1
 446 37 564 163 564 295 c 2
 564 317 l 2
 564 451 502 555 360 555 c 0
 224 555 152 457 152 335 c 0
 152 256 205 202 278 202 c 0
 318 202 351 215 375 235 c 1
 370 234 365 234 360 234 c 0
 300 234 257 273 257 330 c 0
 257 387 300 426 360 426 c 0
 420 426 463 387 463 330 c 0
 463 240 402 149 268 149 c 0
 136 149 72 251 72 335 c 0
360 382 m 0
 329 382 308 360 308 330 c 0
 308 300 329 278 360 278 c 0
 391 278 412 300 412 330 c 0
 412 360 391 382 360 382 c 0
EndSplineSet
PickledDataWithLists: "(dp0
Vcom.fontlab.hintData
p1
(dp2
Vvhints
p3
(lp4
(dp5
Vwidth
p6
L10L
sVposition
p7
L61L
sa(dp8
g6
L10L
sg7
L149L
sa(dp9
g6
L10L
sg7
L290L
sa(dp10
g6
L10L
sg7
L311L
sa(dp11
g6
L10L
sg7
L399L
sa(dp12
g6
L10L
sg7
L561L
sa(dp13
g6
L10L
sg7
L649L
sasVhhints
p14
(lp15
(dp16
g6
L10L
sg7
L-36L
sa(dp17
g6
L10L
sg7
L144L
sa(dp18
g6
L10L
sg7
L206L
sa(dp19
g6
L10L
sg7
L320L
sa(dp20
g6
L10L
sg7
L544L
sa(dp21
g6
L10L
sg7
L606L
sass."
EndChar

StartChar: uni0E52
Encoding: 478 3666 209
GlifName: uni0E_52
Width: 810
VWidth: 0
GlyphClass: 2
Flags: MW
LayerCount: 2
Fore
SplineSet
88 182 m 2
 88 750 l 1
 170 750 l 1
 170 182 l 2
 170 110 225 63 280 63 c 2
 543 63 l 2
 598 63 653 110 653 182 c 2
 653 417 l 2
 653 473 634 517 601 541 c 1
 518 470 l 1
 511 470 l 1
 504 470 l 1
 417 545 l 1
 380 522 358 478 358 418 c 0
 358 411 358 403 359 395 c 1
 377 416 406 428 439 428 c 0
 499 428 542 389 542 332 c 0
 542 275 499 236 439 236 c 0
 339 236 288 320 288 418 c 0
 288 538 360 604 420 612 c 1
 511 530 l 1
 602 612 l 1
 662 604 733 537 733 417 c 2
 733 182 l 2
 733 92 665 0 540 0 c 2
 280 0 l 2
 155 0 88 92 88 182 c 2
439 384 m 0
 408 384 387 362 387 332 c 0
 387 302 408 280 439 280 c 0
 470 280 491 302 491 332 c 0
 491 362 470 384 439 384 c 0
EndSplineSet
PickledDataWithLists: "(dp0
Vcom.fontlab.hintData
p1
(dp2
Vvhints
p3
(lp4
(dp5
Vwidth
p6
L10L
sVposition
p7
L89L
sa(dp8
g6
L10L
sg7
L101L
sa(dp9
g6
L10L
sg7
L183L
sa(dp10
g6
L10L
sg7
L249L
sa(dp11
g6
L10L
sg7
L331L
sa(dp12
g6
L10L
sg7
L463L
sa(dp13
g6
L10L
sg7
L528L
sa(dp14
g6
L10L
sg7
L634L
sa(dp15
g6
L10L
sg7
L716L
sa(dp16
g6
L10L
sg7
L721L
sasVhhints
p17
(lp18
(dp19
g6
L10L
sg7
L6L
sa(dp20
g6
L10L
sg7
L14L
sa(dp21
g6
L10L
sg7
L65L
sa(dp22
g6
L10L
sg7
L72L
sa(dp23
g6
L10L
sg7
L216L
sa(dp24
g6
L10L
sg7
L274L
sa(dp25
g6
L10L
sg7
L390L
sa(dp26
g6
L10L
sg7
L536L
sa(dp27
g6
L10L
sg7
L583L
sa(dp28
g6
L10L
sg7
L594L
sa(dp29
g6
L10L
sg7
L794L
sass."
EndChar

StartChar: uni0E53
Encoding: 479 3667 210
GlifName: uni0E_53
Width: 720
VWidth: 0
GlyphClass: 2
Flags: MW
LayerCount: 2
Fore
SplineSet
230 140 m 0
 199 140 178 118 178 88 c 0
 178 58 199 36 230 36 c 0
 261 36 282 58 282 88 c 0
 282 118 261 140 230 140 c 0
230 184 m 0
 290 184 333 145 333 88 c 0
 333 31 290 -8 230 -8 c 0
 164 -8 119 31 101 79 c 0
 89 113 82 169 82 203 c 2
 82 429 l 2
 82 519 116 618 232 618 c 0
 293 618 337 581 360 529 c 1
 383 581 426 618 487 618 c 0
 603 618 637 519 637 429 c 2
 637 179 l 2
 637 87 619 34 563 -8 c 1
 501 36 l 1
 535 61 555 93 555 179 c 2
 555 429 l 2
 555 516 527 555 481 555 c 0
 434 555 399 501 399 429 c 2
 399 225 l 1
 320 225 l 1
 320 429 l 2
 320 501 285 555 238 555 c 0
 192 555 164 516 164 429 c 2
 164 197 l 2
 164 185 164 174 163 163 c 1
 181 176 204 184 230 184 c 0
EndSplineSet
PickledDataWithLists: "(dp0
Vcom.fontlab.hintData
p1
(dp2
Vvhints
p3
(lp4
(dp5
Vwidth
p6
L10L
sVposition
p7
L61L
sa(dp8
g6
L10L
sg7
L149L
sa(dp9
g6
L10L
sg7
L378L
sa(dp10
g6
L10L
sg7
L500L
sa(dp11
g6
L10L
sg7
L561L
sa(dp12
g6
L10L
sg7
L649L
sasVhhints
p13
(lp14
(dp15
g6
L10L
sg7
L-21L
sa(dp16
g6
L10L
sg7
L-15L
sa(dp17
g6
L10L
sg7
L41L
sa(dp18
g6
L10L
sg7
L77L
sa(dp19
g6
L10L
sg7
L237L
sa(dp20
g6
L10L
sg7
L606L
sass."
EndChar

StartChar: uni0E54
Encoding: 480 3668 211
GlifName: uni0E_54
Width: 720
VWidth: 0
GlyphClass: 2
Flags: MW
LayerCount: 2
Fore
SplineSet
507 352 m 0
 476 352 455 330 455 300 c 0
 455 270 476 248 507 248 c 0
 538 248 559 270 559 300 c 0
 559 330 538 352 507 352 c 0
72 295 m 2
 72 311 l 2
 72 462 169 596 356 606 c 0
 395 608 450 613 471 615 c 0
 555 625 602 629 612 753 c 1
 697 745 l 1
 686 603 605 567 485 553 c 0
 459 549 404 545 362 543 c 0
 238 536 157 443 157 311 c 2
 157 295 l 2
 157 167 226 63 358 63 c 2
 444 63 l 1
 397 100 367 157 367 228 c 0
 367 326 413 396 507 396 c 0
 567 396 610 357 610 300 c 0
 610 243 567 204 507 204 c 0
 476 204 449 214 431 232 c 1
 431 229 431 225 431 222 c 0
 431 121 512 63 589 63 c 2
 642 63 l 1
 642 0 l 1
 358 0 l 2
 153 0 72 153 72 295 c 2
EndSplineSet
PickledDataWithLists: "(dp0
Vcom.fontlab.hintData
p1
(dp2
Vvhints
p3
(lp4
(dp5
Vwidth
p6
L10L
sVposition
p7
L61L
sa(dp8
g6
L10L
sg7
L149L
sa(dp9
g6
L10L
sg7
L400L
sa(dp10
g6
L10L
sg7
L488L
sa(dp11
g6
L10L
sg7
L527L
sa(dp12
g6
L10L
sg7
L591L
sa(dp13
g6
L10L
sg7
L662L
sa(dp14
g6
L10L
sg7
L679L
sasVhhints
p15
(lp16
(dp17
g6
L10L
sg7
L0L
sa(dp18
g6
L10L
sg7
L63L
sa(dp19
g6
L10L
sg7
L351L
sa(dp20
g6
L10L
sg7
L796L
sass."
EndChar

StartChar: uni0E55
Encoding: 481 3669 212
GlifName: uni0E_55
Width: 720
VWidth: 0
GlyphClass: 2
Flags: MW
LayerCount: 2
Fore
SplineSet
390 714 m 0
 359 714 338 692 338 662 c 0
 338 632 359 610 390 610 c 0
 421 610 442 632 442 662 c 0
 442 692 421 714 390 714 c 0
390 758 m 0
 450 758 493 719 493 662 c 0
 493 640 487 621 475 605 c 1
 481 605 487 605 492 605 c 0
 569 609 606 644 612 753 c 1
 697 745 l 1
 690 618 616 557 506 549 c 0
 496 548 485 548 473 548 c 0
 441 548 407 550 394 553 c 1
 232 540 157 451 157 311 c 2
 157 295 l 2
 157 167 226 63 358 63 c 2
 444 63 l 1
 397 100 367 157 367 228 c 0
 367 326 413 396 507 396 c 0
 567 396 610 357 610 300 c 0
 610 243 567 204 507 204 c 0
 476 204 449 214 431 232 c 1
 431 229 431 225 431 222 c 0
 431 121 512 63 589 63 c 2
 642 63 l 1
 642 0 l 1
 358 0 l 2
 153 0 72 153 72 295 c 2
 72 311 l 2
 72 450 147 566 313 596 c 1
 297 613 287 635 287 662 c 0
 287 719 330 758 390 758 c 0
507 352 m 0
 476 352 455 330 455 300 c 0
 455 270 476 248 507 248 c 0
 538 248 559 270 559 300 c 0
 559 330 538 352 507 352 c 0
EndSplineSet
PickledDataWithLists: "(dp0
Vcom.fontlab.hintData
p1
(dp2
Vvhints
p3
(lp4
(dp5
Vwidth
p6
L10L
sVposition
p7
L61L
sa(dp8
g6
L10L
sg7
L149L
sa(dp9
g6
L10L
sg7
L224L
sa(dp10
g6
L10L
sg7
L301L
sa(dp11
g6
L10L
sg7
L394L
sa(dp12
g6
L10L
sg7
L400L
sa(dp13
g6
L10L
sg7
L471L
sa(dp14
g6
L10L
sg7
L488L
sa(dp15
g6
L10L
sg7
L527L
sa(dp16
g6
L10L
sg7
L594L
sa(dp17
g6
L10L
sg7
L662L
sa(dp18
g6
L10L
sg7
L677L
sasVhhints
p19
(lp20
(dp21
g6
L10L
sg7
L0L
sa(dp22
g6
L10L
sg7
L62L
sa(dp23
g6
L10L
sg7
L351L
sa(dp24
g6
L10L
sg7
L506L
sa(dp25
g6
L10L
sg7
L564L
sa(dp26
g6
L10L
sg7
L701L
sa(dp27
g6
L10L
sg7
L754L
sa(dp28
g6
L10L
sg7
L794L
sass."
EndChar

StartChar: uni0E56
Encoding: 482 3670 213
GlifName: uni0E_56
Width: 720
VWidth: 0
GlyphClass: 2
Flags: MW
LayerCount: 2
Fore
SplineSet
216 212 m 0
 185 212 164 190 164 160 c 0
 164 130 185 108 216 108 c 0
 247 108 268 130 268 160 c 0
 268 190 247 212 216 212 c 0
216 256 m 0
 276 256 319 217 319 160 c 0
 319 114 291 79 249 68 c 1
 277 55 316 44 371 44 c 0
 503 44 563 146 563 286 c 2
 563 314 l 2
 563 454 501 551 375 551 c 0
 266 551 207 475 198 415 c 1
 131 420 l 1
 73 744 l 1
 159 754 l 1
 186 522 l 1
 219 574 280 618 378 618 c 0
 574 618 648 460 648 314 c 2
 648 286 l 2
 648 140 576 -18 375 -18 c 0
 177 -18 113 88 113 160 c 0
 113 217 156 256 216 256 c 0
EndSplineSet
PickledDataWithLists: "(dp0
Vcom.fontlab.hintData
p1
(dp2
Vvhints
p3
(lp4
(dp5
Vwidth
p6
L10L
sVposition
p7
L31L
sa(dp8
g6
L10L
sg7
L123L
sa(dp9
g6
L10L
sg7
L211L
sa(dp10
g6
L10L
sg7
L298L
sa(dp11
g6
L10L
sg7
L561L
sa(dp12
g6
L10L
sg7
L649L
sasVhhints
p13
(lp14
(dp15
g6
L10L
sg7
L-16L
sa(dp16
g6
L10L
sg7
L46L
sa(dp17
g6
L10L
sg7
L316L
sa(dp18
g6
L10L
sg7
L481L
sa(dp19
g6
L10L
sg7
L544L
sa(dp20
g6
L10L
sg7
L606L
sa(dp21
g6
L10L
sg7
L795L
sass."
EndChar

StartChar: uni0E57
Encoding: 483 3671 214
GlifName: uni0E_57
Width: 905
VWidth: 0
GlyphClass: 2
Flags: MW
LayerCount: 2
Fore
SplineSet
230 140 m 0
 199 140 178 118 178 88 c 0
 178 58 199 36 230 36 c 0
 261 36 282 58 282 88 c 0
 282 118 261 140 230 140 c 0
230 184 m 0
 290 184 333 145 333 88 c 0
 333 31 290 -8 230 -8 c 0
 164 -8 119 31 101 79 c 0
 89 113 82 169 82 203 c 2
 82 429 l 2
 82 519 116 618 232 618 c 0
 293 618 337 581 360 529 c 1
 383 581 426 618 487 618 c 0
 603 618 632 519 632 429 c 2
 632 179 l 2
 632 122 623 81 603 47 c 1
 677 63 740 109 740 188 c 2
 740 750 l 1
 817 750 l 1
 817 188 l 2
 817 72 717 -8 552 -8 c 1
 501 36 l 1
 535 61 555 93 555 179 c 2
 555 429 l 2
 555 516 527 555 481 555 c 0
 434 555 399 501 399 429 c 2
 399 225 l 1
 320 225 l 1
 320 429 l 2
 320 501 285 555 238 555 c 0
 192 555 164 516 164 429 c 2
 164 197 l 2
 164 185 164 174 163 163 c 1
 181 176 204 184 230 184 c 0
EndSplineSet
PickledDataWithLists: "(dp0
Vcom.fontlab.hintData
p1
(dp2
Vvhints
p3
(lp4
(dp5
Vwidth
p6
L10L
sVposition
p7
L61L
sa(dp8
g6
L10L
sg7
L149L
sa(dp9
g6
L10L
sg7
L378L
sa(dp10
g6
L10L
sg7
L505L
sa(dp11
g6
L10L
sg7
L561L
sa(dp12
g6
L10L
sg7
L639L
sa(dp13
g6
L10L
sg7
L716L
sa(dp14
g6
L10L
sg7
L799L
sasVhhints
p15
(lp16
(dp17
g6
L10L
sg7
L-21L
sa(dp18
g6
L10L
sg7
L-15L
sa(dp19
g6
L10L
sg7
L41L
sa(dp20
g6
L10L
sg7
L77L
sa(dp21
g6
L10L
sg7
L237L
sa(dp22
g6
L10L
sg7
L606L
sa(dp23
g6
L10L
sg7
L625L
sass."
EndChar

StartChar: uni0E58
Encoding: 484 3672 215
GlifName: uni0E_58
Width: 750
VWidth: 0
GlyphClass: 2
Flags: MW
LayerCount: 2
Fore
SplineSet
544 352 m 0
 513 352 492 330 492 300 c 0
 492 270 513 248 544 248 c 0
 575 248 596 270 596 300 c 0
 596 330 575 352 544 352 c 0
72 295 m 2
 72 311 l 2
 72 455 169 587 356 597 c 0
 395 599 461 604 482 606 c 0
 564 616 602 630 612 754 c 1
 697 745 l 1
 686 599 610 558 496 544 c 0
 470 540 404 535 362 533 c 0
 238 526 157 441 157 311 c 2
 157 295 l 2
 157 203 190 146 204 90 c 1
 325 255 l 1
 391 255 l 1
 391 127 419 52 498 52 c 0
 570 52 602 122 602 219 c 1
 586 209 566 204 544 204 c 0
 484 204 441 243 441 300 c 0
 441 357 484 396 544 396 c 0
 646 396 669 300 669 220 c 0
 669 116 631 -8 498 -8 c 0
 387 -8 344 79 333 174 c 1
 208 0 l 1
 137 0 l 1
 137 29 l 2
 137 102 72 175 72 295 c 2
EndSplineSet
PickledDataWithLists: "(dp0
Vcom.fontlab.hintData
p1
(dp2
Vvhints
p3
(lp4
(dp5
Vwidth
p6
L10L
sVposition
p7
L61L
sa(dp8
g6
L10L
sg7
L149L
sa(dp9
g6
L10L
sg7
L369L
sa(dp10
g6
L10L
sg7
L435L
sa(dp11
g6
L10L
sg7
L556L
sa(dp12
g6
L10L
sg7
L581L
sa(dp13
g6
L10L
sg7
L591L
sa(dp14
g6
L10L
sg7
L669L
sa(dp15
g6
L10L
sg7
L679L
sasVhhints
p16
(lp17
(dp18
g6
L10L
sg7
L4L
sa(dp19
g6
L10L
sg7
L66L
sa(dp20
g6
L10L
sg7
L246L
sa(dp21
g6
L10L
sg7
L315L
sa(dp22
g6
L10L
sg7
L796L
sass."
EndChar

StartChar: uni0E59
Encoding: 485 3673 216
GlifName: uni0E_59
Width: 720
VWidth: 0
GlyphClass: 2
Flags: MW
LayerCount: 2
Fore
SplineSet
540 197 m 0
 509 197 488 175 488 145 c 0
 488 115 509 93 540 93 c 0
 571 93 592 115 592 145 c 0
 592 175 571 197 540 197 c 0
182 443 m 0
 182 525 247 577 342 587 c 0
 392 592 447 595 466 597 c 0
 549 607 592 617 602 753 c 1
 687 744 l 1
 676 589 594 551 480 537 c 0
 451 533 393 531 347 526 c 0
 295 520 259 494 259 440 c 0
 259 403 276 387 291 378 c 1
 310 380 332 381 354 381 c 2
 562 381 l 1
 562 318 l 1
 354 318 l 2
 195 318 147 253 147 179 c 0
 147 107 195 43 354 43 c 0
 415 43 457 49 488 60 c 1
 457 76 437 106 437 145 c 0
 437 202 480 241 540 241 c 0
 600 241 643 202 643 145 c 0
 643 61 564 -18 354 -18 c 0
 144 -18 62 75 62 179 c 0
 62 258 108 332 218 364 c 1
 198 383 182 408 182 443 c 0
EndSplineSet
PickledDataWithLists: "(dp0
Vcom.fontlab.hintData
p1
(dp2
Vvhints
p3
(lp4
(dp5
Vwidth
p6
L10L
sVposition
p7
L61L
sa(dp8
g6
L10L
sg7
L149L
sa(dp9
g6
L10L
sg7
L205L
sa(dp10
g6
L10L
sg7
L293L
sa(dp11
g6
L10L
sg7
L531L
sa(dp12
g6
L10L
sg7
L619L
sa(dp13
g6
L10L
sg7
L679L
sasVhhints
p14
(lp15
(dp16
g6
L10L
sg7
L-26L
sa(dp17
g6
L10L
sg7
L36L
sa(dp18
g6
L10L
sg7
L155L
sa(dp19
g6
L10L
sg7
L314L
sa(dp20
g6
L10L
sg7
L370L
sa(dp21
g6
L10L
sg7
L796L
sass."
EndChar

StartChar: uni0E5A
Encoding: 486 3674 217
GlifName: uni0E_5A_
Width: 675
VWidth: 0
GlyphClass: 2
Flags: MW
LayerCount: 2
Fore
SplineSet
582 0 m 1
 507 0 l 1
 507 600 l 1
 582 600 l 1
 582 0 l 1
150 564 m 0
 119 564 98 542 98 512 c 0
 98 482 119 460 150 460 c 0
 181 460 202 482 202 512 c 0
 202 542 181 564 150 564 c 0
150 608 m 0
 210 608 253 569 253 512 c 0
 253 488 246 468 233 452 c 1
 303 473 338 532 349 596 c 1
 379 600 l 1
 399 576 402 538 402 480 c 2
 402 145 l 2
 402 29 284 -4 162 -18 c 1
 149 44 l 1
 265 58 327 76 327 145 c 2
 327 410 l 2
 327 437 335 453 340 471 c 1
 305 432 251 405 177 405 c 0
 90 405 47 451 47 512 c 0
 47 569 90 608 150 608 c 0
EndSplineSet
PickledDataWithLists: "(dp0
Vcom.fontlab.hintData
p1
(dp2
Vvhints
p3
(lp4
(dp5
Vwidth
p6
L10L
sVposition
p7
L34L
sa(dp8
g6
L10L
sg7
L116L
sa(dp9
g6
L10L
sg7
L136L
sa(dp10
g6
L10L
sg7
L334L
sa(dp11
g6
L10L
sg7
L334L
sa(dp12
g6
L10L
sg7
L411L
sa(dp13
g6
L10L
sg7
L416L
sa(dp14
g6
L10L
sg7
L504L
sa(dp15
g6
L10L
sg7
L509L
sa(dp16
g6
L10L
sg7
L586L
sa(dp17
g6
L10L
sg7
L592L
sasVhhints
p18
(lp19
(dp20
g6
L10L
sg7
L-14L
sa(dp21
g6
L10L
sg7
L7L
sa(dp22
g6
L10L
sg7
L396L
sa(dp23
g6
L10L
sg7
L454L
sa(dp24
g6
L10L
sg7
L588L
sa(dp25
g6
L10L
sg7
L594L
sass."
EndChar

StartChar: uni0E5B
Encoding: 487 3675 218
GlifName: uni0E_5B_
Width: 900
VWidth: 0
GlyphClass: 2
Flags: MW
LayerCount: 2
Fore
SplineSet
78 300 m 0
 78 436 174 542 330 542 c 1
 330 494 l 1
 214 494 137 418 137 300 c 0
 137 182 214 106 330 106 c 0
 446 106 524 182 524 300 c 0
 524 360 502 413 476 441 c 1
 518 471 l 1
 536 451 551 424 563 395 c 2
 641 208 l 1
 678 429 l 1
 711 433 l 1
 772 316 l 1
 863 316 l 1
 863 284 l 1
 753 284 l 1
 706 368 l 1
 668 144 l 1
 628 140 l 1
 575 263 l 1
 560 145 472 58 330 58 c 0
 174 58 78 164 78 300 c 0
330 352 m 0
 299 352 278 330 278 300 c 0
 278 270 299 248 330 248 c 0
 361 248 382 270 382 300 c 0
 382 330 361 352 330 352 c 0
330 396 m 0
 390 396 433 357 433 300 c 0
 433 243 390 204 330 204 c 0
 270 204 227 243 227 300 c 0
 227 357 270 396 330 396 c 0
EndSplineSet
PickledDataWithLists: "(dp0
Vcom.fontlab.hintData
p1
(dp2
Vvhints
p3
(lp4
(dp5
Vwidth
p6
L10L
sVposition
p7
L80L
sa(dp8
g6
L10L
sg7
L150L
sa(dp9
g6
L10L
sg7
L306L
sa(dp10
g6
L10L
sg7
L430L
sa(dp11
g6
L10L
sg7
L500L
sa(dp12
g6
L16L
sg7
L633L
sa(dp13
g6
L10L
sg7
L639L
sa(dp14
g6
L10L
sg7
L1147L
sasVhhints
p15
(lp16
(dp17
g6
L10L
sg7
L1L
sa(dp18
g6
L10L
sg7
L49L
sa(dp19
g6
L10L
sg7
L124L
sa(dp20
g6
L10L
sg7
L191L
sa(dp21
g6
L10L
sg7
L239L
sa(dp22
g6
L10L
sg7
L261L
sa(dp23
g6
L10L
sg7
L302L
sa(dp24
g6
L10L
sg7
L427L
sa(dp25
g6
L10L
sg7
L513L
sa(dp26
g6
L10L
sg7
L531L
sa(dp27
g6
L10L
sg7
L579L
sass."
EndChar

StartChar: uni0E48.sd
Encoding: 817 63627 222
GlifName: uni0E_48.sd
Width: 0
VWidth: 0
GlyphClass: 4
Flags: MW
AnchorPoint: "ThaiExtendedAbove.mkmk" 0 0 basemark 0
AnchorPoint: "ThaiTone.mark" 0 0 mark 0
LayerCount: 2
Fore
SplineSet
-171 702 m 1
 -171 885 l 1
 -102 885 l 1
 -102 690 l 1
 -171 702 l 1
EndSplineSet
PickledDataWithLists: "(dp0
Vcom.fontlab.hintData
p1
(dp2
Vvhints
p3
(lp4
(dp5
Vwidth
p6
L10L
sVposition
p7
L-127L
sasVhhints
p8
(lp9
(dp10
g6
L10L
sg7
L715L
sa(dp11
g6
L10L
sg7
L927L
sass."
Substitution2: "Thai.su subtable" uni0E48
EndChar

StartChar: uni0E49.sd
Encoding: 820 63630 223
GlifName: uni0E_49.sd
Width: 0
VWidth: 0
GlyphClass: 4
Flags: MW
AnchorPoint: "ThaiExtendedAbove.mkmk" 0 0 basemark 0
AnchorPoint: "ThaiTone.mark" 0 0 mark 0
LayerCount: 2
Fore
SplineSet
-305 865 m 0
 -321 865 -333 854 -333 836 c 0
 -333 818 -321 807 -305 807 c 0
 -289 807 -277 818 -277 836 c 0
 -277 854 -289 865 -305 865 c 0
-275 787 m 1
 -284 783 -294 780 -305 780 c 0
 -339 780 -365 802 -365 836 c 0
 -365 870 -339 892 -305 892 c 0
 -254 892 -236 854 -231 808 c 0
 -229 794 -228 778 -228 768 c 0
 -228 762 -228 757 -228 752 c 1
 -161 760 -113 802 -113 897 c 1
 -45 889 l 1
 -45 777 -136 707 -250 707 c 2
 -268 707 l 1
 -277 721 l 1
 -275 731 -273 746 -273 765 c 0
 -273 772 -274 780 -275 787 c 1
EndSplineSet
PickledDataWithLists: "(dp0
Vcom.fontlab.hintData
p1
(dp2
Vvhints
p3
(lp4
(dp5
Vwidth
p6
L10L
sVposition
p7
L-309L
sa(dp8
g6
L10L
sg7
L-263L
sa(dp9
g6
L10L
sg7
L-247L
sa(dp10
g6
L10L
sg7
L-188L
sa(dp11
g6
L10L
sg7
L7L
sasVhhints
p12
(lp13
(dp14
g6
L10L
sg7
L720L
sa(dp15
g6
L10L
sg7
L927L
sass."
Substitution2: "Thai.su subtable" uni0E49
EndChar

